<svg id="圖層_1" data-name="圖層 1" xmlns="http://www.w3.org/2000/svg" viewBox="0 0 260.44 70.43"><defs><style>.cls-1{fill:#fff;}</style></defs><title>TONE 行銷頁面元件</title><path class="cls-1" d="M188.83,42.23h1.47a0,0,0,0,0,0,0l-.21-4.11a.3.3,0,0,0-.3-.29h-1.62a.16.16,0,0,0-.17.16h0l.62,4.11A.16.16,0,0,0,188.83,42.23Zm7.66-4.45h-1.62a.3.3,0,0,0-.3.29l-.21,4.12a0,0,0,0,0,0,0h1.47a.16.16,0,0,0,.17-.16l.62-4.12h0A.17.17,0,0,0,196.49,37.78Zm-2.26-12.44h-3.72a.66.66,0,0,0-.7.55l-.12.34A12.23,12.23,0,0,1,187,30.57v1.18a.24.24,0,0,0,.24.24l.07,0,.09,0a12.5,12.5,0,0,0,5-5,12.37,12.37,0,0,0,4.33,4.57l.09.06h.08a.26.26,0,0,0,.23-.16V30a12.22,12.22,0,0,1-2-3.78C194.89,25.8,194.81,25.31,194.23,25.34Zm2.68,17.33h0c-1.1.33-2.28.6-3.44.83V36.62h3.15a.28.28,0,0,0,.29-.29v-.95a.29.29,0,0,0-.29-.29h-3.15V33h2.41a.29.29,0,0,0,.29-.29v-1a.29.29,0,0,0-.29-.29h-7a.28.28,0,0,0-.29.29v1a.29.29,0,0,0,.29.29h2.42v2.1h-3.15a.29.29,0,0,0-.28.29v.95a.29.29,0,0,0,.28.29h3.15v7.27a39,39,0,0,1-4,.41h0a.28.28,0,0,0-.29.29V46a.29.29,0,0,0,.29.29h0a31.52,31.52,0,0,0,9.53-2.21.29.29,0,0,0,.17-.26V42.73S197,42.65,196.91,42.67Zm10.15-1.22a19.49,19.49,0,0,0,1.54-4.29c.08-.46-.3-.4-.3-.4h-1.68a14.86,14.86,0,0,1-.72,3,11,11,0,0,1-1.48-4h4a.28.28,0,0,0,.28-.29V26.44a1.1,1.1,0,0,0-1.17-1.1h-9.21a.29.29,0,0,0-.29.28V46a.31.31,0,0,0,.3.3h0A23.73,23.73,0,0,0,204.12,45h0a.3.3,0,0,0,.19-.28V43.39s0-.07-.09,0a35.86,35.86,0,0,1-4,.66V35.79h1.52a17.15,17.15,0,0,0,7.92,10.52h0a.2.2,0,0,0,.11,0,.29.29,0,0,0,.29-.27h0V44.33A14.2,14.2,0,0,1,207.06,41.45Zm-6.78-14.36h6.22v2.6h-6.22Zm0,7V31.43h6.22V34Z"/><path class="cls-1" d="M153.68,31.18h-3.11V26.82a1.25,1.25,0,0,0-1.25-1.25H148a.28.28,0,0,0-.28.26s0,0,0,0v5.33H143V25.85a.28.28,0,0,0-.28-.29h-1.32a1.26,1.26,0,0,0-1.27,1.26v4.36H136V26.42a.29.29,0,0,0-.29-.29h-1.32a1.25,1.25,0,0,0-1.26,1.26v3.79H131a.23.23,0,0,0-.22.24v1.25a.22.22,0,0,0,.22.23h2.13V45.06a1.26,1.26,0,0,0,1.27,1.26h18.2a.29.29,0,0,0,.29-.28V44.89a.3.3,0,0,0-.29-.3H136V32.9h4.09v6.42a1.26,1.26,0,0,0,1.26,1.27h7.92a1.27,1.27,0,0,0,1.27-1.27V32.9h3.11a.23.23,0,0,0,.24-.23V31.42A.24.24,0,0,0,153.68,31.18Zm-6,7.66H143V32.9h4.7Z"/><path class="cls-1" d="M222.88,30.38h-2.39a11.44,11.44,0,0,1-5.29,4.31h0a.23.23,0,0,0-.11.09h0V36s-.06.52.45.34a18.74,18.74,0,0,0,2.21-.9v9.66A1.26,1.26,0,0,0,219,46.33h1.32a.29.29,0,0,0,.29-.29V33.55a13.15,13.15,0,0,0,2.43-2.85C223.24,30.34,222.88,30.38,222.88,30.38Zm0-5H220.5a11.43,11.43,0,0,1-5.29,4.3h0s-.1.06-.1.1h0v1.16s-.06.52.44.35a13,13,0,0,0,7.52-5.61C223.24,25.3,222.88,25.34,222.88,25.34Zm2.56,2.49h11.41a.23.23,0,0,0,.23-.23V26.34a.23.23,0,0,0-.23-.23H225.44a.23.23,0,0,0-.23.23V27.6A.23.23,0,0,0,225.44,27.83Zm12.44,4.08H224.07a.24.24,0,0,0-.23.23v1.27a.24.24,0,0,0,.23.23H232V43.85c0,.62-.17,1-1.2,1h-1c-.07,0-.08,0-.08.07V46.1a.23.23,0,0,0,.23.23h2.2c2.08-.06,2.77-.49,2.77-2.5V33.64h3a.23.23,0,0,0,.23-.23V32.14A.23.23,0,0,0,237.88,31.91Z"/><path class="cls-1" d="M87,39.42v1.06a.25.25,0,0,1-.14.22A25.12,25.12,0,0,1,82.72,42a22.33,22.33,0,0,1-3.7.58h0a.23.23,0,0,1-.23-.23v-1.7a.24.24,0,0,1,.24-.24h0a34.85,34.85,0,0,0,7.79-1.13S87,39.23,87,39.42Zm0-6V37a1.24,1.24,0,0,1-1.23,1.24H80A1.24,1.24,0,0,1,78.77,37V33.43A1.23,1.23,0,0,1,80,32.19h5.73A1.23,1.23,0,0,1,87,33.43Zm-2.73,0H81.51v3.43h2.74Zm2.73,0V37a1.24,1.24,0,0,1-1.23,1.24H80A1.24,1.24,0,0,1,78.77,37V33.43A1.23,1.23,0,0,1,80,32.19h5.73A1.23,1.23,0,0,1,87,33.43Zm-2.73,0H81.51v3.43h2.74Zm2.73,7V39.42c0-.19-.16-.13-.16-.13A34.85,34.85,0,0,1,79,40.42h0a.24.24,0,0,0-.24.24v1.7a.23.23,0,0,0,.23.23h0a22.33,22.33,0,0,0,3.7-.58,25.12,25.12,0,0,0,4.11-1.31A.25.25,0,0,0,87,40.48ZM97.53,27V45.1a1.24,1.24,0,0,1-1.24,1.23H76.12a1.24,1.24,0,0,1-1.24-1.24V27a1.25,1.25,0,0,1,1.25-1.24H96.29A1.25,1.25,0,0,1,97.53,27Zm-7.89,2.33h2c-.13-.89-.26-1.61-.35-2.06H89.61C89.6,27.66,89.59,28.39,89.64,29.34Zm-11.94,0h9.84c-.1-.95-.13-1.68-.14-2.06H77.71Zm17-2.06H93.38c.12.64.33,1.79.53,2.94,0,.64-.49.64-.49.64H89.76a29.3,29.3,0,0,0,1.23,6,23.19,23.19,0,0,0,1.06-2.2.16.16,0,0,1,.22-.11l1.46.6s.16.06.06.24a27,27,0,0,1-2,3.51,16.94,16.94,0,0,0,2.5,4.11c.11.09,0,.16,0,.16l-.69.82a.16.16,0,0,1-.23,0,13.65,13.65,0,0,1-2.74-3.56,14.24,14.24,0,0,1-3.86,3.32c-.15.11-.22-.07-.22-.07l-.46-.87s-.09-.14,0-.21a14.93,14.93,0,0,0,3.69-3.82,30,30,0,0,1-2.12-7.93h-10v14h17ZM87,33.43V37a1.24,1.24,0,0,1-1.23,1.24H80A1.24,1.24,0,0,1,78.77,37V33.43A1.23,1.23,0,0,1,80,32.19h5.73A1.23,1.23,0,0,1,87,33.43Zm-2.73,0H81.51v3.43h2.74Zm2.57,5.81A34.85,34.85,0,0,1,79,40.42h0a.24.24,0,0,0-.24.24v1.7a.23.23,0,0,0,.23.23h0a22.33,22.33,0,0,0,3.7-.58,25.12,25.12,0,0,0,4.11-1.31.25.25,0,0,0,.14-.22V39.42C87,39.23,86.81,39.29,86.81,39.29Z"/><path class="cls-1" d="M114.59,36.84h-1.3a.29.29,0,0,0-.28.28v6.72c0,.63-.12,1-1.14,1h-.59a.07.07,0,0,0-.08.08V46a.35.35,0,0,0,.35.35h1.07c2.43,0,3.2-.33,3.21-2.44V38.08A1.25,1.25,0,0,0,114.59,36.84Zm11-2.84H111.24c.51-.65,1-1.31,1.4-2h10.24a.23.23,0,0,0,.23-.23V30.57a.23.23,0,0,0-.23-.23h-9.21c.4-.7.74-1.37,1-2h10.07a.23.23,0,0,0,.23-.23V26.91a.23.23,0,0,0-.23-.23h-9.32c.1-.25.18-.46.23-.62s.07-.4-.19-.46l-2-.43a.4.4,0,0,0-.51.33l-.18.58-.21.6h-8.31a.23.23,0,0,0-.23.23v1.24a.23.23,0,0,0,.23.23h7.62c-.28.62-.6,1.27-1,2h-4.81a.23.23,0,0,0-.23.23v1.24a.23.23,0,0,0,.23.23H110c-.42.66-.87,1.32-1.36,2H103.4a.23.23,0,0,0-.24.23v1.24a.24.24,0,0,0,.24.23h3.76a13.19,13.19,0,0,1-3.78,2.83.3.3,0,0,0-.19.45l.27.66a.29.29,0,0,0,.42.15,12.74,12.74,0,0,0,2.51-1.24A33.68,33.68,0,0,1,111,40.23a.19.19,0,0,0,.25,0l.66-1.4a.17.17,0,0,0-.07-.26A27.86,27.86,0,0,0,108,37.4a19.57,19.57,0,0,0,1.82-1.7h9a15.65,15.65,0,0,0,1.81,1.6,14.89,14.89,0,0,1-3.77,1c-.12,0-.17.09-.14.23.19.56.25,1,.43,1.55.06.18.15.18.27.15A19.19,19.19,0,0,0,122,38.28a16.92,16.92,0,0,0,3.08,1.52.31.31,0,0,0,.43-.15l.27-.67a.3.3,0,0,0-.19-.44,16.29,16.29,0,0,1-4.2-2.84h4.2a.24.24,0,0,0,.23-.23V34.23A.23.23,0,0,0,125.59,34Zm-13.48,8.35c-.07-.5-.08-.44-.18-.94a.16.16,0,0,0-.23-.12,34.67,34.67,0,0,1-7,2.47.19.19,0,0,0-.13.29c.21.43.55,1.18.69,1.51a.33.33,0,0,0,.39.13,40.39,40.39,0,0,0,6.41-3A.26.26,0,0,0,112.11,42.35ZM124,43.86a34.12,34.12,0,0,0-6.63-2.31c-.2-.07-.24.09-.24.09l-.42.91a.17.17,0,0,0,.1.25,50.26,50.26,0,0,1,5.83,2.79.46.46,0,0,0,.57-.1c.36-.53.51-.78.87-1.31A.21.21,0,0,0,124,43.86Z"/><path class="cls-1" d="M181.76,26.69h-5.19a1.24,1.24,0,0,0-1.25-1.13h-1.15a.3.3,0,0,0-.29.29v.84H167v-.84a.29.29,0,0,0-.29-.29h-1.15a1.26,1.26,0,0,0-1.25,1.13h-5.19a.23.23,0,0,0-.23.23V28.1a.23.23,0,0,0,.23.23h5.18v.93a.29.29,0,0,0,.29.29h2.13a.28.28,0,0,0,.28-.29v-.93h6.89v.93a.29.29,0,0,0,.29.29h2.13a.29.29,0,0,0,.29-.29v-.93h5.17a.23.23,0,0,0,.24-.23V26.92A.23.23,0,0,0,181.76,26.69Zm0,9.26a.24.24,0,0,0,.24-.23v-1.2a.23.23,0,0,0-.24-.22H178V32.14h2.07a.23.23,0,0,0,.24-.23V30.72a.23.23,0,0,0-.24-.22H160.82a.22.22,0,0,0-.23.22v1.19a.23.23,0,0,0,.23.23h2.07V34.3h-3.78a.22.22,0,0,0-.22.22v1.2a.23.23,0,0,0,.22.23h3.78v2.16h-2.07a.23.23,0,0,0-.23.23v1.18a.23.23,0,0,0,.23.23h8.27v2.16h-10a.23.23,0,0,0-.22.23v1.18a.22.22,0,0,0,.22.23h10v1.52a1.27,1.27,0,0,0,1.27,1.26h1.15a.28.28,0,0,0,.28-.28v-2.5h10a.23.23,0,0,0,.24-.23V42.14a.24.24,0,0,0-.24-.23h-10V39.75h8.27a.23.23,0,0,0,.24-.23V38.34a.23.23,0,0,0-.24-.23H178V36Zm-12.67,2.16h-3.5V36h3.5Zm0-3.81h-3.5V32.14h3.5Zm6.2,3.81h-3.5V36h3.5Zm0-3.81h-3.5V32.14h3.5Z"/><path class="cls-1" d="M34.08,29.9c7.67-3.44,15.45-4.44,21.43-3.2a3.82,3.82,0,0,1-1.75-1.57A5.72,5.72,0,0,0,48,22.23a4.08,4.08,0,0,1-2.68-.59,5.64,5.64,0,0,0-6.5,0,4.09,4.09,0,0,1-2.69.59,5.71,5.71,0,0,0-5.73,2.9,3.88,3.88,0,0,1-2.15,1.72,5.63,5.63,0,0,0-3.8,4.81,4.13,4.13,0,0,1-1.24,2.45,6.14,6.14,0,0,0-1.88,4.45v.08A41.05,41.05,0,0,1,34.08,29.9Z"/><path class="cls-1" d="M40.85,34.41a38.62,38.62,0,0,1,18.72-3.6,5.65,5.65,0,0,0-3.67-4h0l-.39-.15c-6-1.24-13.76-.24-21.43,3.2a41.05,41.05,0,0,0-12.73,8.74,6.23,6.23,0,0,0,5.37,6.08A39.64,39.64,0,0,1,40.85,34.41Z"/><path class="cls-1" d="M61,34.11a4.08,4.08,0,0,1-1.24-2.45,4.57,4.57,0,0,0-.14-.85,38.62,38.62,0,0,0-18.72,3.6A39.64,39.64,0,0,0,26.72,44.72a6,6,0,0,0,.85.05h8.92A1.56,1.56,0,0,1,38,46.33v.35a1.63,1.63,0,0,1-1.41,1.62l-7.26,1.25a.52.52,0,0,0-.48.47v.89H55.29V50a.51.51,0,0,0-.48-.47L47.56,48.3a1.63,1.63,0,0,1-1.41-1.62v-.35a1.56,1.56,0,0,1,1.53-1.56h8.93a6.21,6.21,0,0,0,6.21-6.21A6.13,6.13,0,0,0,61,34.11Z"/></svg>