<svg id="圖層_1" data-name="圖層 1" xmlns="http://www.w3.org/2000/svg" viewBox="0 0 260.44 70.43"><defs><style>.cls-1{fill:#fff;}</style></defs><title>TONE 行銷頁面元件</title><path class="cls-1" d="M128.26,34h0a.92.92,0,0,0-.92-.91h-3.52a.13.13,0,0,1-.14-.13V29.38a.92.92,0,0,0-.91-.92h0a.92.92,0,0,0-.92.92v3.53a.13.13,0,0,1-.13.13h-.3a.91.91,0,0,0-.91.91h0a.92.92,0,0,0,.92.92h.29a.13.13,0,0,1,.13.13v5.36a7.3,7.3,0,0,0,1.83,4.85,7.41,7.41,0,0,0,3.4,2.17.91.91,0,0,0,1.18-.88h0a.91.91,0,0,0-.65-.87,5.51,5.51,0,0,1-3.93-5.27V35a.13.13,0,0,1,.14-.13h3.52A.92.92,0,0,0,128.26,34Z"/><path class="cls-1" d="M171.06,34h0a.91.91,0,0,0-.91-.91h-3.53a.13.13,0,0,1-.13-.13V29.38a.92.92,0,0,0-.92-.92h0a.91.91,0,0,0-.91.92v3.53a.13.13,0,0,1-.14.13h-.3a.91.91,0,0,0-.91.91h0a.92.92,0,0,0,.92.92h.29a.13.13,0,0,1,.14.13v5.36a7.32,7.32,0,0,0,5.22,7,.91.91,0,0,0,1.18-.88h0a.9.9,0,0,0-.65-.87,5.5,5.5,0,0,1-3.92-5.27V35a.13.13,0,0,1,.13-.13h3.53A.92.92,0,0,0,171.06,34Z"/><path class="cls-1" d="M180.27,33a7.27,7.27,0,0,0-4.46,1.48.11.11,0,0,1-.17-.09V29.38a.92.92,0,0,0-.91-.92h0a.92.92,0,0,0-.92.92V46.77a.92.92,0,0,0,.92.92h0a.92.92,0,0,0,.91-.92V38a1.94,1.94,0,0,1,.51-1.31,5.34,5.34,0,0,1,9.34,3.78v6.31a.92.92,0,0,0,.91.92h0a.92.92,0,0,0,.92-.92v-6.3A7.26,7.26,0,0,0,180.27,33Z"/><path class="cls-1" d="M213,33a7.3,7.3,0,0,0-4.4,1.47.11.11,0,0,1-.18-.09v-.5a.87.87,0,0,0-.88-.88h-.07a.88.88,0,0,0-.88.88V46.77a.92.92,0,0,0,.92.92h0a.92.92,0,0,0,.91-.92v-9a1.39,1.39,0,0,1,.3-.87,5.5,5.5,0,0,1,5.86-1.82.87.87,0,0,0,1.06-.46h0a.93.93,0,0,0-.58-1.3A7.43,7.43,0,0,0,213,33Z"/><path class="cls-1" d="M142.91,34v1.32a.1.1,0,0,1-.17.06,7.33,7.33,0,1,0,0,10,.09.09,0,0,1,.15.06v1.25a5.54,5.54,0,0,1-5.46,5.58,5.48,5.48,0,0,1-5-3.15.93.93,0,0,0-.83-.51h0a.92.92,0,0,0-.82,1.32,7.33,7.33,0,0,0,13.94-3.25V34a.92.92,0,0,0-.92-.91h0A.91.91,0,0,0,142.91,34Zm-5.49,11.91a5.5,5.5,0,1,1,5.49-5.5A5.5,5.5,0,0,1,137.42,45.86Z"/><path class="cls-1" d="M116.36,34.77v.41a.13.13,0,0,1-.23.09,7.33,7.33,0,1,0,0,10.19.13.13,0,0,1,.23.09v1.22a.92.92,0,0,0,.91.92h0a.92.92,0,0,0,.92-.92v-12a.92.92,0,0,0-.92-.92h0A.92.92,0,0,0,116.36,34.77Zm-5.49,11.09a5.5,5.5,0,1,1,5.49-5.5A5.5,5.5,0,0,1,110.87,45.86Z"/><path class="cls-1" d="M154.65,33a7.32,7.32,0,0,0-.46,14.63,7.22,7.22,0,0,0,3.2-.52l.29-.12a1,1,0,0,0,0-1.74h0a.69.69,0,0,0-.61,0,5.65,5.65,0,0,1-2.13.56h-.31a5.49,5.49,0,0,1-5.14-3.56.08.08,0,0,1,.07-.11h10.56A1.83,1.83,0,0,0,162,40.36h0A7.32,7.32,0,0,0,154.65,33Zm1.83,7.32h-7.16a.15.15,0,0,1-.16-.16,5.49,5.49,0,0,1,11-.26.4.4,0,0,1-.39.42Z"/><path class="cls-1" d="M197,33a7.32,7.32,0,0,0-.46,14.63,7.25,7.25,0,0,0,3.2-.52L200,47a1,1,0,0,0,0-1.74h0a.69.69,0,0,0-.61,0,5.65,5.65,0,0,1-2.13.56H197a5.49,5.49,0,0,1-5.14-3.56.08.08,0,0,1,.07-.11h10.56a1.83,1.83,0,0,0,1.83-1.83h0A7.32,7.32,0,0,0,197,33Zm1.83,7.32h-7.16a.15.15,0,0,1-.16-.16,5.49,5.49,0,0,1,11-.26.38.38,0,0,1-.38.42Z"/><path class="cls-1" d="M101.05,45.86H94.68a5.49,5.49,0,0,1-5.49-5.5V36.85a.15.15,0,0,1,.15-.15H99.87a.94.94,0,0,0,.95-.82.91.91,0,0,0-.91-1H89.34a.15.15,0,0,1-.15-.15V32.81a5.49,5.49,0,0,1,5.49-5.49h6.37a.94.94,0,0,0,1-.83.92.92,0,0,0-.91-1H94.56a7.34,7.34,0,0,0-7.2,7.35v7.52h0v0a7.32,7.32,0,0,0,7.32,7.29h6.41a.92.92,0,0,0,.91-1A.94.94,0,0,0,101.05,45.86Z"/><path class="cls-1" d="M58.52,15.8A20.09,20.09,0,0,0,41.73,45.58a.81.81,0,0,0,1.14.3h0a.81.81,0,0,0,.27-1.07A18.48,18.48,0,1,1,53.3,53.37a4.59,4.59,0,0,0-1.68-.15l-9.74,1L46,50.08h0L47.1,49c1.84-1.57,4.86-.68,7.07,0l.56.16c4.48,1.28,8.3.24,11-3,3.51-4.16,7.71-12.92,7.89-13.29a.75.75,0,0,0,0-.16h0c.09-.34.26-2.32-4.17-6.78-3.93-3.95-6.26-4.55-6.92-4.64h-.18a.82.82,0,0,0-.3.07c-.37.18-9.13,4.38-13.3,7.89-3.25,2.74-4.29,6.56-3,11,0,.18.1.36.16.56.65,2.21,1.54,5.23,0,7.07l-.38.38h0l-1.15,1.14h0l-5.27,5.2a.84.84,0,0,0-.25.76.8.8,0,0,0,.78.64h.08L52,54.79a1.81,1.81,0,0,1,.73.09A20.1,20.1,0,1,0,58.52,15.8Zm4.55,6.8c.37-.27,2.5,1,5.63,4.13s4,4.84,3.67,5.2-2.5-.89-5.64-4S62.7,22.86,63.07,22.6Zm-1.17.62c.35,1.06,1.34,2.83,4,5.5,2.82,2.83,4.75,3.93,5.85,4.35-.5,1-1.39,2.77-2.46,4.7a7,7,0,0,0-3.62-5.23,10.49,10.49,0,0,0-4.38-.9A9.41,9.41,0,0,1,57.8,31,6.55,6.55,0,0,1,55,27C57.7,25.36,60.5,23.92,61.9,23.22Zm-12,7.22a33.48,33.48,0,0,1,3.67-2.6,8.63,8.63,0,0,0,2,3.47A6.48,6.48,0,0,0,57,32.4a10.36,10.36,0,0,0,4.16.84,9.3,9.3,0,0,1,3.69.7c3.76,2.12,2.85,6.16,2.67,6.83a37.1,37.1,0,0,1-3,4.33c-2.33,2.77-5.48,3.61-9.37,2.5l-.55-.16c-1.76-.52-4.19-1.23-6.34-.74.49-2.15-.22-4.58-.74-6.34-.06-.19-.11-.38-.16-.55C46.27,35.92,47.11,32.77,49.88,30.44Z"/></svg>