<svg id="圖層_1" data-name="圖層 1" xmlns="http://www.w3.org/2000/svg" viewBox="0 0 260.44 70.43"><defs><style>.cls-1{fill:#fff;}</style></defs><title>TONE 行銷頁面元件</title><path class="cls-1" d="M45.7,18.56A13.34,13.34,0,1,0,59,31.9,13.34,13.34,0,0,0,45.7,18.56Zm0,22.23a8.9,8.9,0,1,1,8.9-8.89A8.89,8.89,0,0,1,45.7,40.79Z"/><rect class="cls-1" x="54.6" y="31.9" width="4.45" height="22.24"/><path class="cls-1" d="M59,31.9a8.91,8.91,0,0,1,8.9-8.9V18.56a13.34,13.34,0,1,0,0,26.68V40.79A8.9,8.9,0,0,1,59,31.9Z"/><path class="cls-1" d="M85.09,45.9V51a2.74,2.74,0,0,1-1,2.33,3.64,3.64,0,0,1-2.31.75,3.76,3.76,0,0,1-2.34-.75,2.75,2.75,0,0,1-1-2.33V45.89a3.2,3.2,0,0,1,.89-2.45,3.4,3.4,0,0,1,2.44-.84,3.23,3.23,0,0,1,2.41.88A3.3,3.3,0,0,1,85.09,45.9Zm-1.43,4.83V46.22a2.43,2.43,0,0,0-.43-1.57,1.75,1.75,0,0,0-1.44-.54,1.77,1.77,0,0,0-1.44.53,2.4,2.4,0,0,0-.43,1.56v4.54a1.71,1.71,0,0,0,1.86,1.86,1.89,1.89,0,0,0,1.37-.5A1.83,1.83,0,0,0,83.66,50.73Z"/><path class="cls-1" d="M88.78,56.81l-1.43.34V46h1.37l0,.35a2.27,2.27,0,0,1,1.54-.47,2.86,2.86,0,0,1,2.23.84,3.21,3.21,0,0,1,.76,2.2v2.19a2.9,2.9,0,0,1-.8,2.19,3,3,0,0,1-2.12.76,2.61,2.61,0,0,1-1.58-.44Zm3.07-5.93v-2a1.67,1.67,0,0,0-.39-1.2,1.47,1.47,0,0,0-1.1-.4,1.63,1.63,0,0,0-1.14.39,1.52,1.52,0,0,0-.44,1.13V51a1.41,1.41,0,0,0,1.57,1.61C91.35,52.64,91.85,52.06,91.85,50.88Z"/><path class="cls-1" d="M97.08,52.72a4.52,4.52,0,0,0,2.06-.63l.53,1.21a4.7,4.7,0,0,1-2.53.74c-1.82,0-2.73-.76-2.73-2.29V48.53a2.5,2.5,0,0,1,.79-2,3.05,3.05,0,0,1,2.1-.71,2.82,2.82,0,0,1,2,.7,2.59,2.59,0,0,1,.73,1.94v2.26L95.86,51v.61a1,1,0,0,0,.36.88A1.5,1.5,0,0,0,97.08,52.72Zm1.54-3.23v-1a1.14,1.14,0,0,0-.41-1,1.66,1.66,0,0,0-1-.3,1.33,1.33,0,0,0-1,.37,1.3,1.3,0,0,0-.36,1v1.1Z"/><path class="cls-1" d="M103.1,46.23a3.14,3.14,0,0,1,1.52-.37,4,4,0,0,1,1.53.28,2.28,2.28,0,0,1,1.33,2.28v5.44h-1.43V48.75a1.43,1.43,0,0,0-.45-1.15,1.69,1.69,0,0,0-1.13-.39,3,3,0,0,0-1.37.36v6.28h-1.41V46H103Z"/><path class="cls-1" d="M119.38,52.17l.24,1.32a7,7,0,0,1-2.55.52,6.54,6.54,0,0,1-.76,0,2.82,2.82,0,0,1-1.09-.35,2.22,2.22,0,0,1-.92-1,3.48,3.48,0,0,1-.36-1.66v-5a3.76,3.76,0,0,1,.34-1.8,2.85,2.85,0,0,1,1-1A3.42,3.42,0,0,1,117,42.7a4.79,4.79,0,0,1,2.23.52l-.41,1.22a4.35,4.35,0,0,0-1.56-.28,2.13,2.13,0,0,0-1.34.4,1.44,1.44,0,0,0-.54,1.23V51a1.61,1.61,0,0,0,.35,1.1,1.79,1.79,0,0,0,1.41.5A8.13,8.13,0,0,0,119.38,52.17Z"/><path class="cls-1" d="M126.12,53.85h-1.35l0-.34a2.33,2.33,0,0,1-1.51.52c-2,0-2.95-1-2.95-2.88V46h1.43V51c0,1.08.51,1.61,1.52,1.61s1.48-.55,1.48-1.66V46h1.43v7.87Z"/><path class="cls-1" d="M129.37,53.85h-1.43v-11h1.43Z"/><path class="cls-1" d="M133.88,52.93l-.42,1.13a2.07,2.07,0,0,1-2.14-2.28V42.85h1.45V46h1.63L134,47.33h-1.26v4.45C132.77,52.44,133.14,52.82,133.88,52.93Z"/><path class="cls-1" d="M141.19,53.85h-1.35l-.05-.34a2.33,2.33,0,0,1-1.51.52c-2,0-2.95-1-2.95-2.88V46h1.43V51c0,1.08.51,1.61,1.52,1.61s1.48-.55,1.48-1.66V46h1.43v7.87Z"/><path class="cls-1" d="M144.16,46.22a3.51,3.51,0,0,1,1.62-.36A7.38,7.38,0,0,1,147,46l-.34,1.37a1.86,1.86,0,0,0-.83-.21,2.15,2.15,0,0,0-.77.13,1.12,1.12,0,0,0-.85,1.1v5.44h-1.43V46h1.35Z"/><path class="cls-1" d="M150,52.72a4.52,4.52,0,0,0,2.06-.63l.53,1.21a4.7,4.7,0,0,1-2.53.74c-1.82,0-2.73-.76-2.73-2.29V48.53a2.5,2.5,0,0,1,.79-2,3.05,3.05,0,0,1,2.1-.71,2.82,2.82,0,0,1,2,.7,2.59,2.59,0,0,1,.73,1.94v2.26l-4.21.24v.61a1,1,0,0,0,.36.88A1.5,1.5,0,0,0,150,52.72Zm1.54-3.23v-1a1.11,1.11,0,0,0-.41-1,1.66,1.66,0,0,0-1-.3,1.29,1.29,0,0,0-1,.37,1.27,1.27,0,0,0-.37,1v1.1Z"/><path class="cls-1" d="M160.61,53.85h-1.43v-11h5.25v1.42h-3.82v3.09H163l-.51,1.39h-1.87v5.1Z"/><path class="cls-1" d="M170.15,48.89V51a3.32,3.32,0,0,1-.72,2.19,2.7,2.7,0,0,1-2.18.86,2.75,2.75,0,0,1-2.21-.87,3.23,3.23,0,0,1-.75-2.18V48.89a3.21,3.21,0,0,1,.76-2.29,2.86,2.86,0,0,1,2.17-.79,2.8,2.8,0,0,1,2.16.82A3.16,3.16,0,0,1,170.15,48.89Zm-1.41,2.23V48.89c0-1.11-.5-1.67-1.49-1.67s-1.53.56-1.53,1.67v2.23a1.4,1.4,0,0,0,.43,1.12,1.56,1.56,0,0,0,1.1.39,1.49,1.49,0,0,0,1.08-.39A1.51,1.51,0,0,0,168.74,51.12Z"/><path class="cls-1" d="M177.16,53.85h-1.35l-.05-.34a2.32,2.32,0,0,1-1.5.52c-2,0-3-1-3-2.88V46h1.43V51c0,1.08.51,1.61,1.53,1.61s1.47-.55,1.47-1.66V46h1.43v7.87Z"/><path class="cls-1" d="M180.18,46.23a3.14,3.14,0,0,1,1.52-.37,4,4,0,0,1,1.53.28,2.28,2.28,0,0,1,1.33,2.28v5.44h-1.43V48.75a1.43,1.43,0,0,0-.45-1.15,1.69,1.69,0,0,0-1.13-.39,3,3,0,0,0-1.37.36v6.28h-1.42V46h1.31Z"/><path class="cls-1" d="M188.18,46.15a4.4,4.4,0,0,1,1.62-.31,3.11,3.11,0,0,1,1.43.31v-3.3h1.41v11a17.49,17.49,0,0,1-2.5.19,4.44,4.44,0,0,1-2.07-.47,2.25,2.25,0,0,1-1.23-2.18v-3A2.28,2.28,0,0,1,188.18,46.15Zm3,1.47a2.92,2.92,0,0,0-1.35-.37,1.9,1.9,0,0,0-1.14.37,1.43,1.43,0,0,0-.48,1.22v2.63a1.11,1.11,0,0,0,.88,1.1,3.21,3.21,0,0,0,1,.15,5.36,5.36,0,0,0,1.1-.12v-5Z"/><path class="cls-1" d="M196.07,47.55a4.28,4.28,0,0,1,2.35.63c0-.88-.65-1.32-1.94-1.32l.11-1a4.5,4.5,0,0,1,1.88.3,5,5,0,0,1,.58.34,1.27,1.27,0,0,1,.4.46c.09.18.17.35.23.49a1.85,1.85,0,0,1,.13.57c0,.37,0,.75,0,1.15v4.69c-1.09.1-1.95.15-2.6.15q-3.45,0-3.45-2.81V49.89a2.12,2.12,0,0,1,1.09-2.09A2.83,2.83,0,0,1,196.07,47.55Zm2.35,5.06v-3a4.78,4.78,0,0,0-1.9-.61l-.37,0a1.11,1.11,0,0,0-.59.23,1,1,0,0,0-.33.84v1c0,1.08.69,1.62,2.05,1.62A6.86,6.86,0,0,0,198.42,52.61Z"/><path class="cls-1" d="M203.74,52.93l-.43,1.13a2.07,2.07,0,0,1-2.14-2.28V42.85h1.45V46h1.63l-.37,1.35h-1.26v4.45C202.62,52.44,203,52.82,203.74,52.93Z"/><path class="cls-1" d="M207.41,43.48a.78.78,0,0,1-.23.54.72.72,0,0,1-.54.25.76.76,0,0,1-.56-.25.74.74,0,0,1,0-1.09.82.82,0,0,1,.56-.23.79.79,0,0,1,.77.78Zm-.09,10.37h-1.43V46h1.43Z"/><path class="cls-1" d="M215.76,48.89V51a3.27,3.27,0,0,1-.73,2.19,2.7,2.7,0,0,1-2.18.86,2.76,2.76,0,0,1-2.21-.87A3.22,3.22,0,0,1,209.9,51V48.89a3.17,3.17,0,0,1,.76-2.29,3.31,3.31,0,0,1,4.33,0A3.21,3.21,0,0,1,215.76,48.89Zm-1.42,2.23V48.89c0-1.11-.49-1.67-1.49-1.67s-1.52.56-1.52,1.67v2.23a1.43,1.43,0,0,0,.42,1.12,1.56,1.56,0,0,0,1.1.39,1.49,1.49,0,0,0,1.08-.39A1.47,1.47,0,0,0,214.34,51.12Z"/><path class="cls-1" d="M218.76,46.23a3.14,3.14,0,0,1,1.52-.37,4,4,0,0,1,1.53.28,2.28,2.28,0,0,1,1.33,2.28v5.44h-1.43V48.75a1.43,1.43,0,0,0-.45-1.15,1.69,1.69,0,0,0-1.13-.39,2.92,2.92,0,0,0-1.37.36v6.28h-1.42V46h1.31Z"/><path class="cls-1" d="M80.66,26.51V37.93h-2V19.18h8v7.33Zm0-5.85v1.41h4.16V20.66ZM84.82,25v-1.6H80.66V25Zm5.61,7.88v4.68H88.66V32.91H86.1a6.94,6.94,0,0,1-2.82,5A9.53,9.53,0,0,0,82,36.71a5.27,5.27,0,0,0,2.41-3.8H81.94V31.27h2.47v-2H82.3v-1.6H92.68v1.6H90.43v2h2.65v1.64Zm-1.77-1.64v-2H86.14v2Zm7.71,4.23c0,1.09-.24,1.68-.94,2a8.72,8.72,0,0,1-3.33.37,8.75,8.75,0,0,0-.66-2c1.06.06,2.17,0,2.52,0s.42-.1.42-.43v-8.9H88.26V19.18h8.11V35.5ZM90.13,20.66v1.41h4.25V20.66Zm4.25,4.42V23.43H90.13v1.65Z"/><path class="cls-1" d="M117.14,24a25,25,0,0,1-2.58,8.22,10.55,10.55,0,0,0,4.33,3.87,6.81,6.81,0,0,0-1.34,1.7,11.32,11.32,0,0,1-4.17-3.75A14.53,14.53,0,0,1,108.56,38a7.45,7.45,0,0,0-1.13-1.73,11.54,11.54,0,0,0,4.86-4A25.1,25.1,0,0,1,110.42,27a14.66,14.66,0,0,1-1.37,2.24,12.71,12.71,0,0,0-1.37-1.43c-.13,6.13-.27,8.37-.79,9.07a1.7,1.7,0,0,1-1.32.77,12.43,12.43,0,0,1-2.28.05,6.29,6.29,0,0,0-.52-1.82,15.62,15.62,0,0,0,1.82.09.61.61,0,0,0,.62-.3c.34-.45.49-2.41.59-7.88h-2.43c0,3.48-.43,7.09-3.16,10.06a7.77,7.77,0,0,0-1.47-1.31c2.45-2.69,2.77-5.91,2.77-8.79V23.48H99.19V21.62h9.35v1.86h-5.17V26h4.36s0,.6,0,.86l0,.64c1.67-2.18,2.76-5.62,3.35-9.18l2,.32c-.23,1.22-.51,2.43-.81,3.59h6.43V24Zm-13.6-2.43a23.23,23.23,0,0,0-1-2.91l1.75-.47a19.85,19.85,0,0,1,1.09,2.84Zm8.07,2.58a26.72,26.72,0,0,0,1.82,6A22.62,22.62,0,0,0,115.16,24h-3.48Z"/><path class="cls-1" d="M136.53,23.88a22.29,22.29,0,0,1-4.72,8,21.11,21.11,0,0,0,8.34,4,9.35,9.35,0,0,0-1.34,1.84,21.38,21.38,0,0,1-8.54-4.44,24.56,24.56,0,0,1-8.73,4.57A10.66,10.66,0,0,0,120.3,36a22.25,22.25,0,0,0,8.5-4.1,24.06,24.06,0,0,1-4.85-8h-3.29V22h9.25a17.94,17.94,0,0,0-1.43-3.22l2.09-.62a17.42,17.42,0,0,1,1.58,3.24l-1.9.6h9.58v1.92Zm-10.51,0a20.73,20.73,0,0,0,4.27,6.6,18.36,18.36,0,0,0,4-6.6Z"/><path class="cls-1" d="M149.12,19A31.58,31.58,0,0,1,147,23V37.87h-1.88V25.76a22.21,22.21,0,0,1-2.54,2.84,10.46,10.46,0,0,0-1.09-2,23.25,23.25,0,0,0,5.79-8.19Zm8.73,16.49c1.15,0,1.35-.9,1.52-4.49a6,6,0,0,0,1.79.88c-.28,4-.77,5.4-3.18,5.4h-3.82c-2.35,0-3-.71-3-3.27V18.65h1.9v5.64h7.51v1.9h-7.51V34c0,1.2.21,1.43,1.28,1.43Z"/><path class="cls-1" d="M178.35,30a12.07,12.07,0,0,0,4.52,2.9,8.7,8.7,0,0,0-1.3,1.54A13.46,13.46,0,0,1,176.19,30h-6.36A13.54,13.54,0,0,1,168,32.19h3.91v-1.6h2v1.6h4.23v1.58h-4.23v1.9H181v1.64H165V35.67h6.9v-1.9h-4.08V32.36a15.23,15.23,0,0,1-3.52,2.35A6.71,6.71,0,0,0,163,33.19,12.79,12.79,0,0,0,167.59,30h-4.4V28.39h4.14v-6.6h-3.1V20.17h3.1V18.31h2v1.86h7.25V18.33h2v1.84h3.06v1.62H178.6v6.6h4V30Zm-9-8.24V23h7.25v-1.2Zm0,3.86h7.25V24.44h-7.25Zm0,2.74h7.25V27.11h-7.25Z"/><path class="cls-1" d="M195.25,26.38V29h7.16v1.8h-7.16v4.76h8.18v1.81H185.11V35.52h8V30.76h-7V29h7V26.38h-4.46V25.27a25.17,25.17,0,0,1-3.1,1.37,7.7,7.7,0,0,0-1.32-1.84c4-1.22,7.83-3.57,9.86-6.7l1.86.83c-.19.28-.36.55-.56.81a23.08,23.08,0,0,0,8.89,5.08,8.49,8.49,0,0,0-1.37,1.73,21.41,21.41,0,0,1-3.18-1.47v1.3ZM189.34,31a16.79,16.79,0,0,1,2,3.69l-1.73.75a18.16,18.16,0,0,0-1.9-3.8Zm9.46-6.43a23.62,23.62,0,0,1-4.53-3.45A19.46,19.46,0,0,1,190,24.54Zm-1.92,10.25A20.43,20.43,0,0,0,199,31l1.92.7c-.81,1.35-1.75,2.8-2.48,3.76Z"/><path class="cls-1" d="M217.07,18.8a3.81,3.81,0,0,1-.32.41,20.69,20.69,0,0,0,8.93,4.16,7.78,7.78,0,0,0-1.26,1.52c-.52-.15-1.07-.32-1.6-.52V29.9H208.38V24.52c-.53.19-1,.37-1.58.51a7.55,7.55,0,0,0-1.06-1.51c3.86-1,7.64-2.84,9.58-5.34Zm5.66,5.55a20.7,20.7,0,0,1-3.42-1.51v.62h-7.38v-.52a21.66,21.66,0,0,1-3.1,1.41ZM209.6,30.76h12.17v7h-2V37.2h-8.18v.67h-2V30.76Zm2.9-5a8.87,8.87,0,0,1,1.09,2.35l-1.41.47h2.52v-3h-4.63v3h2.05a9.62,9.62,0,0,0-1-2.39Zm-.94,6.34V33.3h8.18V32.12Zm8.18,3.74v-1.2h-8.18v1.2Zm-1.69-13.77a14.88,14.88,0,0,1-2.34-1.79,17.51,17.51,0,0,1-2.33,1.79Zm3,3.56h-4.74v3h2.4l-1.33-.41a15.07,15.07,0,0,0,1.07-2.49l1.67.47c-.47.91-.94,1.81-1.33,2.43h2.26v-3Z"/></svg>