<svg id="圖層_1" data-name="圖層 1" xmlns="http://www.w3.org/2000/svg" xmlns:xlink="http://www.w3.org/1999/xlink" viewBox="0 0 1470.17 678.89"><defs><style>.cls-1{fill:url(#未命名漸層_14);}.cls-2{fill:url(#未命名漸層_14-2);}</style><linearGradient id="未命名漸層_14" x1="-556.84" y1="409.89" x2="913.33" y2="409.89" gradientUnits="userSpaceOnUse"><stop offset="0" stop-color="#ff978e"/><stop offset="1" stop-color="#ff5b82" stop-opacity="0.93"/></linearGradient><linearGradient id="未命名漸層_14-2" x1="0" y1="204.25" x2="1470.17" y2="204.25" xlink:href="#未命名漸層_14"/></defs><title>TONE 行銷頁面元件</title><path class="cls-1" d="M1279.63,317.38c-61-28.65-111.19-75.41-166.44-113.94s-120.92-70-187.67-61c-90.78,12.25-153.77,92.68-216.09,159.83s-153.91,130.49-239.18,97c-62.14-24.4-96.54-92.49-154.88-124.95-66.16-36.82-151.79-19.77-214.64,22.45C61.53,323.09,29.29,357.65,0,395V678.89L1470.17,465.21V339.59C1406,351.43,1338.9,345.24,1279.63,317.38Z"/><path class="cls-2" d="M0,0V395c29.29-37.3,61.53-71.86,100.73-98.19,62.85-42.22,148.48-59.27,214.64-22.45,58.34,32.46,92.74,100.55,154.88,125,85.27,33.5,176.86-29.84,239.18-97S834.74,154.69,925.52,142.44c66.75-9,132.43,22.47,187.67,61s105.48,85.29,166.44,113.94c59.27,27.86,126.4,34.05,190.54,22.21V0Z"/></svg>