<svg xmlns="http://www.w3.org/2000/svg" xmlns:xlink="http://www.w3.org/1999/xlink" viewBox="0 0 360 309.98"><defs><style>.cls-1{fill:url(#未命名漸層_23);}.cls-2{fill:url(#未命名漸層_24);}.cls-3{opacity:0.15;}.cls-4{fill:#fff;}</style><linearGradient id="未命名漸層_23" x1="40.47" y1="154.99" x2="400.47" y2="154.99" gradientUnits="userSpaceOnUse"><stop offset="0" stop-color="#ff978e"/><stop offset="1" stop-color="#ff5b82"/></linearGradient><linearGradient id="未命名漸層_24" x1="-70.98" y1="217.03" x2="289.02" y2="217.03" xlink:href="#未命名漸層_23"/></defs><title>TONE 頁面尺寸</title><g id="圖層_1" data-name="圖層 1"><polygon class="cls-1" points="0 58.97 0 309.98 360 309.98 360 0 0 58.97"/><path class="cls-2" d="M360,310V124.07c-91.51,8.51-181.14,38-271.8,56.71A796.84,796.84,0,0,1,0,194.35V310Z"/><g class="cls-3"><path class="cls-4" d="M101.63,170H87.35V119.39h-21V107.8h56.24v11.59h-21Z"/><path class="cls-4" d="M160.59,171.7c-16,0-31.24-10.81-31.24-32.82s15.22-32.82,31.24-32.82c15.85,0,31.24,10.65,31.24,32.82S176.44,171.7,160.59,171.7Zm-16.05-32.82c0,16.89,10,20.24,16.05,20.24,5.32,0,16-2.67,16-20.24,0-17.35-10.5-20.24-16-20.24S144.54,121.53,144.54,138.88Z"/><path class="cls-4" d="M247.33,170l-31.39-42.28.47,42.28h-14V107.8h13.49l31.39,42.28-.47-42.28h14V170Z"/><path class="cls-4" d="M326,158.84V170H275V107.8h49.93v11.12H289.21v14h31.55v10.65H289.21v15.3Z"/></g></g></svg>