<svg xmlns="http://www.w3.org/2000/svg" viewBox="0 0 719.89 182"><defs><style>.cls-1{fill:#f2f4f6;}</style></defs><title>fade-tone</title><g id="Layer_2" data-name="Layer 2"><g id="圖層_1" data-name="圖層 1"><path class="cls-1" d="M97.78,177.19H58.19V37H0V4.81H156V37H97.78Z"/><path class="cls-1" d="M261.28,182c-44.41,0-86.62-30-86.62-91S216.87,0,261.28,0c44,0,86.63,29.53,86.63,91S305.25,182,261.28,182ZM216.77,91c0,46.84,27.85,56.12,44.51,56.12,14.77,0,44.52-7.38,44.52-56.12,0-48.1-29.12-56.12-44.52-56.12C246.09,34.88,216.77,42.9,216.77,91Z"/><path class="cls-1" d="M501.83,177.19,414.76,59.94l1.31,117.25H377.36V4.81h37.4l87.07,117.26L500.51,4.81h38.72V177.19Z"/><path class="cls-1" d="M719.89,146.35v30.84H578.57V4.81H717.05V35.66H618V74.38h87.5v29.53H618v42.44Z"/></g></g></svg>