<svg id="圖層_1" data-name="圖層 1" xmlns="http://www.w3.org/2000/svg" viewBox="0 0 84.22 84.22"><defs><style>.cls-1{fill:#ff978e;}.cls-2{fill:#fff;}.cls-3{fill:#ff5b82;}.cls-4{fill:none;stroke:#ff5b82;stroke-linecap:round;stroke-linejoin:round;stroke-width:2.2px;}</style></defs><title>TONE 行銷頁面元件</title><rect class="cls-1" x="12.56" y="20.1" width="59.11" height="44.02" rx="4.93"/><path class="cls-2" d="M32,29.85h2.73l6.2,16.25H38L36.46,42h-6.3l-1.5,4.14H25.81Zm3.71,9.81L33.3,33l-2.39,6.69Z"/><path class="cls-2" d="M51.05,29.85a9.83,9.83,0,0,1,3.23.49,6.14,6.14,0,0,1,2.44,1.49,6.69,6.69,0,0,1,1.54,2.51,10.81,10.81,0,0,1,.53,3.54,10.29,10.29,0,0,1-.57,3.57A6.76,6.76,0,0,1,56.58,44,6.88,6.88,0,0,1,54,45.58a10.72,10.72,0,0,1-3.47.52H45.18V29.85ZM50.6,43.76A6.55,6.55,0,0,0,53,43.35a4.25,4.25,0,0,0,1.67-1.19,4.86,4.86,0,0,0,.94-1.84,8.93,8.93,0,0,0,.3-2.41,6.85,6.85,0,0,0-1.14-4.2,4.37,4.37,0,0,0-3.73-1.52H47.93V43.76Z"/><circle class="cls-3" cx="26.51" cy="55.79" r="5.63"/><line class="cls-4" x1="17.78" y1="55.8" x2="62.12" y2="55.8"/></svg>