<svg id="圖層_1" data-name="圖層 1" xmlns="http://www.w3.org/2000/svg" viewBox="0 0 84.22 84.22"><defs><style>.cls-1,.cls-4{fill:#ff978e;}.cls-2{fill:none;stroke:#ff5b82;stroke-width:2.57px;}.cls-2,.cls-4{stroke-miterlimit:10;}.cls-3{fill:#ff5b82;}.cls-4{stroke:#fff;stroke-width:2px;}.cls-5{fill:#fff;}</style></defs><title>TONE 行銷頁面元件</title><rect class="cls-1" x="39.74" y="38.38" width="32.71" height="32.71" rx="5.29"/><circle class="cls-2" cx="56.1" cy="54.74" r="8.35"/><circle class="cls-3" cx="66.97" cy="45.05" r="2.33"/><rect class="cls-4" x="12.49" y="16" width="40.61" height="40.61" rx="6.57"/><path class="cls-5" d="M30,39.61V35.76h3.08v-2.3a6.19,6.19,0,0,1,.53-2.65,4.47,4.47,0,0,1,3-2.51,6.6,6.6,0,0,1,1.82-.24h3.16V31.9H39.43a4.68,4.68,0,0,0-.83.09,1,1,0,0,0-.88,1c0,.16,0,.33,0,.49v2.24h3.85l-.46,3.85H37.7V51.14H33.08V39.61Z"/></svg>