<svg id="圖層_1" data-name="圖層 1" xmlns="http://www.w3.org/2000/svg" viewBox="0 0 84.22 84.22"><defs><style>.cls-1,.cls-4{fill:#ff978e;}.cls-2{fill:none;stroke:#ff5b82;}.cls-2,.cls-4{stroke-linecap:round;stroke-linejoin:round;stroke-width:2.2px;}.cls-3{fill:#ff5b82;}.cls-4{stroke:#fff;}</style></defs><title>TONE 行銷頁面元件</title><polyline class="cls-1" points="42.11 31.79 42.11 68.33 28.35 65.7 14.58 63.06 14.58 26.52 42.11 31.79"/><polyline class="cls-1" points="42.11 31.79 42.11 68.33 55.88 65.7 69.64 63.06 69.64 26.52 42.11 31.79"/><line class="cls-2" x1="42.11" y1="42.19" x2="42.11" y2="62.5"/><polygon class="cls-3" points="55.2 24.42 42.11 21.91 29.02 24.42 15.93 26.92 29.02 29.43 42.11 31.94 55.2 29.43 68.3 26.92 55.2 24.42"/><polyline class="cls-4" points="42.17 32.91 50.26 40.92 64.11 38.26 77.97 35.61 68.73 26.47"/><polyline class="cls-4" points="42.05 32.91 33.96 40.92 20.11 38.26 6.25 35.61 15.49 26.47"/></svg>