<svg id="圖層_1" data-name="圖層 1" xmlns="http://www.w3.org/2000/svg" viewBox="0 0 84.22 84.22"><defs><style>.cls-1{fill:#ff9f96;}.cls-2{fill:#ff5b82;}.cls-3{fill:#fff;}.cls-4{fill:#ff978e;}</style></defs><title>TONE 行銷頁面元件</title><path class="cls-1" d="M60.29,67.32H74.57a1.23,1.23,0,0,0,1-2L66.37,53.62Z"/><rect class="cls-1" x="35.41" y="39.92" width="38.58" height="27.39" rx="13.7" transform="translate(109.39 107.24) rotate(180)"/><path class="cls-2" d="M55.63,45.75h2.7l6.11,16h-2.9L60,57.69H53.81l-1.48,4.09h-2.8Zm3.67,9.68-2.39-6.61-2.35,6.61Z"/><path class="cls-3" d="M39,15.45H26.78A17.94,17.94,0,0,0,11.47,42.81l-4.7,6A1.6,1.6,0,0,0,8,51.4H39a18,18,0,1,0,0-35.95Z"/><path class="cls-4" d="M38.55,17.12H27.72A16,16,0,0,0,14.1,41.46L9.92,46.8A1.43,1.43,0,0,0,11,49.11H38.55a16,16,0,0,0,0-32Z"/><path class="cls-3" d="M37.33,40.66a8.4,8.4,0,0,1-1.82.65,9.12,9.12,0,0,1-5.34-.39,6.72,6.72,0,0,1-2.49-1.76,7.73,7.73,0,0,1-1.56-2.79,11.47,11.47,0,0,1-.55-3.68A11.61,11.61,0,0,1,26.13,29a7.74,7.74,0,0,1,1.6-2.81,7,7,0,0,1,2.49-1.76,8.34,8.34,0,0,1,3.28-.61,8.49,8.49,0,0,1,3.31.61,6.68,6.68,0,0,1,2.47,1.76A8,8,0,0,1,40.83,29a11.8,11.8,0,0,1,.54,3.68,11.92,11.92,0,0,1-.56,3.82,7.37,7.37,0,0,1-1.66,2.78l2.06,2.51-1.75,1.51Zm-1.94-6,2,2.44a8,8,0,0,0,1-4.4A10.77,10.77,0,0,0,38.11,30a6.11,6.11,0,0,0-.92-2,4.24,4.24,0,0,0-1.54-1.28,4.86,4.86,0,0,0-2.15-.45,5,5,0,0,0-2.19.45A4.19,4.19,0,0,0,29.76,28a5.91,5.91,0,0,0-.92,2,10.31,10.31,0,0,0-.31,2.65,7.66,7.66,0,0,0,1.28,4.81,4.69,4.69,0,0,0,4,1.64,3.83,3.83,0,0,0,1-.13,4.11,4.11,0,0,0,.89-.34l-2.09-2.53Z"/></svg>