<svg id="圖層_1" data-name="圖層 1" xmlns="http://www.w3.org/2000/svg" viewBox="0 0 87.78 87.78"><defs><style>.cls-1{fill:#fff;}.cls-2{fill:#ffdf00;}.cls-3{fill:#ff978e;}.cls-4{fill:#ff5b82;}</style></defs><title>TONE 行銷頁面元件</title><circle class="cls-1" cx="43.89" cy="43.89" r="42.54"/><path class="cls-2" d="M43.89,87.78A43.89,43.89,0,1,1,87.78,43.89,43.94,43.94,0,0,1,43.89,87.78Zm0-85.07A41.19,41.19,0,1,0,85.08,43.89,41.22,41.22,0,0,0,43.89,2.71Z"/><path class="cls-1" d="M41.88,47.08h0a1,1,0,0,1-.73-.35l-5.88-6.94a1,1,0,0,1,.11-1.37,1,1,0,0,1,1.37.12l5.16,6.08,9.71-10.94A1,1,0,0,1,53.06,35L42.61,46.75A1,1,0,0,1,41.88,47.08Z"/><polygon class="cls-3" points="64.5 64.83 25.01 64.83 25.01 21.68 53.46 21.68 64.5 32.72 64.5 64.83"/><polygon class="cls-4" points="53.46 32.72 64.5 32.72 53.46 21.68 53.46 32.72"/><path class="cls-4" d="M44.75,33a9.27,9.27,0,1,0,8.87,12l-8.87-2.68Z"/><path class="cls-1" d="M44.75,33v9.27l8.87,2.68a9.15,9.15,0,0,0,.4-2.68A9.27,9.27,0,0,0,44.75,33Z"/><path class="cls-1" d="M55.16,58.19H34.41a.9.9,0,1,1,0-1.8H55.16a.9.9,0,0,1,0,1.8Z"/></svg>