<svg id="圖層_1" data-name="圖層 1" xmlns="http://www.w3.org/2000/svg" viewBox="0 0 87.78 87.78"><defs><style>.cls-1{fill:#fff;}.cls-2{fill:#ffdf00;}.cls-3{fill:#ff5b82;}.cls-4{fill:#ff978e;}</style></defs><title>TONE 行銷頁面元件</title><circle class="cls-1" cx="43.89" cy="43.89" r="42.54"/><path class="cls-2" d="M43.89,87.78A43.89,43.89,0,1,1,87.78,43.89,43.94,43.94,0,0,1,43.89,87.78Zm0-85.07A41.19,41.19,0,1,0,85.07,43.89,41.22,41.22,0,0,0,43.89,2.71Z"/><rect class="cls-3" x="34.73" y="33.34" width="28.35" height="30.87"/><path class="cls-1" d="M29.84,24H59.1a1.49,1.49,0,0,1,1.49,1.49V59.1a0,0,0,0,1,0,0H29.84a1.49,1.49,0,0,1-1.49-1.49V25.48A1.49,1.49,0,0,1,29.84,24Z"/><polygon class="cls-4" points="58.65 59.12 25.34 59.12 25.34 34.01 25.34 22.95 58.65 22.95 58.65 59.12"/><path class="cls-1" d="M50.81,37.69H33a.9.9,0,1,1,0-1.8H50.81a.9.9,0,1,1,0,1.8Z"/><path class="cls-1" d="M50.81,44.63H33a.9.9,0,0,1,0-1.8H50.81a.9.9,0,1,1,0,1.8Z"/><path class="cls-1" d="M44.45,51.57H33a.9.9,0,1,1,0-1.8H44.45a.9.9,0,0,1,0,1.8Z"/><path class="cls-3" d="M43.73,31.09H33a1.25,1.25,0,0,1,0-2.5H43.73a1.25,1.25,0,0,1,0,2.5Z"/></svg>