<svg id="圖層_1" data-name="圖層 1" xmlns="http://www.w3.org/2000/svg" viewBox="0 0 87.78 87.78"><defs><style>.cls-1{fill:#ffdf00;}.cls-2{fill:#fff;}.cls-3{fill:#ff978e;}.cls-4{fill:#ff5b82;}</style></defs><title>TONE 行銷頁面元件</title><circle class="cls-1" cx="43.89" cy="43.89" r="42.54"/><circle class="cls-2" cx="43.89" cy="43.89" r="42.54"/><path class="cls-1" d="M43.89,87.78A43.89,43.89,0,1,1,87.78,43.89,43.94,43.94,0,0,1,43.89,87.78Zm0-85.07A41.19,41.19,0,1,0,85.07,43.89,41.22,41.22,0,0,0,43.89,2.71Z"/><path class="cls-3" d="M68,28.14a2.83,2.83,0,0,0-2.82-2.83H22.63a2.83,2.83,0,0,0-2.82,2.83V54.65H68Z"/><path class="cls-4" d="M19.81,54.65v5a2.83,2.83,0,0,0,2.82,2.83H65.15A2.83,2.83,0,0,0,68,59.64v-5Z"/><circle class="cls-4" cx="44.41" cy="41.51" r="10.46"/><polygon class="cls-2" points="49.37 41.37 41.58 35.92 41.58 46.82 49.37 41.37"/><path class="cls-2" d="M61.14,59.37H26.64a.8.8,0,0,1,0-1.6h34.5a.8.8,0,0,1,0,1.6Z"/></svg>