<svg id="圖層_1" data-name="圖層 1" xmlns="http://www.w3.org/2000/svg" viewBox="0 0 87.78 87.78"><defs><style>.cls-1{fill:#fff;}.cls-2{fill:#ffdf00;}.cls-3{fill:#ff978e;}.cls-4{fill:#ff5b82;}</style></defs><title>TONE 行銷頁面元件</title><circle class="cls-1" cx="43.89" cy="43.89" r="42.54"/><path class="cls-2" d="M43.89,87.78A43.89,43.89,0,1,1,87.78,43.89,43.94,43.94,0,0,1,43.89,87.78Zm0-85.07A41.19,41.19,0,1,0,85.08,43.89,41.22,41.22,0,0,0,43.89,2.71Z"/><rect class="cls-3" x="20.66" y="24.74" width="46.46" height="37.39"/><path class="cls-1" d="M56.76,53H31a3.16,3.16,0,0,1-3.15-3.15V37.05A3.16,3.16,0,0,1,31,33.9H56.76a3.16,3.16,0,0,1,3.15,3.15V49.81A3.16,3.16,0,0,1,56.76,53ZM31,35.7a1.36,1.36,0,0,0-1.35,1.35V49.81A1.35,1.35,0,0,0,31,51.16H56.76a1.35,1.35,0,0,0,1.35-1.35V37.05a1.36,1.36,0,0,0-1.35-1.35Z"/><rect class="cls-4" x="27.59" y="27.38" width="5.53" height="3.37" rx="1.69"/><rect class="cls-4" x="41.13" y="27.38" width="5.53" height="3.37" rx="1.69"/><rect class="cls-4" x="54.66" y="27.38" width="5.53" height="3.37" rx="1.69"/><rect class="cls-4" x="27.59" y="56.11" width="5.53" height="3.37" rx="1.69"/><rect class="cls-4" x="41.13" y="56.11" width="5.53" height="3.37" rx="1.69"/><rect class="cls-4" x="54.66" y="56.11" width="5.53" height="3.37" rx="1.69"/><rect class="cls-1" x="16.97" y="33.77" width="6.31" height="19.33" rx="2.25"/><rect class="cls-1" x="64.5" y="33.77" width="6.31" height="19.33" rx="2.25"/></svg>