<svg id="圖層_1" data-name="圖層 1" xmlns="http://www.w3.org/2000/svg" viewBox="0 0 87.78 87.78"><defs><style>.cls-1{fill:#fff;}.cls-2{fill:#ffdf00;}.cls-3{fill:#ff5b82;}.cls-4{fill:#ff978e;}</style></defs><title>TONE 行銷頁面元件</title><circle class="cls-1" cx="43.89" cy="43.89" r="42.54"/><path class="cls-2" d="M43.89,87.78A43.89,43.89,0,1,1,87.78,43.89,43.94,43.94,0,0,1,43.89,87.78Zm0-85.07A41.19,41.19,0,1,0,85.07,43.89,41.22,41.22,0,0,0,43.89,2.71Z"/><path class="cls-3" d="M28,52a1.25,1.25,0,0,1-1.25-1.25v-4a3.88,3.88,0,0,1,3.87-3.87h12V38.66a1.25,1.25,0,0,1,2.5,0v5.51a1.25,1.25,0,0,1-1.25,1.25H30.62a1.37,1.37,0,0,0-1.37,1.37v4A1.25,1.25,0,0,1,28,52Z"/><rect class="cls-4" x="19.19" y="50.33" width="17.62" height="11.86"/><path class="cls-3" d="M59.78,52a1.25,1.25,0,0,1-1.25-1.25v-4a1.37,1.37,0,0,0-1.37-1.37H43.89a1.25,1.25,0,0,1-1.25-1.25V35.93a1.25,1.25,0,1,1,2.5,0v7h12A3.88,3.88,0,0,1,61,46.79v4A1.25,1.25,0,0,1,59.78,52Z"/><rect class="cls-4" x="32.2" y="20.19" width="23.38" height="15.75"/><path class="cls-1" d="M48.6,26.07H39.06a.9.9,0,0,1,0-1.8H48.6a.9.9,0,0,1,0,1.8Z"/><rect class="cls-4" x="50.97" y="50.33" width="17.62" height="11.86"/></svg>