<svg id="圖層_1" data-name="圖層 1" xmlns="http://www.w3.org/2000/svg" viewBox="0 0 87.78 87.78"><defs><style>.cls-1{fill:#ffdf00;}.cls-2{fill:#fff;}.cls-3{fill:#ff978e;}.cls-4{fill:#ff5b82;}</style></defs><title>TONE 行銷頁面元件</title><circle class="cls-1" cx="43.89" cy="43.89" r="42.54"/><circle class="cls-2" cx="43.89" cy="43.89" r="42.54"/><path class="cls-1" d="M43.89,87.78A43.89,43.89,0,1,1,87.78,43.89,43.94,43.94,0,0,1,43.89,87.78Zm0-85.07A41.19,41.19,0,1,0,85.08,43.89,41.22,41.22,0,0,0,43.89,2.71Z"/><rect class="cls-3" x="24.56" y="22.8" width="38.66" height="41.11"/><path class="cls-2" d="M30.77,36.68l8.52-4.76v1.92l-6.61,3.59L39.29,41v2l-8.52-4.76Z"/><path class="cls-2" d="M42.39,45.21H40.68L45,28.42H46.7Z"/><path class="cls-2" d="M48.09,41.05l6.57-3.55-6.57-3.64V31.92l8.53,4.76v1.55L48.09,43Z"/><path class="cls-4" d="M38.19,52.3H30.55a1,1,0,1,1,0-2h7.64a1,1,0,0,1,0,2Z"/><path class="cls-4" d="M53.45,57.69H40.19a1,1,0,0,1,0-2H53.45a1,1,0,0,1,0,2Z"/><path class="cls-2" d="M48,52.3H42a1,1,0,1,1,0-2h6a1,1,0,0,1,0,2Z"/><path class="cls-2" d="M36.19,57.69H30.55a1,1,0,1,1,0-2h5.64a1,1,0,0,1,0,2Z"/><path class="cls-4" d="M57.77,52.3H52.13a1,1,0,0,1,0-2h5.64a1,1,0,0,1,0,2Z"/></svg>