<svg id="圖層_1" data-name="圖層 1" xmlns="http://www.w3.org/2000/svg" viewBox="0 0 87.78 87.78"><defs><style>.cls-1{fill:#ffdf00;}.cls-2{fill:#fff;}.cls-3{fill:#ff978e;}.cls-4{fill:#ff5b82;}</style></defs><title>TONE 行銷頁面元件</title><circle class="cls-1" cx="44.14" cy="43.89" r="42.54"/><circle class="cls-2" cx="43.89" cy="43.89" r="42.54"/><path class="cls-1" d="M43.89,87.78A43.89,43.89,0,1,1,87.78,43.89,43.94,43.94,0,0,1,43.89,87.78Zm0-85.07A41.19,41.19,0,1,0,85.08,43.89,41.22,41.22,0,0,0,43.89,2.71Z"/><path class="cls-3" d="M19,59.64a2.83,2.83,0,0,0,2.83,2.83H64.33a2.83,2.83,0,0,0,2.83-2.83V33.13H19Z"/><path class="cls-4" d="M67.16,33.13v-5a2.83,2.83,0,0,0-2.83-2.83H21.82A2.83,2.83,0,0,0,19,28.14v5Z"/><path class="cls-2" d="M60.32,30H25.83a.8.8,0,0,1,0-1.6H60.32a.8.8,0,0,1,0,1.6Z"/><circle class="cls-4" cx="63.01" cy="39.94" r="1.49"/><circle class="cls-4" cx="63.01" cy="45.44" r="1.49"/><circle class="cls-4" cx="63.01" cy="50.93" r="1.49"/><polygon class="cls-4" points="40.98 39.37 46.44 55.68 47.91 53.27 52.36 58.13 56.16 54.4 40.98 39.37"/><path class="cls-2" d="M45.65,53.54,41,39.37,55.1,44v.1l-1.81.94-2.65,1.37c-.27.14-.27.17-.05.39l5.05,5.06c.3.3.3.3,0,.59-.52.53-1,1.05-1.57,1.57-.28.28-.28.28-.56,0l-4.94-4.94c-.41-.41-.36-.42-.61.08l-2.19,4.22Z"/></svg>