<svg id="圖層_1" data-name="圖層 1" xmlns="http://www.w3.org/2000/svg" viewBox="0 0 87.78 87.78"><defs><style>.cls-1{fill:#ffdf00;}.cls-2{fill:#fff;}.cls-3{fill:#ff978e;}.cls-4{fill:#ff5b82;}</style></defs><title>TONE 行銷頁面元件</title><circle class="cls-1" cx="43.89" cy="43.89" r="42.54"/><circle class="cls-2" cx="43.89" cy="43.89" r="42.54"/><path class="cls-1" d="M43.89,87.78A43.89,43.89,0,1,1,87.78,43.89,43.94,43.94,0,0,1,43.89,87.78Zm0-85.07A41.19,41.19,0,1,0,85.08,43.89,41.22,41.22,0,0,0,43.89,2.71Z"/><rect class="cls-3" x="22.49" y="25.11" width="43.01" height="12.37"/><rect class="cls-3" x="22.49" y="41.73" width="19.05" height="21.73"/><path class="cls-4" d="M64.4,47.71H47a1.25,1.25,0,0,1,0-2.5H64.4a1.25,1.25,0,0,1,0,2.5Z"/><path class="cls-4" d="M64.4,53.85H47a1.25,1.25,0,0,1,0-2.5H64.4a1.25,1.25,0,0,1,0,2.5Z"/><path class="cls-4" d="M64.4,60H47a1.25,1.25,0,0,1,0-2.5H64.4a1.25,1.25,0,0,1,0,2.5Z"/><line class="cls-4" x1="37.9" y1="45.88" x2="26.12" y2="59.32"/><path class="cls-2" d="M26.12,60.22a.88.88,0,0,1-.59-.22.9.9,0,0,1-.09-1.27L37.22,45.29a.9.9,0,1,1,1.36,1.18L26.8,59.91A.89.89,0,0,1,26.12,60.22Z"/><line class="cls-4" x1="26.12" y1="45.88" x2="37.9" y2="59.32"/><path class="cls-2" d="M37.9,60.22a.89.89,0,0,1-.68-.31L25.44,46.47a.9.9,0,1,1,1.36-1.18L38.58,58.73A.9.9,0,0,1,38.49,60,.88.88,0,0,1,37.9,60.22Z"/></svg>