<svg id="圖層_1" data-name="圖層 1" xmlns="http://www.w3.org/2000/svg" viewBox="0 0 260.44 70.43"><defs><style>.cls-1{fill:#fff;}</style></defs><title>TONE 行銷頁面元件</title><path class="cls-1" d="M164,43.43l-1.06-4h0a.18.18,0,0,1,.19-.16h1.79a.3.3,0,0,1,.32.29l.62,4a.06.06,0,0,1-.05.05h-1.63A.17.17,0,0,1,164,43.43Zm10.53-4.21a.19.19,0,0,0-.19.17l-1.05,4h0a.18.18,0,0,0,.18.17h1.8a.3.3,0,0,0,.32-.29l.61-4a0,0,0,0,0,0-.05Zm6.38-5.54-.31.93a.43.43,0,0,1-.62.27,28.39,28.39,0,0,1-4.41-2.1v1a.23.23,0,0,1-.23.23H171v2.37h6.29a.24.24,0,0,1,.23.24v1.24a.24.24,0,0,1-.23.23H171v6.38h8.69a.23.23,0,0,1,.23.23V45.9a.23.23,0,0,1-.23.23H159.42a.23.23,0,0,1-.23-.23V44.66a.23.23,0,0,1,.23-.23h8.69V38.05h-6.29a.23.23,0,0,1-.23-.23V36.58a.23.23,0,0,1,.23-.24h6.29V34h-4.3a.23.23,0,0,1-.24-.23v-1a28.26,28.26,0,0,1-4.4,2.1.44.44,0,0,1-.63-.27l-.3-.93a.47.47,0,0,1,.37-.52,21.71,21.71,0,0,0,9.14-7.4,1.14,1.14,0,0,1,.8-.37h2a1.16,1.16,0,0,1,.8.37,21.66,21.66,0,0,0,9.13,7.4A.49.49,0,0,1,180.91,33.68Zm-6.18-1.41a22.13,22.13,0,0,1-5.16-4.54,21.92,21.92,0,0,1-5.16,4.54Z"/><path class="cls-1" d="M199.46,30.65c.28,0,.25.24.25.24,0,3.29-1.64,5-5,6.06-.27.1-.24-.16-.24-.16V35.64s0-.13.17-.2c1.93-.83,2.57-2.14,2.74-4.56,0-.25.31-.23.31-.23Zm-5.4,1.41h1.35a.29.29,0,0,0,.28-.29V29.31h9.95v2.46a.28.28,0,0,0,.28.29h1.35a.29.29,0,0,0,.29-.29V28.9a1.26,1.26,0,0,0-1.23-1.29h-4.41V25.86a.29.29,0,0,0-.29-.29H199.7a.29.29,0,0,0-.29.29v1.75h-5.35a.28.28,0,0,0-.29.28v3.88A.29.29,0,0,0,194.06,32.06Zm13.78,12.33h-5.93V39.7h4.64a.23.23,0,0,0,.23-.23V38.23a.23.23,0,0,0-.23-.23H194.76a.24.24,0,0,0-.23.23v1.24a.23.23,0,0,0,.23.23h4.65v4.69h-5.94a.23.23,0,0,0-.23.23v1.24a.23.23,0,0,0,.23.23h14.37a.24.24,0,0,0,.24-.23V44.62A.23.23,0,0,0,207.84,44.39ZM192.92,36.2c0-.08-.08-.08-.12-.07-.66.34-1.33.64-2,.91v-5h1.89a.28.28,0,0,0,.28-.28V30.65a.27.27,0,0,0-.28-.28h-1.89V26.18a.28.28,0,0,0-.28-.28h-1.92a.27.27,0,0,0-.28.28v4.18h-2.52a.29.29,0,0,0-.28.29v1.12a.29.29,0,0,0,.28.29h2.52v5.83c-.89.28-1.8.53-2.71.78a.12.12,0,0,0-.09.18l.74,1.64c.06.1.11.18.29.11.55-.18,1.15-.42,1.77-.69v4c0,.62-.13,1-1.16,1h-1a.07.07,0,0,0-.08.07v1.23a.23.23,0,0,0,.23.23h1.65c2.57,0,2.89-.33,2.89-2.45V38.74c.82-.42,1.6-.85,2.28-1.24.07,0,.1-.06.08-.2Zm9.32-.39a3,3,0,0,0,2.08.49h2.21a.23.23,0,0,0,.24-.23V34.69s0-.08-.09-.08h-2.09c-.58-.06-.57,0-.61-.83V30.87s0-.23-.2-.23h-1.71c-.31,0-.29.23-.29.23v3A2.75,2.75,0,0,0,202.24,35.81Z"/><path class="cls-1" d="M124,25.77H103.81A1.24,1.24,0,0,0,102.56,27V45.12a1.25,1.25,0,0,0,1.24,1.25H124a1.24,1.24,0,0,0,1.24-1.24V27A1.25,1.25,0,0,0,124,25.77Zm-6.7,1.51H119c.09.46.22,1.18.35,2.07h-2C117.29,28.39,117.29,27.67,117.3,27.28Zm-11.91,0h9.71c0,.39,0,1.12.13,2.07h-9.84Zm17,17.57h-17v-14h10a30.91,30.91,0,0,0,2.11,8,14.89,14.89,0,0,1-3.68,3.82.14.14,0,0,0,0,.21l.46.88s.07.17.21.07a14.34,14.34,0,0,0,3.87-3.33A13.68,13.68,0,0,0,121.09,44a.15.15,0,0,0,.23,0l.68-.81a.1.1,0,0,0,0-.17A16.79,16.79,0,0,1,119.48,39a27.78,27.78,0,0,0,2-3.51.17.17,0,0,0-.07-.26L120,34.62a.16.16,0,0,0-.22.1c-.31.73-.66,1.47-1.06,2.2a28.68,28.68,0,0,1-1.24-6.05h3.66s.53,0,.5-.64l-.54-2.95h1.34Zm-7.89-4.12a27,27,0,0,1-7.82,1.89h0a.23.23,0,0,1-.23-.23v-1.7a.23.23,0,0,1,.24-.23h0a35.08,35.08,0,0,0,7.8-1.15.13.13,0,0,1,.17.14v1.07A.24.24,0,0,1,114.53,40.73Zm-6.84-2.5h5.74A1.24,1.24,0,0,0,114.67,37V33.44a1.24,1.24,0,0,0-1.24-1.24h-5.74a1.24,1.24,0,0,0-1.24,1.24V37A1.24,1.24,0,0,0,107.69,38.23Zm1.5-4.73h2.74v3.43h-2.74Z"/><path class="cls-1" d="M143.57,38.11v5.81c0,2.12-.78,2.45-3.21,2.45h-1.08a.36.36,0,0,1-.35-.36V44.93a.08.08,0,0,1,.09-.09h.58c1,0,1.13-.34,1.14-1V37.15a.28.28,0,0,1,.29-.28h1.3A1.24,1.24,0,0,1,143.57,38.11Zm9.77.45a15.8,15.8,0,0,1-4.2-2.84h4.2a.23.23,0,0,0,.23-.23V34.25a.23.23,0,0,0-.23-.23H139c.5-.65,1-1.32,1.4-2h10.25a.23.23,0,0,0,.23-.23V30.58a.23.23,0,0,0-.23-.23h-9.22c.4-.7.74-1.37,1-2h10.08a.23.23,0,0,0,.23-.23V26.92a.23.23,0,0,0-.23-.23h-9.33c.1-.25.18-.46.23-.62s.07-.4-.19-.46c-.55-.12-1.66-.35-2-.44a.4.4,0,0,0-.51.33l-.18.59-.21.6H132a.23.23,0,0,0-.24.23v1.24a.23.23,0,0,0,.24.23h7.62c-.27.62-.59,1.28-1,2h-4.81a.23.23,0,0,0-.23.23v1.24a.23.23,0,0,0,.23.23h3.83c-.42.66-.87,1.33-1.36,2h-5.22a.23.23,0,0,0-.23.23v1.24a.23.23,0,0,0,.23.23h3.77a13.31,13.31,0,0,1-3.79,2.84.29.29,0,0,0-.19.44l.27.67a.29.29,0,0,0,.42.15,12.47,12.47,0,0,0,2.51-1.24,31.92,31.92,0,0,1,4.58,1.67c.18.09.25,0,.25,0l.66-1.4a.16.16,0,0,0-.07-.25,26.39,26.39,0,0,0-3.83-1.13,18.31,18.31,0,0,0,1.82-1.7h9a16.53,16.53,0,0,0,1.81,1.6,14.13,14.13,0,0,1-3.76,1c-.13,0-.18.1-.14.24.18.56.24,1,.42,1.55.06.18.15.18.27.14a18.59,18.59,0,0,0,4.63-1.94,17.62,17.62,0,0,0,3.09,1.51.29.29,0,0,0,.42-.15l.27-.66A.3.3,0,0,0,153.34,38.56Zm-13.49,3.82c-.07-.5-.09-.43-.19-.94a.15.15,0,0,0-.22-.12,35.19,35.19,0,0,1-7.06,2.47c-.15.06-.2.16-.14.29.21.44.55,1.19.7,1.51a.29.29,0,0,0,.38.13,39.24,39.24,0,0,0,6.42-3A.26.26,0,0,0,139.85,42.38Zm11.88,1.51a34.2,34.2,0,0,0-6.64-2.31c-.2-.06-.23.09-.23.09l-.42.91a.18.18,0,0,0,.09.26,48.82,48.82,0,0,1,5.84,2.79.45.45,0,0,0,.57-.11c.36-.53.51-.77.88-1.31A.23.23,0,0,0,151.73,43.89Z"/><path class="cls-1" d="M61.7,29.9c7.67-3.44,15.45-4.43,21.43-3.2a3.82,3.82,0,0,1-1.75-1.57,5.72,5.72,0,0,0-5.74-2.9A4.06,4.06,0,0,1,73,21.64a5.64,5.64,0,0,0-6.5,0,4.08,4.08,0,0,1-2.68.59A5.72,5.72,0,0,0,58,25.13a3.85,3.85,0,0,1-2.15,1.72,5.65,5.65,0,0,0-3.8,4.81,4.08,4.08,0,0,1-1.24,2.45A6.13,6.13,0,0,0,49,38.56v.08A41.05,41.05,0,0,1,61.7,29.9Z"/><path class="cls-1" d="M68.47,34.41a38.58,38.58,0,0,1,18.72-3.6,5.69,5.69,0,0,0-3.67-4h0l-.39-.15c-6-1.23-13.76-.24-21.43,3.2A41.05,41.05,0,0,0,49,38.64a6.23,6.23,0,0,0,5.36,6.08A39.64,39.64,0,0,1,68.47,34.41Z"/><path class="cls-1" d="M88.57,34.11a4.08,4.08,0,0,1-1.24-2.45,7.53,7.53,0,0,0-.14-.85,38.58,38.58,0,0,0-18.72,3.6A39.64,39.64,0,0,0,54.34,44.72a7.92,7.92,0,0,0,.85.05h8.92a1.56,1.56,0,0,1,1.54,1.55v.37a1.63,1.63,0,0,1-1.41,1.61L57,49.55a.51.51,0,0,0-.47.47v.89h26.4V50a.51.51,0,0,0-.48-.47L75.18,48.3a1.63,1.63,0,0,1-1.41-1.61v-.37a1.56,1.56,0,0,1,1.53-1.55h8.93a6.21,6.21,0,0,0,6.21-6.21A6.13,6.13,0,0,0,88.57,34.11Z"/></svg>