<svg id="圖層_1" data-name="圖層 1" xmlns="http://www.w3.org/2000/svg" viewBox="0 0 260.44 70.43"><defs><style>.cls-1{fill:#fff;}</style></defs><title>TONE 行銷頁面元件</title><path class="cls-1" d="M124.47,26h-20a1.23,1.23,0,0,0-1.23,1.23V45.19a1.23,1.23,0,0,0,1.22,1.23h20a1.23,1.23,0,0,0,1.23-1.23V27.27A1.24,1.24,0,0,0,124.47,26Zm-6.62,1.5h1.72c.09.46.22,1.16.34,2h-2C117.84,28.64,117.84,27.93,117.85,27.54Zm-11.79,0h9.61c0,.39,0,1.1.13,2h-9.74ZM122.9,44.92H106.06V31.09H116A30.14,30.14,0,0,0,118.07,39a14.61,14.61,0,0,1-3.65,3.78.15.15,0,0,0,0,.21l.45.87s.07.17.21.06a14,14,0,0,0,3.82-3.28,13.8,13.8,0,0,0,2.73,3.52.15.15,0,0,0,.22,0l.68-.81s.09-.07,0-.16A16.67,16.67,0,0,1,120,39.1a26.7,26.7,0,0,0,2-3.48c.1-.19-.07-.24-.07-.24l-1.44-.59a.17.17,0,0,0-.22.11c-.31.72-.66,1.45-1,2.17a28.61,28.61,0,0,1-1.22-6h3.62s.52,0,.5-.64l-.54-2.91h1.32Zm-7.65-4.29V39.58a.13.13,0,0,0-.17-.14,34.77,34.77,0,0,1-7.72,1.13h0a.23.23,0,0,0-.23.23v1.69a.22.22,0,0,0,.23.22h0a26.25,26.25,0,0,0,7.73-1.87A.24.24,0,0,0,115.25,40.63Zm-6.91-2.26H114a1.23,1.23,0,0,0,1.23-1.23V33.63A1.24,1.24,0,0,0,114,32.4h-5.67a1.23,1.23,0,0,0-1.23,1.23v3.51A1.22,1.22,0,0,0,108.34,38.37Zm1.49-4.68h2.71v3.39h-2.71Z"/><path class="cls-1" d="M207.64,31.29H188a.28.28,0,0,0-.29.27v.9a.29.29,0,0,0,.29.28h18.77l-.49,1.93a.29.29,0,0,0,.28.29h1.35c.2,0,.2-.12.27-.29,0,0,.51-1.56.65-2.11S208.88,31.29,207.64,31.29Zm-12.36,8.93h-5.63a1.23,1.23,0,0,0-1.22,1.23v2.64a1.22,1.22,0,0,0,1.22,1.23h5.62a1.23,1.23,0,0,0,1.23-1.22V41.45A1.23,1.23,0,0,0,195.28,40.22ZM193.79,44h-2.65V41.51h2.65ZM188,28.3h8.18v.76h-6.45a.23.23,0,0,0-.23.23v1a.23.23,0,0,0,.23.23h15.81a.22.22,0,0,0,.22-.23v-1a.22.22,0,0,0-.22-.23h-6.45V28.3h8.18a.23.23,0,0,0,.23-.23v-1a.23.23,0,0,0-.23-.23h-8.18v-.71a.29.29,0,0,0-.28-.29h-2.34a.29.29,0,0,0-.29.29v.71H188a.23.23,0,0,0-.23.23v1A.24.24,0,0,0,188,28.3Zm.66,7.43a.22.22,0,0,0-.22.23v1a.22.22,0,0,0,.22.22H206.6a.23.23,0,0,0,.23-.22V36a.23.23,0,0,0-.23-.23h-7.52V35h6.45a.22.22,0,0,0,.22-.23v-1a.22.22,0,0,0-.22-.22H189.72a.23.23,0,0,0-.23.22v1a.23.23,0,0,0,.23.23h6.45v.77ZM208.53,38H186.71a.23.23,0,0,0-.23.23v1a.24.24,0,0,0,.23.23H203v.81h-5.42a.23.23,0,0,0-.23.23v1a.22.22,0,0,0,.23.22h1.62l.32,2.15a.22.22,0,0,0,.23.21h1.68a.13.13,0,0,0,.14-.12h0l-.61-2.24h2V44c0,.61-.12.95-1.13.95h-.58a.07.07,0,0,0-.08.07v1.09a.35.35,0,0,0,.35.35h1.06c2.41,0,3.17-.33,3.17-2.43V41.67h1.5a.22.22,0,0,0,.23-.22v-1a.23.23,0,0,0-.23-.23h-1.5v-.81h2.78a.23.23,0,0,0,.22-.23v-1A.22.22,0,0,0,208.53,38Z"/><path class="cls-1" d="M181.42,45.31l-.75.95a.32.32,0,0,1-.39.13h0c-6-2.45-8.81-7.59-10.11-12.09-1.3,4.5-4.1,9.64-10.11,12.09h0a.32.32,0,0,1-.39-.13l-.75-.95s-.13-.2,0-.31c.42-.21,1-.5,1.39-.77,8-5.15,8.27-16.27,8.26-17.87h0a.19.19,0,0,1,.19-.19h2.76a.2.2,0,0,1,.2.19h0c0,1.6.21,12.72,8.26,17.87.43.27,1,.56,1.38.77C181.55,45.11,181.42,45.31,181.42,45.31Z"/><path class="cls-1" d="M142.61,37h-1.29a.28.28,0,0,0-.28.28V44c0,.61-.12.95-1.13.95h-.58a.07.07,0,0,0-.08.08v1.08a.35.35,0,0,0,.34.35h1.07c2.4,0,3.17-.33,3.17-2.42V38.25A1.23,1.23,0,0,0,142.61,37ZM153.5,38.7a16.14,16.14,0,0,1-4.16-2.81h4.16a.23.23,0,0,0,.23-.23V34.43a.23.23,0,0,0-.23-.23H139.29c.5-.64,1-1.3,1.39-1.94h10.14a.23.23,0,0,0,.23-.23V30.81a.23.23,0,0,0-.23-.23H141.7c.39-.7.73-1.36,1-1.95h10a.22.22,0,0,0,.23-.22V27.18a.23.23,0,0,0-.23-.23h-9.23c.1-.25.17-.45.23-.61s.06-.4-.19-.46c-.54-.12-1.65-.34-2-.43a.4.4,0,0,0-.51.33l-.18.58c-.05.18-.12.38-.2.59h-8.23a.23.23,0,0,0-.23.23v1.23a.22.22,0,0,0,.23.22H140c-.27.62-.59,1.27-.95,1.95h-4.76a.23.23,0,0,0-.23.23V32a.23.23,0,0,0,.23.23H138c-.41.65-.86,1.31-1.35,1.94h-5.17a.22.22,0,0,0-.22.23v1.23a.23.23,0,0,0,.22.23h3.74a13.14,13.14,0,0,1-3.75,2.8.31.31,0,0,0-.19.45l.27.65a.29.29,0,0,0,.41.15,13.11,13.11,0,0,0,2.49-1.23A33.24,33.24,0,0,1,139,40.37a.16.16,0,0,0,.24,0l.66-1.38a.17.17,0,0,0-.07-.26,25.94,25.94,0,0,0-3.79-1.11,19.13,19.13,0,0,0,1.8-1.68h8.9a16.27,16.27,0,0,0,1.8,1.58,14.28,14.28,0,0,1-3.73,1c-.12,0-.17.1-.14.24.18.55.24,1,.42,1.52.06.19.15.18.27.15A18.28,18.28,0,0,0,150,38.44,17,17,0,0,0,153,40a.3.3,0,0,0,.42-.15l.27-.66A.3.3,0,0,0,153.5,38.7Zm-13.35,3.77c-.07-.49-.08-.43-.18-.92a.16.16,0,0,0-.22-.13,34.3,34.3,0,0,1-7,2.45.2.2,0,0,0-.13.29l.69,1.49a.29.29,0,0,0,.38.13,38.79,38.79,0,0,0,6.35-3C140.17,42.69,140.17,42.61,140.15,42.47ZM151.91,44a33.69,33.69,0,0,0-6.57-2.28c-.2-.07-.23.08-.23.08l-.42.9s-.09.19.09.26a47.81,47.81,0,0,1,5.78,2.76.47.47,0,0,0,.57-.11c.35-.52.5-.77.86-1.29A.22.22,0,0,0,151.91,44Z"/><path class="cls-1" d="M62.85,30.13c7.58-3.4,15.29-4.39,21.2-3.17a3.8,3.8,0,0,1-1.74-1.55,5.64,5.64,0,0,0-5.67-2.87A4.08,4.08,0,0,1,74,22a5.56,5.56,0,0,0-6.42,0,4.08,4.08,0,0,1-2.66.58,5.65,5.65,0,0,0-5.67,2.87,3.82,3.82,0,0,1-2.12,1.7,5.58,5.58,0,0,0-3.77,4.75,4.09,4.09,0,0,1-1.22,2.43,6.07,6.07,0,0,0-1.86,4.4v.08A40.55,40.55,0,0,1,62.85,30.13Z"/><path class="cls-1" d="M69.54,34.59A38.13,38.13,0,0,1,88.06,31a5.61,5.61,0,0,0-3.62-3.92h0L84.05,27c-5.91-1.22-13.62-.23-21.2,3.17a40.55,40.55,0,0,0-12.59,8.64,6.14,6.14,0,0,0,5.31,6A39.34,39.34,0,0,1,69.54,34.59Z"/><path class="cls-1" d="M89.42,34.29a4.09,4.09,0,0,1-1.22-2.43,4.64,4.64,0,0,0-.14-.83,38.13,38.13,0,0,0-18.52,3.56,39.34,39.34,0,0,0-14,10.19,5.73,5.73,0,0,0,.84.06h8.83a1.53,1.53,0,0,1,1.51,1.54v.35a1.61,1.61,0,0,1-1.39,1.6l-7.18,1.23a.51.51,0,0,0-.47.47v.88H83.83V50a.51.51,0,0,0-.47-.47l-7.18-1.23a1.61,1.61,0,0,1-1.39-1.6v-.35a1.54,1.54,0,0,1,1.52-1.54h8.82a6.15,6.15,0,0,0,6.15-6.15A6.07,6.07,0,0,0,89.42,34.29Z"/></svg>