<svg id="圖層_1" data-name="圖層 1" xmlns="http://www.w3.org/2000/svg" viewBox="0 0 260.44 70.43"><defs><style>.cls-1{fill:#fff;}</style></defs><title>TONE 行銷頁面元件</title><path class="cls-1" d="M92,29.39a33.32,33.32,0,0,1,12,1.85V26.79a38.66,38.66,0,0,0-11.89-1.54c-7.5,0-11.08,1.51-12.85,3.29a9,9,0,0,0-2.49,6.68,9,9,0,0,0,2.49,6.67c1.8,1.83,5.3,3.29,12.61,3.29,5.86,0,9.46-.82,11.68-3,1.22-1.22,1.86-2.94,1.86-5.91V33.76H89.11v3.71h11.44a2.71,2.71,0,0,1-.63,2.07c-1.19,1.19-4.14,1.59-8,1.59-4.77,0-7.26-.88-8.43-2a5.32,5.32,0,0,1-1.29-3.87,5.35,5.35,0,0,1,1.4-3.95c1-1,3.55-1.88,8.45-1.88Z"/><path class="cls-1" d="M183.65,25.94h-6.12l-9.8,14.6L158,25.94h-6.39l12.8,18.55h6.49l12.8-18.55Z"/><path class="cls-1" d="M150,13.14h-5.27L110.3,57.29h5.35Z"/><path class="cls-1" d="M142.66,28.59c-1.74-1.75-5.11-3.34-12.5-3.34-7.13,0-10.76,1.57-12.53,3.34a8.68,8.68,0,0,0-2.49,6.63,8.59,8.59,0,0,0,2.49,6.59c1.74,1.75,5.27,3.37,12.53,3.37s10.76-1.59,12.5-3.34a8.68,8.68,0,0,0,2.5-6.62A8.66,8.66,0,0,0,142.66,28.59Zm-12.5,12.56c-4.77,0-7.23-1-8.29-2a4.93,4.93,0,0,1-1.41-3.89,5,5,0,0,1,1.38-4c1.09-1.08,3.55-2,8.32-2s7.15.9,8.27,2a4.93,4.93,0,0,1,1.4,3.92,5,5,0,0,1-1.38,4C137.34,40.3,134.93,41.15,130.16,41.15Z"/></svg>