<svg id="圖層_1" data-name="圖層 1" xmlns="http://www.w3.org/2000/svg" viewBox="0 0 260.44 70.43"><defs><style>.cls-1{fill:#fff;}</style></defs><title>TONE 行銷頁面元件</title><path class="cls-1" d="M117.49,17.7l-8.87,44-44-8.86.42-2.16q1.06-5.25,2.12-10.51T69.27,29.8l2-9.83,2-10.09c.06-.27.11-.55.16-.82s.1-.22.29-.18l12.63,2.55,11.1,2.22,9.38,1.89L117,17.59ZM105,56.2a2.44,2.44,0,0,0,.1-.33q1.08-5.31,2.14-10.61,1.18-5.88,2.36-11.76c.8-4,1.59-7.94,2.4-11.91.05-.23,0-.28-.22-.32-1.74-.34-3.47-.7-5.21-1.05l-8.46-1.71L90,16.89l-8.14-1.64-4.39-.89c-.22,0-.35,0-.41.25-.54,2.77-1.1,5.54-1.66,8.31Q74.22,28.78,73,34.67q-1.33,6.6-2.66,13.21l-.24,1.3Z"/><path class="cls-1" d="M133.9,33.06a1.94,1.94,0,0,0,1.42,1.12,25.24,25.24,0,0,0,3,.4c1.18.07,2.36,0,3.54,0,.82,0,1.63-.11,2.45-.17h.38c-.05.31-.1.59-.16.86s-.17.82-.26,1.24c0,.16-.08.27-.29.27-1.65-.05-3.29-.05-4.93-.13-1.25-.06-2.5-.23-3.74-.34a3.23,3.23,0,0,1-2.89-2.09c-.31-.75-.57-1.53-.85-2.3l-.12-.33a20.85,20.85,0,0,1-2.57,5.75l-2-1.42a1.39,1.39,0,0,0,.06-.13A19.31,19.31,0,0,0,130,28.86a.3.3,0,0,1,.35-.28c.56,0,1.12,0,1.67,0,.23,0,.31.08.36.29.14.6.31,1.19.48,1.85,3-1.57,5.79-3.4,7.73-6.36H129.34c-.31,0-.43-.07-.42-.41,0-.53,0-1.06,0-1.63h6.59c-.19-.66-.37-1.26-.55-1.86-.12-.38-.26-.75-.37-1.14s-.22-.32-.48-.31c-1.33.05-2.67.08-4,.14a.45.45,0,0,1-.54-.38c-.14-.52-.34-1-.52-1.57l.31,0c1.5-.05,3-.06,4.49-.16a41.84,41.84,0,0,0,8.32-1.34.34.34,0,0,1,.46.17c.28.53.59,1,.92,1.6A34.46,34.46,0,0,1,137,18.81c.11.38.21.72.3,1.06.18.71.37,1.43.53,2.16.05.23.15.3.38.3h5.16c0,.66,0,1.29,0,1.92,0,.14-.13.27-.22.4a25.31,25.31,0,0,1-7.4,7.25Z"/><path class="cls-1" d="M172.56,48.62h-3.42c0-.38-.08-.75-.16-1.12a2,2,0,0,0-3.35-1.07,2.21,2.21,0,0,0-.58,2.09,2.08,2.08,0,0,0,1.3,1.75c1.1.5,2.21,1,3.32,1.47q.65.3,1.26.66a4,4,0,0,1,2.14,3.29,7.78,7.78,0,0,1-.26,3,4.34,4.34,0,0,1-3,2.85,9,9,0,0,1-3.72.37,12.72,12.72,0,0,1-1.73-.28,3.93,3.93,0,0,1-3-3.37,20.07,20.07,0,0,1-.2-2.12h3.59l.09,1.22a2,2,0,0,0,2.15,2,3.13,3.13,0,0,0,.92-.1,2.13,2.13,0,0,0,1.48-2.57,2.27,2.27,0,0,0-1.4-1.89c-.87-.41-1.79-.69-2.67-1.09a13.43,13.43,0,0,1-2-1.07,4.24,4.24,0,0,1-1.82-3.5,7.83,7.83,0,0,1,.21-2.41,4.17,4.17,0,0,1,3-3,7.89,7.89,0,0,1,5.19.11,4,4,0,0,1,2.68,3.68C172.52,47.85,172.54,48.23,172.56,48.62Z"/><path class="cls-1" d="M126.92,61.9h-3.68V43.42h.33c2.05,0,4.11,0,6.17,0a5.38,5.38,0,0,1,2.57.58,4.26,4.26,0,0,1,2.07,2.42,7.53,7.53,0,0,1,.25,4.23,4.62,4.62,0,0,1-4.14,3.72,30.7,30.7,0,0,1-3.19.14c-.3,0-.39.09-.39.39q0,3.28,0,6.57Zm0-12.94v2.56c0,.21.06.3.28.29.53,0,1.06,0,1.6,0A2.2,2.2,0,0,0,131,50.06a6.41,6.41,0,0,0,.08-1.75,2,2,0,0,0-1.74-2.09,16.42,16.42,0,0,0-2.22-.1c-.23,0-.19.17-.19.31Z"/><path class="cls-1" d="M185.78,17.57c0-.61,0-1.16,0-1.72,0,0,.13-.14.2-.15s.45,0,.67,0h5c-.22,3.06-.43,6.07-.64,9.14.46,0,.88,0,1.3,0,.19,0,.28.06.28.27,0,1.4,0,2.8,0,4.2a1.28,1.28,0,0,1,0,.17h-2.08v-.36c0-.73,0-1.45,0-2.17,0-.23-.06-.34-.3-.31H173.83c-.48,0-.48,0-.48.47v2.37h-2.08c0-.1,0-.2,0-.29,0-1.34,0-2.67,0-4,0-.26.07-.35.34-.34s.75,0,1.17,0q-.25-4.45-.51-8.75l5.37-.69.73,1.75-4,.51c0,.09,0,.18,0,.26,0,.28,0,.68.12.79s.57.08.87.08h2.43c.22,0,.3.07.29.29,0,.41,0,.82,0,1.28h-.39c-.93,0-1.87,0-2.8,0-.34,0-.41.12-.35.41,0,.11,0,.22,0,.33,0,.58,0,.58.6.58H178c0,.51,0,1,0,1.5,0,.05-.19.14-.3.14-.87,0-1.73,0-2.6,0l-.43,0c0,.46.05.89.08,1.31a.29.29,0,0,0,.17.17,1.2,1.2,0,0,0,.33,0h13.21c.5,0,.5,0,.52-.51,0-.16.05-.33.06-.49s0-.31,0-.49l-.41,0c-.78,0-1.56,0-2.34,0-.26,0-.35-.09-.34-.35,0-.42,0-.84,0-1.3h3.23l.09-1.23h-3c-.25,0-.34-.07-.33-.32,0-.41,0-.82,0-1.26h2.58c.28,0,.64.09.81-.05s.12-.5.15-.77,0-.28,0-.46Z"/><path class="cls-1" d="M156.55,21.72c0,.61,0,1.17,0,1.73,0,.24-.17.19-.31.19h-2.7c-.16,0-.43,0-.46.12a.66.66,0,0,0,.13.71c1.05,1.21,2.08,2.43,3.12,3.64l.23.3-1.2,1.78-2.2-3.41-.1,0c0,.14,0,.27,0,.41v9.57c0,.45,0,.45-.46.45H151V27.15H151c-.53,1-1,1.94-1.6,2.86s-1.27,1.79-1.92,2.67l-.1,0c-.28-.72-.57-1.44-.84-2.16,0-.09.07-.25.15-.34a24.35,24.35,0,0,0,3.65-5.35l.47-1a.71.71,0,0,0,0-.15h-3.93V21.74l.35,0c1.15,0,2.31,0,3.46,0,.28,0,.37-.08.37-.36,0-.83,0-1.67,0-2.5,0-.1,0-.19,0-.32l-3.26.34L147.34,17c1.35-.17,2.67-.3,4-.53s2.6-.55,3.94-.85L156,17.5c-.56.15-1.08.31-1.61.44-.34.09-.69.15-1,.21s-.31.12-.3.35c0,1,0,1.94,0,2.9,0,.24.07.33.32.33C154.4,21.71,155.44,21.72,156.55,21.72Z"/><path class="cls-1" d="M175.28,29.7V28H189c0,.55,0,1.09,0,1.63,0,.08-.16.2-.27.24-1.54.57-3.08,1.12-4.62,1.68a1.22,1.22,0,0,0-.42.22h8.76v1.85h-8.74c-.34,0-.44.1-.43.43,0,.6,0,1.2,0,1.8a1.65,1.65,0,0,1-1.6,1.57h-3.55l-.45-1.83h1.07c.54,0,1.07,0,1.6,0s.75-.2.75-.78c0-.3,0-.6,0-.9s-.09-.32-.33-.32h-9V31.79h8.95c.32,0,.49-.07.42-.42s.08-.46.42-.54c1.15-.3,2.28-.64,3.42-1a.56.56,0,0,0,.27-.17Z"/><path class="cls-1" d="M166.62,28.48l2-.26.33,2-2.34.35V31c0,2,0,4,0,5.94,0,.3-.1.38-.38.37-.56,0-1.13,0-1.74,0V30.9L156.65,32l-.33-2,1.84-.27L163,29c.37-.05.74-.11,1.11-.15s.46-.11.46-.48c0-4.28,0-8.56,0-12.84v-.39h2.1Z"/><path class="cls-1" d="M151.14,51v1.29c.12-.15.18-.21.23-.29a2.81,2.81,0,0,1,2.45-1.29,4.43,4.43,0,0,1,1.15.09A2.28,2.28,0,0,1,156.74,53c0,.55.06,1.09.06,1.63q0,3.44,0,6.87v.43H154v-.4c0-2.34,0-4.69,0-7a5,5,0,0,0-.12-1,.87.87,0,0,0-.67-.67,1.49,1.49,0,0,0-2,1.58c0,2.36,0,4.71,0,7.07v.41h-2.75V51Z"/><path class="cls-1" d="M139.37,54H137a3.11,3.11,0,0,1,.78-2.58,3.33,3.33,0,0,1,2.07-1,7.55,7.55,0,0,1,2.68.11,2.52,2.52,0,0,1,2.22,2.79c0,2,0,4.07,0,6.1,0,.72.12,1.43.19,2.18H143.7a6.32,6.32,0,0,0-.87,0c-.37,0-.52-.14-.59-.46s-.11-.43-.17-.7l-.21.26a2,2,0,0,1-1.52,1,8.46,8.46,0,0,1-1.59.06,2.2,2.2,0,0,1-2-1.78,4.77,4.77,0,0,1,0-2.46,2.42,2.42,0,0,1,1.55-1.8c.85-.31,1.73-.54,2.6-.81l.19,0c1.09-.25,1.19-1.13.94-1.91-.19-.56-.64-.79-1.41-.74a1.19,1.19,0,0,0-1.11,1C139.42,53.53,139.4,53.77,139.37,54ZM142,56.3l-1.64.56a1.75,1.75,0,0,0-1.08,2.29,1,1,0,0,0,.72.91,1.64,1.64,0,0,0,2-1.2A21.92,21.92,0,0,0,142,56.3Z"/><path class="cls-1" d="M184.79,54.63h-2.61c-.07-.41-.1-.8-.19-1.19a1.14,1.14,0,0,0-1-1,1.29,1.29,0,0,0-1.46.86,5.2,5.2,0,0,0-.27,1.29,16.94,16.94,0,0,0,.12,4.15,1.4,1.4,0,0,0,1,1.31,1.17,1.17,0,0,0,1.51-.74,17,17,0,0,0,.37-1.76l.18,0h2.07c.14,0,.3,0,.3.2A4.44,4.44,0,0,1,183.64,61a3.35,3.35,0,0,1-1.91.86,7.21,7.21,0,0,1-2.62-.07,3.08,3.08,0,0,1-2.32-2.37,12.09,12.09,0,0,1-.34-3.93,7,7,0,0,1,.66-3,3.5,3.5,0,0,1,2.93-2,5.81,5.81,0,0,1,2.08.1,3.42,3.42,0,0,1,2.57,3C184.74,53.9,184.76,54.26,184.79,54.63Z"/><path class="cls-1" d="M189,61.89V51h2.72V61.89Z"/><path class="cls-1" d="M122.61,35.38a46.91,46.91,0,0,0,3.75-8c.58.43,1.13.84,1.67,1.26a.24.24,0,0,1,.05.22,44.42,44.42,0,0,1-3.77,8.31s0,0-.06.05Z"/><path class="cls-1" d="M184.15,19.8l1.39.86-1.71,1.59,1.29,1.05-1.2,1.2c-.42-.35-.86-.72-1.28-1.11a.44.44,0,0,0-.59-.05c-.68.36-1.37.67-2.06,1a.29.29,0,0,1-.46-.13c-.22-.42-.48-.82-.74-1.24l2.15-.85-1.46-1,1.12-1.08c.47.31,1,.63,1.5,1a.36.36,0,0,0,.52,0C183.11,20.64,183.61,20.24,184.15,19.8Z"/><path class="cls-1" d="M179.43,19.85l-.92-1.52,2.29-.88v-.11l-1.54-1c.34-.34.67-.67,1-1,0-.05.21,0,.28,0,.53.32,1.06.65,1.58,1a.35.35,0,0,0,.47,0c.34-.29.7-.55,1-.85a.29.29,0,0,1,.42-.05c.38.26.77.49,1.2.76l-1.45,1.31,1,.84-1.22,1.2c-.3-.28-.66-.58-1-.9a.4.4,0,0,0-.55-.06C181.18,19,180.32,19.43,179.43,19.85Z"/><path class="cls-1" d="M163.24,25.53l-1.67,1.66-4.07-3.05c.41-.43.86-.92,1.32-1.39a.3.3,0,0,1,.29,0A29.46,29.46,0,0,1,163.24,25.53Z"/><path class="cls-1" d="M163.62,19.75,162,21.42l-4-3c.43-.45.89-.95,1.37-1.44a.27.27,0,0,1,.23,0A29.25,29.25,0,0,1,163.62,19.75Z"/><path class="cls-1" d="M127.27,20.38l-3.65-2.86,1.24-1.86c.73.44,1.45.85,2.15,1.3.52.34,1,.73,1.5,1.11.07.05.14.21.11.25C128.17,19,127.7,19.73,127.27,20.38Z"/><path class="cls-1" d="M127.56,24l-1.36,2.08-3.72-2.75,1.17-1.74A19,19,0,0,1,127.56,24Z"/><path class="cls-1" d="M191.75,49.53h-2.47c-.22,0-.29-.07-.28-.29,0-.6,0-1.2,0-1.8,0-.15,0-.26.21-.26h2.43s.06,0,.11,0Z"/><path class="cls-1" d="M104.17,38.58l-3.62.28c0-.32-.1-.61-.14-.9a2.82,2.82,0,0,0-2.73-2.59,7,7,0,0,0-3,.2A2,2,0,0,0,93.21,37,1.34,1.34,0,0,0,94,38.66c1.05.39,2.14.71,3.23,1a21.41,21.41,0,0,1,4.42,1.39,5.27,5.27,0,0,1,3,3.66,5.82,5.82,0,0,1-3.14,6.4,8.39,8.39,0,0,1-3.74.94A11.39,11.39,0,0,1,93,51.37a6.44,6.44,0,0,1-4.16-5.32,9.5,9.5,0,0,1-.07-1.19.39.39,0,0,1,.21-.3c1.1-.11,2.21-.19,3.33-.28.07.43.11.86.2,1.28a3.23,3.23,0,0,0,2.09,2.49,6.43,6.43,0,0,0,5,0,2.18,2.18,0,0,0,1.32-1.33,1.66,1.66,0,0,0-.69-2.07,9.34,9.34,0,0,0-2-.81c-1.5-.44-3-.79-4.52-1.23a6.21,6.21,0,0,1-3-1.78,5.16,5.16,0,0,1,0-6.75A6.37,6.37,0,0,1,94.44,32a10,10,0,0,1,5.88.44,5.74,5.74,0,0,1,3.79,5.28C104.13,38,104.15,38.27,104.17,38.58Z"/><path class="cls-1" d="M81.55,40.12H78.1c-.26,0-.37-.08-.34-.35a.86.86,0,0,0,0-.16V21c0-.49,0-.49.48-.49h8.17a9.36,9.36,0,0,1,2.92.44,5.17,5.17,0,0,1,3.6,4.2,6.35,6.35,0,0,1-1.34,5.51,5.37,5.37,0,0,1-3.46,1.81,18.57,18.57,0,0,1-2.58.21c-1.21,0-2.42,0-3.63,0-.3,0-.38.08-.38.38q0,3.3,0,6.6Zm0-16.1v5.17h.36c1.25,0,2.51,0,3.76,0a10.16,10.16,0,0,0,1.46-.14,2.15,2.15,0,0,0,1.93-1.63,3.94,3.94,0,0,0,.1-1.19,2.19,2.19,0,0,0-1.86-2.12A6.31,6.31,0,0,0,86.26,24H81.57Z"/></svg>