<svg id="圖層_1" data-name="圖層 1" xmlns="http://www.w3.org/2000/svg" viewBox="0 0 260.44 70.43"><defs><style>.cls-1{fill:#fff;}</style></defs><title>TONE 行銷頁面元件</title><path class="cls-1" d="M123,21s1.15.64,1.27,1.15a1.52,1.52,0,0,0,1.76,1.11c1.15-.1,1.72-1.33.1-2.43s-3.57-.78-3.4-.12A.34.34,0,0,0,123,21Z"/><path class="cls-1" d="M129.05,47.82c-.3-.55-4.08-8.33-4.64-9.46s1.08-3.33,2.18-4.55a1.38,1.38,0,0,0,0-2.18,4.61,4.61,0,0,0-2.08-1.17c-.54,0-.39.88-.36,1.54s-.84,1.57-1.06,1.81-1.15-2.06-1.17-2.13a7.52,7.52,0,0,1-.71-2c0-.49,1-1.07,1.64-1.68s.64-1.55,0-1.79a1.76,1.76,0,0,1-.93-1.25c-.07-.24-.34-.07-.34.17a2,2,0,0,1-.81,2c-1,.76-1.59-4.55-2.29-5.28-.2-.66-1.89-1.67-2.13-1.13s-.15.64.49,1.4a53,53,0,0,1,2.71,5.52c.37.47-6.09,5.17-7.51,6.34-.68.34-.56-1.27-.56-1.27,1-3.23,2.57-3.5,3-4.14.23-.35.44-1,.1-1.05A9.72,9.72,0,0,0,113,27.4c-.77,0-.8.17-1.59,1a3.6,3.6,0,0,0-.75,2c-.13.24-2.38,1.49-2.82,1.22s.39-1.42.39-1.42a37.36,37.36,0,0,1,3.31-4.89c.19-.2,1.29-1,.63-1.91s-1.22-1.22-1.86-1.22-.27.85-.29,1.86a11,11,0,0,1-.76,2.81,26.07,26.07,0,0,1-2.69,4.45,2.5,2.5,0,0,0,0,2.18c.44,1.13,2.69-.54,3.28-.76s.61.71.78,1.35-1.57,1.88-2.32,2.27a8.36,8.36,0,0,0-3.55,2.65c-1.42,2.08.49,2.74,1.37,2.54a11.14,11.14,0,0,1,5.48,1.59c1.32,1,.9-.59.68-1.37-.61-1.17-.68-5.8-.68-5.8A68.73,68.73,0,0,1,117.41,32a24.62,24.62,0,0,1,2.43-1.86c.36-.05,1.46,2.35,2,3.67a2.92,2.92,0,0,1-.22,2.69c-.17.39-4.67,8-4.92,8.22s0,.44,0,.44c2.67-.12,6.93-6.55,6.93-6.55s3.53,8.74,4.76,11.17,1.79,2.09,2.21,1.89S129.29,48.28,129.05,47.82Zm-20.49-6.43c-.86.08-2.45-.19-2.08-1.07a9.36,9.36,0,0,1,3.69-3.26s.29-.27.42-.05.12,4.36.39,4.43S109.41,41.32,108.56,41.39Zm3.74-13c.78,0,.42.62.22.76l-.81.64A.88.88,0,0,1,112.3,28.35Z"/><path class="cls-1" d="M132.77,24.26s.15-.63.42-.65,2-.18,1.67,1.07c-.68,1.47-1.87,5.94-1.59,6.62s.64.42.9.63A3,3,0,0,1,135.84,35c0,2.42.38,2.18.64,1.67s2-4.41,1.83-5.34-.17-1.64-.43-1.82a.53.53,0,0,1,0-.9,2.18,2.18,0,0,1,1.22-.38c.24,0,.57.11.63-.09s.27-.37.27-.28.46,5.93.46,6.09c-.07,2.85.28,8.1.33,8.19,0,.25-.11,2.77-.9,2.09-1.1-1.29-1.45-1.73-1.47-2.53s0-7.86.13-8.3c-.2-.09-.62,1.32-.86,2.11s-2.06,7.16-2.44,7.69-.41.62-.94.35c-.25-.13-.25-.2-.27-.68s.25-3.94.13-4.75a17.93,17.93,0,0,1-.13-3.36c.07-.83-.52-1.63-1.1-1.08s-.66,1.41-1,1.54a.89.89,0,0,1-1.21-.39,3.59,3.59,0,0,1,.06-1.81c.07-.37,1.45-5.38,1.45-5.49S132.83,24.38,132.77,24.26Z"/><path class="cls-1" d="M139.82,24.39s-.34-.29-.19-.56.29-.66.85-.52a6,6,0,0,1,2.11,2.48c.32.56.85-.24,1.25-.52A19.37,19.37,0,0,0,146,22.9c.29-.49,1.15-1.2,1.66-1a6.1,6.1,0,0,1,1.86,1.24c.22.32.78.66,1.13.37s.44-.81.68-.86a2.64,2.64,0,0,1,1.84.57c.36.49.83,1.05.83,1.05s0,3.74,0,3.79-.05,5.09-.05,5.19-.05,6.09-.17,6.65-.44,4.68-1.42,5.19-1.2-.17-1.69-.61a2.23,2.23,0,0,1-.85-1.4c.22-.07.78.32,1.15,0A5.12,5.12,0,0,0,152,40c.05-1.59.39-14.9.17-15.24s-.09-.54-.56-.54-.85.71-1.1,1.25-1,2.08-1.27,1.83a4.43,4.43,0,0,1-1.67-2.08c-.29-1.15-.36-1.42-.83-1.1a18.9,18.9,0,0,0-3,3.89c-.05.49-.36,1.74-.75,1.3s-.74.17-1.64-1.71S139.92,24.42,139.82,24.39Z"/><path class="cls-1" d="M161.92,29a4.87,4.87,0,0,1,0-.89c.06-.15.26-.19.47.06s1.36,1.42,1.44,1.52a1,1,0,0,1,.1,1.16c-.35.67-1.81,3.53-1.22,4a2.41,2.41,0,0,0,1.12.24,5.75,5.75,0,0,1,1.85,1.16c0,.22.67.28.85.1s1.58-2,2-2.34a11.47,11.47,0,0,1,2.64-1.76,4.16,4.16,0,0,1,2.78.46,6.15,6.15,0,0,1,2.27,4.06,7.11,7.11,0,0,1-1.16,5c-1,1.18-2,2.19-3.83,2s-2.07-1.1-2.62-1.34c0,0-.08-.25.24-.2s3.47.38,5.06-1.87.26-5.73-1.1-6.05-1.3.14-1.26.2,1.63,1.32,1.87,1.46,1,1.89.34,2.74c0,0,0,.35-.71.12s-.91.13-.93-.24.18-1.34-.22-1.81S170.53,35,170,35s-1.36.81-1.58,1.07a5.25,5.25,0,0,0-1.12,2.16,2.1,2.1,0,0,1-.1.93c-.17.22-.53-.08-.55.08a13.6,13.6,0,0,1-1,3.57,1.16,1.16,0,0,1-1.86.27,2.2,2.2,0,0,1-.39-2.27c.35-.57,1.16-3.27.92-3.82S163,35.1,162.18,36s-1.15,3.76-1.32,4.55-1,3.78-1.48,3.65A2.36,2.36,0,0,1,158,41.76a7.75,7.75,0,0,1,1.1-3.17A48.38,48.38,0,0,0,161.25,34,40.78,40.78,0,0,0,161.92,29Z"/><path class="cls-1" d="M203.07,32.24a8.42,8.42,0,0,0-2.64-1.63c-.35,0-.37.46-.52.58a1,1,0,0,1-.9.39c-.57,0-.69.2-1.94.59-2.69.86-7.75,2.06-8.09,2.06s-.25.24-.25.24c.42,1.2,2.89,1.27,3.21,1.22s.95-.71.95-.71a24.82,24.82,0,0,1,6.68-2.2c.86-.24,1.42.81,1.42.81.54.54,0,4.94-1.1,7.68s-2.57,3.35-3.57,3.33A1.79,1.79,0,0,1,194.9,44a13.76,13.76,0,0,0,1.64-3.74c.19-1-1.77-2.15-2.3-2.5a3.82,3.82,0,0,0-2.5,0c-.49.22-1.52.64-2.4,1.08a3.54,3.54,0,0,1-2.37.19c-.54-.12-1.08-.51-1-.8s2.2-1.2,2.4-1.37-.66-.74-1.13-.76a1.92,1.92,0,0,0-1.12.44c-.34.19-.27-1.15.15-3.06a2.63,2.63,0,0,1,2.44-2c1.42-.64,12.19-3.33,13.56-3.52.71-.18-1.1-1.23-1.62-1.59s-1.78.24-2.2.41L187.7,31.07c-.12.12-.85.34-1.12-.2a2.87,2.87,0,0,1,.1-1.54c.46-.76,1.83-.66,1.83-.66a9.17,9.17,0,0,0,4.6-1c.61-.14.47-.88.37-1.05a2.42,2.42,0,0,1-.06-.8c0-.9,1.73-2.71,2.59-3.84s.09-1.68,0-1.8-2.09-1.92-2.38-2-.37.22-.52.27-2.08,0-2.08,0c-.7,0-.92-.28-.92-.28.66-1-.06-1.56-.61-2.29A3.8,3.8,0,0,0,187,14.71c-.45,0-.38.5-.36,1.27a8.67,8.67,0,0,1-.48,2.2c-.17,1.49-4,6.39-4,6.39A30.32,30.32,0,0,1,178,29c1.21.32,5.63-3.23,5.63-3.23,1.54,2.4,1.11,6.9.77,7.81a32.47,32.47,0,0,0-.77,4.52c0,.17-2.63,2.06-3.66,3.13a2,2,0,0,0-.34,2.28c1.69,2,6,.1,6.7-.17s4.85-.91,5.66-1.23a.82.82,0,0,0,0-1.51,3,3,0,0,1-1-1c.39-1.18,1.91-.83,1.91-.83,1.49.9-.37,4.6-.51,5.21a39.69,39.69,0,0,1-3.09,4.3c.52.57,3.6-2.39,4.14-2.91a1.31,1.31,0,0,1,1-.46,10.16,10.16,0,0,0,2.23,2.37c2.2,1.59,4.53-2.81,5.48-4.67s2-8.15,2.13-8.69S203.56,32.73,203.07,32.24Zm-18.4-7.12c-.17-.09,0-.41.05-.58a17.51,17.51,0,0,1,2-2.62,25.15,25.15,0,0,0,2.47-2.77c.07-.17.22-.31.59-.22s2.93,1,2.32,1.94a14.06,14.06,0,0,1-3.54,2.91,7.07,7.07,0,0,0-2.18,1.81c0,.2.66.34,1,.24s3.18-1,3.5-1.24.61.19.59.46a4.61,4.61,0,0,1-1.5,1.84,25.38,25.38,0,0,1-2.74,1.05c-.34.12-.71.22-.9,0S184.84,25.22,184.67,25.12Zm1.88,16.4c-.46.49-2,.32-2.61.56s-3.18.61-2.92-.34,3.23-2.33,3.28-2.38,1.3,1.5,1.67,1.55S187,41,186.55,41.52Z"/><path class="cls-1" d="M75.31,57.74c.07-.06.58,0,.58.15s-.31.14-.46.12S75.16,57.86,75.31,57.74Z"/><path class="cls-1" d="M77.14,58.82a2.44,2.44,0,0,0,1,.07c.52-.1.08.39-.17.39S77,59.36,77.14,58.82Z"/><path class="cls-1" d="M59.23,12.8s-.14.14-.14.24.07.34.19.34.25-.39.34-.39S59.36,12.77,59.23,12.8Z"/><path class="cls-1" d="M62.31,10.75s.28-.09.28,0,0,.57-.15.69-.31.48-.37.37-.16-.57,0-.66S62.35,10.88,62.31,10.75Z"/><path class="cls-1" d="M64.16,17.43s-.07.22,0,.25a.67.67,0,0,0,.41,0c.14,0,.22-.22.11-.22S64.16,17.43,64.16,17.43Z"/><path class="cls-1" d="M65.5,17.67s0,.27,0,.29a1.45,1.45,0,0,0,.55,0c0-.06.07-.28.16-.28A3,3,0,0,0,65.5,17.67Z"/><path class="cls-1" d="M66.51,17.89s.44-.11.44-.19,0-.42.17-.46.8,0,.8.08a.84.84,0,0,0,.28.46c.07,0,.31.16.31.34s.19.54.28.54,1,0,1,.11.32.31.33.47a5.73,5.73,0,0,0,.92,2.46c.83,1.32,2.46,4.28,3,4.42,0,0-.13.15-.27.08s-1.16-1.49-1.31-1.65-1.28-1.62-1.56-2.08-1.46-1.87-1.5-2.55-.48-.6-.61-.68-.73-.68-.73-.68-.4-.33-.59-.33S66.46,18.45,66.51,17.89Z"/><path class="cls-1" d="M60.17,12.27s.09.47.22.49.56.07.67.07.3-.07.38,0a2.78,2.78,0,0,1,.26,1.1c-.06.11.11.23.2.07a1,1,0,0,0,0-.8,2.59,2.59,0,0,1-.32-.48s0-.07-.36-.13-.43-.36-.51-.36S60.11,12.1,60.17,12.27Z"/><path class="cls-1" d="M100.65,51.72a1.74,1.74,0,0,0-1.34-.36A4.38,4.38,0,0,1,96,50.23,37.63,37.63,0,0,1,91.45,46a2.25,2.25,0,0,1-.51-1c0-.29-.29-1.74-.22-1.88a2.78,2.78,0,0,0-.42-1.35c-.19-.2-.44-.56-.66-.44s-.34-.15-.34-.42a4.89,4.89,0,0,0-.49-2.17c-.36-.37-1.51-1.89-1.78-2a29.22,29.22,0,0,1-2.13-2.26c-.1-.12-.34-.68-.56-.73a6.36,6.36,0,0,1-3-1.49c-1.3-1-2.23-1.76-2.47-2S77.07,28.43,77,28.38,76,27.82,76,27.6,75.7,27,75.58,27a6.56,6.56,0,0,1-1.06-.29c-.07-.05,0,.24.2.44s-.1.35-.22.53a.71.71,0,0,0-.32-.09c-.51-.05-.49-.27-.39-.39s.2-.54-.17-.56-.47-.37-.66-.49-.29-.52-.47-.74a13.93,13.93,0,0,0-1.83-2.25,7.27,7.27,0,0,1-1.4-2.05,1.4,1.4,0,0,0-.53-.57c-.27-.19-1.13-.78-1.23-.88a1.52,1.52,0,0,0-.61-.36c-.15,0-1.91.09-2.23,0a4.25,4.25,0,0,1-2.93-3.46c.12.18.28.42.47.74a3.94,3.94,0,0,0,3.49,2.06c.55,0,.47-.2.47-.2a4.42,4.42,0,0,1-4.24-3.25c0-.09-.13-.2-.23-.29s.11-.63-.13-.69-.42.61-.66.71a2.28,2.28,0,0,1-1.06,0c-.17-.07-1.27-.22-1.51.2s-1.23,2-1.69,2.1-1-.05-1,.37-.46,0-.46,0-.3-.17-.42-.13a1.32,1.32,0,0,1-.07-.75c.1-.35.59-.71.73-.62s.74.44,1.1.18.81-.91,1.15-1c0,0,.3-.1.15-.17a2.34,2.34,0,0,0-1.35.69c-.17.31-.61,0-.71-.1s-.53-.52-1.07.17-.86.83-.71,1.83c0,0-.93.74-.83,1.54a3.19,3.19,0,0,0,.8,1.74c.22.2.91.81.88,1.3a5.73,5.73,0,0,1-.39,1.86.26.26,0,0,1-.39-.12c0-.15-.24-.3-.36-.13s0,1.08.07,1.08a1.5,1.5,0,0,0,.59-.24c.09-.1-.13,2.29,0,2.78a4.62,4.62,0,0,0,1,1.72,23.74,23.74,0,0,0,2.2,2.35c.12,0,.34-.27.51-.1A9.09,9.09,0,0,1,59,33.79s-.34.27-.22.51a19.56,19.56,0,0,0,1.37,2.52c.22.15.36.79.39.93s.34,1.18.66,1.3.78,1.22.78,1.32.27.9.54,1,.44.49.2.59-.07.13-.35,0-.93-.82-.93-.76.27.53.46.88c-.08,0-.14.08-.14.14a1.92,1.92,0,0,0,.71,1.55s.39.46.61.46.35.27.39.49.13,1.25.69,1.64,1,.2,1.1.34.51.52.54.76.07,1,.41,1.05.76.83.81.91A6.1,6.1,0,0,1,67.85,51a2.24,2.24,0,0,0,.63,1.5,22.59,22.59,0,0,0,3.13,2.42.2.2,0,0,0,.16,0,.62.62,0,0,0,.14.14,1.11,1.11,0,0,0,.68.12,3.34,3.34,0,0,1,1.15,0,6.06,6.06,0,0,0,.83.9,5.71,5.71,0,0,1,.69.32s1.42,1.25,1.47,1.35.53.9,1.29.78a4,4,0,0,0,1.76-.93c.18-.17.64-.78,1-.66a5.32,5.32,0,0,0,1.32.37A5.92,5.92,0,0,0,83.5,57,4.43,4.43,0,0,1,85,56.91c.25.07.42.46,1,.46a3,3,0,0,0,2-.58c.46-.44,2.5-2.25,2.6-2.33a16.38,16.38,0,0,1,1.83-1.12,7.34,7.34,0,0,1,2.82.22c.53.24,2.34,1.66,2.59,1.61,0,0-1.08-1.15-1.3-1.42a2.37,2.37,0,0,0-1.17-1,.46.46,0,0,0,0-.28s1.31.15,2.06.16a.65.65,0,0,1,.12.28,2.68,2.68,0,0,0,0,.9A3.34,3.34,0,0,0,98.48,55a1,1,0,0,0,1,0c.12-.07,0-.71-.08-.81s-.66-.66-.56-.75.44-.1.73-.1.88,0,1.1-.34A1,1,0,0,0,100.65,51.72Zm-28.5-.12c.17,0,.27-.07.34-.07s.79.39.79.53a1.85,1.85,0,0,0,.18.47C73,52.57,72.36,52.62,72.15,51.6Zm4-6.41c0-.17-.17-.27-1-.49s-3.47-2.59-4-3.18-3.59-4.21-3.79-4.4-.49-.3-.68-.47a8.71,8.71,0,0,1-.64-1c-.17-.22-.64-.39-.66-.61a5.17,5.17,0,0,0-.54-1.76c-.29-.32-.12-.61-.66-1a6.61,6.61,0,0,0-.59-1.27c-.19-.19-1.54-1.93-1.71-2a1.93,1.93,0,0,1-.44-.85.44.44,0,0,0-.59-.32c-.36.12-.88.14-1-.35s.18-.61-.07-1.14a12.45,12.45,0,0,1-.71-6.46,24,24,0,0,0,2.35,5c1.08,1.34,3.16,4.62,3.3,4.62a1.18,1.18,0,0,1,.71.44,4.77,4.77,0,0,0,.76,1c.12.08.17.69.27.79s1,.61,1.15.85a14,14,0,0,0,1.64,1.91c.17.1.32.25.44.27s.32.51.37.64-.1,1.07,0,1.12a2.27,2.27,0,0,1,1.2,1.25c.17.73.32.22.47.22s.48,0,.61.17a6.82,6.82,0,0,0,.9.69s1.25.8,1.4,1.46c.76.88-.1.23-.52.37s-.44.59-.32.64.2-.25.45-.2.41.42.48.59a.93.93,0,0,0,.71.51c.35,0,.4.59.44.74s1.2.8,1.25,1,.64.2.71.2.12.34.34.39,2.3,1,2.43,1a12.39,12.39,0,0,1,2.1.86c.12.14,2.18.41,2.81.73a19.51,19.51,0,0,0,2.18,1.13,2.64,2.64,0,0,1,.91.32c.07.07,1.73,1.19,1.91,1.34s-.64.22-1.35-.27c0,0-2.18-.76-2.54-.93A9,9,0,0,0,85,48.17a21.78,21.78,0,0,1-2.79-.88,16.71,16.71,0,0,0-2.1-.71,7.71,7.71,0,0,1-1.47-.36,13.05,13.05,0,0,0-1.25-.54C77.26,45.61,76.24,45.36,76.19,45.19ZM91.5,52.58a1.13,1.13,0,0,1-.73.22,2,2,0,0,0-1,.61,9.28,9.28,0,0,1-1.64,1.08,5.75,5.75,0,0,0-1.15.9s-.32-.49-.37-.37-.27.47-.17.64-.88.25-1,.1a.64.64,0,0,0-.44-.32,6.53,6.53,0,0,0-1.74.25,7.38,7.38,0,0,1-2,0c-.29,0-2.06,0-2.08.22s-.27.07-.27.26a.32.32,0,0,1-.24.32c-.08,0-.32,0-.4-.07S77.9,56,77.66,56a2,2,0,0,1-1.2-1,1.17,1.17,0,0,0,.68.05c.88-.24.66-.61.88-.73a1.57,1.57,0,0,1,.88,0,13.8,13.8,0,0,0,3.18.25,1.84,1.84,0,0,1,1.23.14,4.92,4.92,0,0,0,2.22.22A11.86,11.86,0,0,0,88.18,53a7.28,7.28,0,0,1,2.08-.86c.19,0,1.11,0,1.8.1A2.66,2.66,0,0,0,91.5,52.58ZM93.14,50c-.73-.56-3.84-2.86-4.47-4.23,0,0-.4-2.52-.42-2.6s-.17-.78-.29-.78-.84.22-.84-.07a6.05,6.05,0,0,0-.63-2.45,13.13,13.13,0,0,1-1-1,1.38,1.38,0,0,1-.25-.61c0-.15,0-.46-.54-.71a4.72,4.72,0,0,1-1.54-1.59,2.74,2.74,0,0,0-.81-1.25c-.34-.22-2.2-1.9-2.61-2.2A22.15,22.15,0,0,1,76.92,30c0-.22-.39-.61-.68-.81s-.71-.36-1-.6c0-.22,0-.39.11-.38s.83.61,1,.69a2.51,2.51,0,0,1,.76.63c.1.15.83.86,1.12,1.18s1.47,1.22,1.69,1.42a2.85,2.85,0,0,1,.69.85c0,.15.44.39.61.39a2.11,2.11,0,0,1,.85.47,4,4,0,0,0,1.23.68c.24,0,.61,0,.61.13a2.74,2.74,0,0,0,.46,1,5.57,5.57,0,0,0,1.81,1.3,1.47,1.47,0,0,1,.18.73c0,.39.39.56.53.71a6.24,6.24,0,0,1,1.18,1.49,3.46,3.46,0,0,1,.19,1.45c-.07.29.35.9.62,1s.61.39.63.57a10,10,0,0,1,.15,1c0,.19.22.41.19.71a6.16,6.16,0,0,0,.27,1.66,10.36,10.36,0,0,1,1.08,1.2,37.52,37.52,0,0,0,2.86,2.64,1.73,1.73,0,0,1,.73.9A14.74,14.74,0,0,1,93.14,50Z"/><path class="cls-1" d="M81.16,45.11a4.56,4.56,0,0,1,.82,0c.08.05.43.33.51.36a4.59,4.59,0,0,1,.73.4,1.65,1.65,0,0,0,.55.14c.08,0-.27.31-.48.21l-.77-.35a3.21,3.21,0,0,1-.59-.34c-.11-.1-.74-.2-.74-.24S81,45.22,81.16,45.11Z"/><path class="cls-1" d="M84.25,45.37s.42,0,.42.05a.87.87,0,0,0,.15.28s-.13.39-.34.21S84.09,45.46,84.25,45.37Z"/><path class="cls-1" d="M91.77,50.7a1.59,1.59,0,0,1,.36,0s.07.36,0,.38-.44.06-.44,0S91.66,50.7,91.77,50.7Z"/><path class="cls-1" d="M93.77,51.85a2.29,2.29,0,0,1,.57,0,1,1,0,0,1,0,.52.34.34,0,0,1-.28,0s-.13-.22-.2-.25S93.71,51.88,93.77,51.85Z"/><path class="cls-1" d="M92.85,51.28s.32,0,.36,0,.05.38-.13.35S92.75,51.36,92.85,51.28Z"/><path class="cls-1" d="M76.54,42.44s.42,0,.42,0,.13.28.08.27-.4-.08-.53-.1S76.51,42.44,76.54,42.44Z"/><path class="cls-1" d="M67,30.67s.46,0,.51,0,.12.27,0,.32A2.58,2.58,0,0,1,67,31S67,30.68,67,30.67Z"/><path class="cls-1" d="M66.17,29.85a2.18,2.18,0,0,1,.44,0s.08.41,0,.41a1.41,1.41,0,0,1-.41,0A2.48,2.48,0,0,1,66.17,29.85Z"/></svg>