<svg id="圖層_1" data-name="圖層 1" xmlns="http://www.w3.org/2000/svg" viewBox="0 0 260.44 70.43"><defs><style>.cls-1{fill:#fff;}</style></defs><title>TONE 行銷頁面元件</title><path class="cls-1" d="M130.49,59.2a68.75,68.75,0,0,1-22.79.33c1.94-7.2,6.48-24.11,7.62-28.26H120l-3.26,12.15h4.75c.59-2.17,2.67-10.08,3.9-14.54H116a67.69,67.69,0,0,1,2.19-7.68c.79-2,2-3.13,3.43-3.34a3.73,3.73,0,0,1,.47,0,1,1,0,0,1,1.11,1c0,1-1.42,1.81-.29,3.63.72,1.18,3.13,1.39,4.37,0a3,3,0,0,0,.37-3.6,4.06,4.06,0,0,0-1.3-1.32c-1.39-1-3.77-1.22-5.48-1.06A8.89,8.89,0,0,0,114,21.06c-1.09,1.83-1.71,3.45-2.83,7.64,0,0-5.49,20.33-8,29.88-10.83-2.79-18.52-8.73-19.92-16.69C80.81,28.16,98,13.65,121.72,9.47s45.56,3.51,48,17.24S154.17,55,130.49,59.2m8.95-30.32H127.55l-.65,2.39h6.64c-1.46,2.25-9.15,7.56-9.15,12.15h12.18l.78-2.93h-7.5c1.78-3.42,8.22-7.09,9.59-11.61M166,28.82a4.88,4.88,0,0,0-1.37-.19c-1.76,0-3.77,1.84-4.86,3.17l.83-2.92h-4.64L152,43.42h4.79l1.82-6.7a14.33,14.33,0,0,1,.71-1.88c.83-1.8,2.2-3.76,3.77-3.48,1,.18.09,1.36,1.45,2.14a2.55,2.55,0,0,0,.57.25,2.24,2.24,0,0,0,2.67-2.33,2.64,2.64,0,0,0-1.81-2.6m-22.8,6.92a6.81,6.81,0,0,1,2.43-4,3.91,3.91,0,0,1,2.29-.82c.53,0,1.08.12,1.18.65a1.33,1.33,0,0,1,0,.4c-.28,1.88-2.27,3.64-5.92,3.78m7,3c-.14.15-.37.35-.87.78a5.83,5.83,0,0,1-3.62,1.68,2.71,2.71,0,0,1-2.86-2.6,7.2,7.2,0,0,1,0-1.06,16.54,16.54,0,0,0,5.73-.83,5.64,5.64,0,0,0,4.14-5c0-1.88-1.78-3.16-4.3-3.16-5.48,0-10.19,4.48-10.19,9.74,0,3.36,2.45,5.62,6.06,5.62a9.77,9.77,0,0,0,4.53-1.07,9.28,9.28,0,0,0,2.73-2.15ZM104.48,28.18c-1.09,4.94-3.46,5.69-7.57,5.71.92-3.41,1.89-7,2.59-9.55h.71c4.51,0,4.7,1.86,4.27,3.84m-3.74-6H95.3s-4.87,18-5.75,21.25h4.79c.28-1.05,1-3.77,1.88-7,10.3,0,12.08-3.45,13.12-7.55.54-2.13-.08-6.72-8.6-6.72"/></svg>