<svg id="圖層_1" data-name="圖層 1" xmlns="http://www.w3.org/2000/svg" viewBox="0 0 260.44 70.43"><defs><style>.cls-1{fill:#fff;}</style></defs><title>TONE 行銷頁面元件</title><path class="cls-1" d="M178.24,13.32c-.36-.54-.81-.91-2.63-1.05-.49,0-2.07-.09-4.73-.09-7,0-11.77,2.13-14.21,6.32q1-6.33-12.35-6.33-15.69,0-19.6,12.64-1.44,4.7-.3,7.7l-2.47.17c-1.93.14-4.47.28-6,.28-3.83,0-6.21-.65-7.13-1.93s-.74-3.29.22-6.42c1.6-5.17,5.55-7.5,11.88-7.5,3.27,0,6.46.35,6.46.35a.72.72,0,0,0,.59-.87l-.06-.49-.23-1.74c-.15-1.14-1-1.82-2.55-2s-2.48-.16-4-.16H121q-12.39,0-17.27,8.14,1.78-8.14-11.48-8.14a92.33,92.33,0,0,0-10.58.42c-1.64.2-2.64.88-3,2L78,16.86c-.13.41.07.61.59.61h0c.39,0,1.88-.2,4.44-.4,3.39-.27,5.89-.41,7.54-.41q7.31,0,6.16,3.66a1.41,1.41,0,0,1-1.1,1q-6.92,1.14-11,1.65-11.42,1.46-13.19,7.11Q69,37.87,83.65,37.86A76.32,76.32,0,0,0,95.91,37c1.9-.32,2.87-.81,3.25-2L101,29.21c-.19,5.78,3.86,8.69,12.17,8.69a64.77,64.77,0,0,0,8.61-.4c1.71-.29,2.52-.66,2.9-2l.36-1.82q2.66,4.14,11.65,4.13,9.48,0,11.06-.52A2.24,2.24,0,0,0,149.35,36a1.91,1.91,0,0,0,.07-.36l.76-2.46c.13-.43-.06-.63-.58-.61l-4,.19q-4.05.23-6.34.23a20,20,0,0,1-5.92-.59A3.43,3.43,0,0,1,131,28.68L143.82,27q8.61-1.09,11.53-5.31L151,36.86a.71.71,0,0,0,.09.68,1.07,1.07,0,0,0,.85.29h5.31a1.25,1.25,0,0,0,1.37-.88l4.69-16.33c.61-2.15,2.59-3.19,6-3.19,3.11,0,5.46,0,6.95.08h.12a1.13,1.13,0,0,0,1.09-.82l.82-2.24a1.19,1.19,0,0,0-.1-1.14M92.75,33a51.14,51.14,0,0,1-7.14.38q-8.1,0-7.07-3.26c.49-1.56,1.9-2.5,4.25-2.82l12.26-1.64Zm56.67-13.23c-.51,1.67-2.91,2.82-7.19,3.43L132,24.61l.25-.83q1.28-4.12,3.61-5.63t7.58-1.49c4.61,0,6.59,1,6,3.07"/><path class="cls-1" d="M162.64,58.34V49h-3.46a.69.69,0,0,1,0-.13.58.58,0,0,1,.18-.45.79.79,0,0,1,.55-.17h7.05a.84.84,0,0,1,0,.1v0a.57.57,0,0,1-.19.43.77.77,0,0,1-.55.17h-2.69v9.34Z"/><path class="cls-1" d="M168.33,55a4.64,4.64,0,0,0,.16,1.16,2.54,2.54,0,0,0,.45.9,1.76,1.76,0,0,0,.74.58,2.57,2.57,0,0,0,1.08.21,2.8,2.8,0,0,0,.81-.1,3,3,0,0,0,.59-.24,2.46,2.46,0,0,0,.65-.55,2,2,0,0,1,.24.31.46.46,0,0,1,.09.22.48.48,0,0,1-.18.31,2.07,2.07,0,0,1-.49.36,3.66,3.66,0,0,1-.76.29,3.7,3.7,0,0,1-1,.12,4.09,4.09,0,0,1-1.34-.21,2.53,2.53,0,0,1-1-.67,3,3,0,0,1-.69-1.18,5.34,5.34,0,0,1-.24-1.71,4.64,4.64,0,0,1,.26-1.63,3.21,3.21,0,0,1,.71-1.13,2.84,2.84,0,0,1,1-.64,3.37,3.37,0,0,1,1.17-.22,2.94,2.94,0,0,1,1.27.26,2.39,2.39,0,0,1,.85.68,2.62,2.62,0,0,1,.49,1,4.35,4.35,0,0,1,.15,1.14,7.09,7.09,0,0,1,0,.77Zm4.13-.65a4.76,4.76,0,0,0-.09-.94,2.1,2.1,0,0,0-.32-.78,1.67,1.67,0,0,0-.61-.53,2.11,2.11,0,0,0-1-.19,2,2,0,0,0-1.53.63,2.73,2.73,0,0,0-.61,1.81Z"/><path class="cls-1" d="M179.72,52.83a2.23,2.23,0,0,0-.76-.67,2.39,2.39,0,0,0-1.13-.25,2.28,2.28,0,0,0-1.09.24,2,2,0,0,0-.74.62,2.7,2.7,0,0,0-.42.94,4.79,4.79,0,0,0,0,2.3,2.59,2.59,0,0,0,.43,1,1.91,1.91,0,0,0,.74.64,2.36,2.36,0,0,0,1.11.24,2.23,2.23,0,0,0,.82-.14,2.7,2.7,0,0,0,.59-.3,2.39,2.39,0,0,0,.47-.44c.06,0,.13.13.22.22a.47.47,0,0,1,.13.28c0,.11-.09.25-.28.41a3.27,3.27,0,0,1-.76.46,3.24,3.24,0,0,1-1.29.23,4.37,4.37,0,0,1-1-.13,2.59,2.59,0,0,1-1.05-.52,3.15,3.15,0,0,1-.84-1.13,4.67,4.67,0,0,1-.34-1.93,4.75,4.75,0,0,1,.17-1.32,3.83,3.83,0,0,1,.44-1,2.67,2.67,0,0,1,.62-.67,3.91,3.91,0,0,1,.72-.43,3.35,3.35,0,0,1,.71-.21,3.68,3.68,0,0,1,.62-.07,3.24,3.24,0,0,1,1.26.22,3.15,3.15,0,0,1,.77.43.92.92,0,0,1,.22.24.59.59,0,0,1,0,.22.56.56,0,0,1-.07.26c-.05.1-.11.19-.17.29Z"/><path class="cls-1" d="M186.27,58.34V54.05q0-.3,0-.6a2.47,2.47,0,0,0-.11-.53c-.19-.64-.74-1-1.64-1a3.37,3.37,0,0,0-1.54.37,1.83,1.83,0,0,0-.51.35.57.57,0,0,0-.2.38v5.28h-.86V47.65l.1,0h.05l.21,0a.62.62,0,0,1,.24.1.73.73,0,0,1,.19.23.93.93,0,0,1,.07.4v3.75a3.34,3.34,0,0,1,1-.66,3.6,3.6,0,0,1,1.55-.31,3.18,3.18,0,0,1,.94.13,2.07,2.07,0,0,1,.66.35,1.69,1.69,0,0,1,.43.5,1.77,1.77,0,0,1,.22.56,4.55,4.55,0,0,1,.1.66c0,.22,0,.45,0,.68v4.29Z"/><path class="cls-1" d="M97.43,46.76a2.8,2.8,0,0,1-1,.71,4,4,0,0,0-1.18-1,3.25,3.25,0,0,0-1.63-.37,2.08,2.08,0,0,0-1.34.42,1.39,1.39,0,0,0-.57,1,1.56,1.56,0,0,0,.44,1.32,7.8,7.8,0,0,0,1.42,1.05,11.67,11.67,0,0,1,1.46,1,5,5,0,0,1,.92,1,2.84,2.84,0,0,1,.43,1,4.19,4.19,0,0,1,0,1.19,5.21,5.21,0,0,1-.55,2,4.58,4.58,0,0,1-1.19,1.43,5,5,0,0,1-1.72.87,7.08,7.08,0,0,1-2.11.29,8.49,8.49,0,0,1-2.34-.26,4.2,4.2,0,0,1-1.44-.66,2.2,2.2,0,0,1-.52-.56,1.1,1.1,0,0,1-.12-.69,1.83,1.83,0,0,1,.42-1,3.6,3.6,0,0,1,.85-.76,5,5,0,0,0,1.45,1.12,4.13,4.13,0,0,0,1.89.39,2.74,2.74,0,0,0,1-.16,2.29,2.29,0,0,0,.7-.42,1.83,1.83,0,0,0,.42-.59,1.93,1.93,0,0,0,.18-.64,2,2,0,0,0,0-.66,1.68,1.68,0,0,0-.32-.58,3,3,0,0,0-.63-.59,9.05,9.05,0,0,0-1-.67,6,6,0,0,1-2-1.76,3.73,3.73,0,0,1-.52-2.45A4.28,4.28,0,0,1,89.27,46a4.36,4.36,0,0,1,1.16-1.3,5.1,5.1,0,0,1,1.65-.82,6.72,6.72,0,0,1,2-.28,5.61,5.61,0,0,1,1.21.11,7.13,7.13,0,0,1,1,.26,4,4,0,0,1,.72.36,5.25,5.25,0,0,1,.48.34,1.24,1.24,0,0,1,.44,1.06A1.91,1.91,0,0,1,97.43,46.76Z"/><path class="cls-1" d="M101.57,59.52l-.84,1.42a5.91,5.91,0,0,1-.91,1.16,4.24,4.24,0,0,1-1.14.79,3.76,3.76,0,0,1-1.53.29A4.52,4.52,0,0,1,96,63.06a2.75,2.75,0,0,1-.72-.29,1.86,1.86,0,0,1-.57-.54,1,1,0,0,1-.14-.65,2,2,0,0,1,1.14-1.44,1.46,1.46,0,0,0,.65.61,1.71,1.71,0,0,0,.76.19,1.75,1.75,0,0,0,.68-.13,1.58,1.58,0,0,0,.54-.4,3.77,3.77,0,0,0,.5-.67,9.72,9.72,0,0,0,.54-1l.21-.39H99l-.73-10.08a4.38,4.38,0,0,1,1.58-.3,1.44,1.44,0,0,1,.73.16,1.14,1.14,0,0,1,.43.44,1.66,1.66,0,0,1,.21.65,6.12,6.12,0,0,1,.07.77l0,5.48L104,50a4.65,4.65,0,0,1,1-1.42,2,2,0,0,1,1.4-.54,3.84,3.84,0,0,1,.79.08,2.21,2.21,0,0,1,.59.22Z"/><path class="cls-1" d="M115.08,58.29h-2.91l1.54-6.08c.05-.16.08-.31.11-.45a3.41,3.41,0,0,0,.06-.43,1.41,1.41,0,0,0-.15-.84,1,1,0,0,0-.89-.35,1.72,1.72,0,0,0-1.26.58,3.3,3.3,0,0,0-.8,1.49l-1.54,6.08h-2.91l2.57-10.2A7.44,7.44,0,0,1,110,48a1.27,1.27,0,0,1,1.43,1.14,5.53,5.53,0,0,1,1.29-.95,3.77,3.77,0,0,1,1.82-.41,2.47,2.47,0,0,1,1.54.43,2.07,2.07,0,0,1,.74,1.1,4.13,4.13,0,0,1,.1,1.38c0,.26-.06.51-.11.77s-.11.5-.18.74Z"/><path class="cls-1" d="M120.39,54.49a2,2,0,0,0,.09.87,1.61,1.61,0,0,0,.35.6,1.33,1.33,0,0,0,.53.35,1.62,1.62,0,0,0,.61.12,2.82,2.82,0,0,0,1.54-.41,4.65,4.65,0,0,0,1.14-1c.7.38,1,.83,1,1.36a1.31,1.31,0,0,1-.33.78,3.76,3.76,0,0,1-.6.54,7.22,7.22,0,0,1-1.27.6,5.9,5.9,0,0,1-2,.28,4.59,4.59,0,0,1-2-.36,3,3,0,0,1-1.21-.94,3.31,3.31,0,0,1-.59-1.37,5.8,5.8,0,0,1-.08-1.62,8.34,8.34,0,0,1,.63-2.51,6.91,6.91,0,0,1,1.35-2.08,6.22,6.22,0,0,1,2-1.41,6.09,6.09,0,0,1,2.55-.53,3.58,3.58,0,0,1,1.32.22,2.58,2.58,0,0,1,.93.58,2.18,2.18,0,0,1,.53.86,2.92,2.92,0,0,1,.11,1.08,3.54,3.54,0,0,1-.71,1.95,4.47,4.47,0,0,1-1.46,1.17,6.39,6.39,0,0,1-1.84.59,12.32,12.32,0,0,1-1.85.15h-.39a2,2,0,0,1-.34,0Zm1.43-3.79a5,5,0,0,0-1.07,1.94l.33,0h.31a4.32,4.32,0,0,0,1-.11,3.61,3.61,0,0,0,.94-.33,2.31,2.31,0,0,0,.7-.56,1.39,1.39,0,0,0,.32-.79.91.91,0,0,0-.16-.63.84.84,0,0,0-.73-.27A2.21,2.21,0,0,0,121.82,50.7Z"/><path class="cls-1" d="M129.6,58.29h-2.9l2.57-10.2a7.3,7.3,0,0,1,1.08-.08,1.29,1.29,0,0,1,1.45,1.25,6.85,6.85,0,0,1,1.22-1,3,3,0,0,1,1.64-.43,1.85,1.85,0,0,1,.8.14,1.2,1.2,0,0,1,.48.35,1.13,1.13,0,0,1,.21.49,1.53,1.53,0,0,1,0,.52,1.86,1.86,0,0,1-.53,1.22,4.06,4.06,0,0,1-1.26.79,1.17,1.17,0,0,0-1.24-1.12,1.79,1.79,0,0,0-1.2.52,3,3,0,0,0-.83,1.57Z"/><path class="cls-1" d="M144,57.49a8.44,8.44,0,0,1-2.27,4.33A5.38,5.38,0,0,1,138,63.18a6.8,6.8,0,0,1-1.77-.2,3.06,3.06,0,0,1-1.28-.68,1.49,1.49,0,0,1-.4-.5,1.41,1.41,0,0,1-.11-.54,1.58,1.58,0,0,1,.33-.93,2.55,2.55,0,0,1,.83-.73,3.25,3.25,0,0,0,1,1,2.92,2.92,0,0,0,1.6.4,2.48,2.48,0,0,0,1.82-.7,4.1,4.1,0,0,0,1-2l.21-.88a3.85,3.85,0,0,1-1.28.84,3.92,3.92,0,0,1-1.49.3,3.27,3.27,0,0,1-1.46-.29,2.11,2.11,0,0,1-.87-.8,3,3,0,0,1-.41-1.22,6.59,6.59,0,0,1,0-1.55,7.88,7.88,0,0,1,.67-2.56,7.52,7.52,0,0,1,1.44-2.18,7,7,0,0,1,2.05-1.52,5.55,5.55,0,0,1,2.49-.57,7.41,7.41,0,0,1,2,.27,6.94,6.94,0,0,1,1.87.83Zm-1-7.28a1.74,1.74,0,0,0-1-.26,2.17,2.17,0,0,0-1.07.31,3.56,3.56,0,0,0-1,.9,5.9,5.9,0,0,0-.79,1.46,7.06,7.06,0,0,0-.43,2c-.1,1.14.26,1.7,1.08,1.7a1.71,1.71,0,0,0,.77-.18,2.14,2.14,0,0,0,.64-.49,3.41,3.41,0,0,0,.51-.7,3.47,3.47,0,0,0,.32-.85Z"/><path class="cls-1" d="M150.27,59.52c-.29.5-.56,1-.83,1.42a6.31,6.31,0,0,1-.91,1.16,4.13,4.13,0,0,1-1.15.79,3.71,3.71,0,0,1-1.52.29,4.66,4.66,0,0,1-1.15-.12,2.53,2.53,0,0,1-.71-.29,1.86,1.86,0,0,1-.57-.54,1,1,0,0,1-.15-.65,2.09,2.09,0,0,1,1.14-1.44,1.53,1.53,0,0,0,.66.61,1.67,1.67,0,0,0,.76.19,1.53,1.53,0,0,0,1.22-.53,4.32,4.32,0,0,0,.5-.67c.17-.26.34-.58.54-1l.2-.39h-.6L147,48.31a4.38,4.38,0,0,1,1.58-.3,1.41,1.41,0,0,1,.73.16,1.16,1.16,0,0,1,.44.44,2.07,2.07,0,0,1,.21.65A4.72,4.72,0,0,1,150,50l0,5.48L152.72,50a4.82,4.82,0,0,1,1-1.42,2,2,0,0,1,1.41-.54,3.84,3.84,0,0,1,.79.08,2.13,2.13,0,0,1,.58.22Z"/></svg>