<svg id="圖層_1" data-name="圖層 1" xmlns="http://www.w3.org/2000/svg" viewBox="0 0 260.44 70.43"><defs><style>.cls-1{fill:#fff;}</style></defs><title>TONE 行銷頁面元件</title><polygon class="cls-1" points="54.07 30.21 54.07 34.54 66.96 34.54 66.96 45.74 47.94 45.74 46.64 42.47 60.34 42.47 60.34 37.92 47.27 37.92 47.27 26.9 67.03 26.9 67.03 30.21 54.07 30.21"/><polygon class="cls-1" points="85.38 35.07 91.4 45.74 83.86 45.74 78.97 36.73 76.64 36.73 76.64 45.74 69.92 45.74 69.92 18.87 76.64 18.87 76.64 33.41 79 33.41 83.86 26.9 91.51 26.9 85.38 35.07"/><polygon class="cls-1" points="103.3 53.04 94.07 53.04 92.73 49.76 97.81 49.76 99.71 45.57 92 26.9 99.04 26.9 103.27 37.18 107.74 26.9 114.68 26.9 103.3 53.04"/><polygon class="cls-1" points="137.22 45.71 137.22 30.28 133.2 30.28 133.2 45.71 126.69 45.71 126.69 30.28 122.67 30.28 122.67 45.71 116.22 45.71 116.22 26.9 122.67 26.9 122.67 29.68 124.5 26.9 133.2 26.9 133.2 29.68 135.28 26.9 143.73 26.9 143.73 45.71 137.22 45.71"/><path class="cls-1" d="M147.81,18.87h6.73v5.84h-6.73Zm0,8h6.73V45.74h-6.73Z"/><polygon class="cls-1" points="177.43 45.75 158.55 45.75 158.55 42.18 170 30.35 158.55 30.35 158.55 26.93 178.2 26.93 178.2 30.7 167.22 42.36 179.26 42.36 177.43 45.75"/><path class="cls-1" d="M200.36,45.74H181.3V26.9H201V38.56H190l-1.94-2.86v6.73h13.7Zm-6.13-15.43h-6.17v4.83h6.17Z"/><polygon class="cls-1" points="210.92 30.28 210.92 45.75 204.01 45.75 204.01 26.9 210.92 26.9 210.92 29.68 212.99 26.9 219.69 26.9 219.69 30.28 210.92 30.28"/></svg>