<svg id="圖層_1" data-name="圖層 1" xmlns="http://www.w3.org/2000/svg" viewBox="0 0 260.44 70.43"><defs><style>.cls-1{fill:#fff;}</style></defs><title>TONE 行銷頁面元件</title><path class="cls-1" d="M59.46,39.55a.73.73,0,1,1-.74-.74.73.73,0,0,1,.74.74Z"/><path class="cls-1" d="M76.78,16.66H43.37a2,2,0,0,0-2,1.93V52a2,2,0,0,0,1.94,2l14.13,0V46.83a2,2,0,0,0-2-2H47.89c2.41-6,9.67-7.37,9.67-7.37.62-.14,1.27-.23,1.27-.23a18.31,18.31,0,0,1,3.79-.05V54H76.78a2,2,0,0,0,1.93-2V18.59A2,2,0,0,0,76.78,16.66Zm0,34.74a.64.64,0,0,1-.63.63H64.87V36.52a16.33,16.33,0,0,0,10.48-15.6v0H73V21a14.07,14.07,0,0,1-8.13,13V31.34a11.87,11.87,0,0,0,5.8-10.42H68.32a9.78,9.78,0,0,1-3.45,7.61V20.89H62.55l0,13.85A10.56,10.56,0,0,1,60,35a10.92,10.92,0,0,1-2.49-.27V20.89H55.21v7.66a9.8,9.8,0,0,1-3.47-7.66H49.38a12,12,0,0,0,5.83,10.48V34a14,14,0,0,1-8.15-13v-.11H44.73v0a16.47,16.47,0,0,0,9.72,15.32s-5.67,2.08-7.91,6.84c0,0-1.26,2.33.85,3.64,0,0,.13.14.82.14h7V52H43.91a.63.63,0,0,1-.6-.63V19.17a.63.63,0,0,1,.6-.63H76.15a.64.64,0,0,1,.63.63Z"/><path class="cls-1" d="M96.39,51.42a1,1,0,0,1-1,.85h0a.93.93,0,0,1-1-.85h0V39.77H87.89a1,1,0,0,1-1-.88h0a1,1,0,0,1,1-.88h14.63a1,1,0,0,1,1,.88h0a1,1,0,0,1-1,.88H96.39V51.42Z"/><path class="cls-1" d="M117,38.89a1,1,0,0,0-1-.88h0a1,1,0,0,0-1,.88h0V51.42h0a1,1,0,0,0,1,.85h0a1,1,0,0,0,1-.85h0V38.89Z"/><path class="cls-1" d="M156.46,38.89a1,1,0,0,0-1-.88h0a1,1,0,0,0-1,.88h0V51.42h0a1,1,0,0,0,1,.85h0a1,1,0,0,0,1-.85h0V38.89Z"/><path class="cls-1" d="M151.93,38a.88.88,0,1,1,0,1.74H138.47v4.5h13.46a.88.88,0,1,1,0,1.74H138.47v4.53h13.46a.88.88,0,1,1,0,1.73H137.66a1.13,1.13,0,0,1-1.21-1h0V39.07h0a1.14,1.14,0,0,1,1.21-1h14.27Z"/><path class="cls-1" d="M105.66,38a1.1,1.1,0,0,1,1,.49h0L113.84,51h0a.83.83,0,0,1-.49,1.17h0a1.19,1.19,0,0,1-1.4-.39h0l-1.32-2.33h-5V47.72h3.93l-3.93-6.87Zm-5,11.47-1.35,2.3h0A1.12,1.12,0,0,1,98,52.2h0l0,0h0A.82.82,0,0,1,97.47,51h0L104.7,38.5h0a1.08,1.08,0,0,1,1-.49h0v2.84h0l-4,6.87h4v1.76Z"/><path class="cls-1" d="M177.73,39.79l-12,0h0a1,1,0,0,1-1-.86h0a1,1,0,0,1,1-.88h14.45a1.11,1.11,0,0,1,.73.26h0a.8.8,0,0,1,0,1.22h0l-12.77,11h12a1,1,0,0,1,1,.88h0a1,1,0,0,1-1,.85H165.76a.94.94,0,0,1-1-.85h0a.72.72,0,0,1,.2-.52h0l12.8-11.11Z"/><path class="cls-1" d="M126.5,38h7.05a1.17,1.17,0,0,1,1.24,1h0l0,9.37h0a1.14,1.14,0,0,1-1.21,1H126.5V47.72h6.19V39.77H126.5Zm-6.16,11.45v1.94h0a1,1,0,0,1-1,.85h0a1,1,0,0,1-1-.85h0V39.07h0a1.17,1.17,0,0,1,1.25-1h7v1.74h-6.16v7.95h6.16v1.76Z"/><path class="cls-1" d="M199.4,50.18a2.31,2.31,0,0,1-2.49,2.09h-5.8V50.51h5.75a.39.39,0,0,0,.42-.33h0v-10h0a.39.39,0,0,0-.42-.36h-5.75V38h5.8a2.32,2.32,0,0,1,2.49,2.09h0V50.18Zm-8.29,2.09h-5.77a2.32,2.32,0,0,1-2.49-2.09h0V40.1h0A2.33,2.33,0,0,1,185.34,38h5.77v1.76h-5.77a.39.39,0,0,0-.42.36h0v10h0a.39.39,0,0,0,.42.33h5.77Z"/><path class="cls-1" d="M217.55,50.18a2.31,2.31,0,0,1-2.48,2.09h-5.8V50.51H215a.38.38,0,0,0,.42-.33h0v-10h0a.38.38,0,0,0-.42-.36h-5.74V38h5.8a2.32,2.32,0,0,1,2.48,2.09h0V50.18Zm-8.28,2.09h-5.78A2.32,2.32,0,0,1,201,50.18h0V40.1h0A2.33,2.33,0,0,1,203.49,38h5.78v1.76h-5.75a.38.38,0,0,0-.42.36h0v10h0a.38.38,0,0,0,.42.33h5.75Z"/><path class="cls-1" d="M217.91,32.7a1.22,1.22,0,0,1-1.24,1.24h-5.9V32.77h1.65l-1.65-1.52V29.3h3.55A.64.64,0,0,1,215,30h0a.63.63,0,0,1-.64.62h-1.53l2.17,2.2h.42V20.06h-4.61V18.79h5.9a1.25,1.25,0,0,1,1.24,1.27h0V32.7Zm-7.14-4.22h2.69a.63.63,0,0,0,.62-.63h0V25.76h0a.63.63,0,0,0-.62-.65h-2.69v1.27h.77v.8h-.77v1.3Zm0-4.2h3.52a.64.64,0,0,0,.65-.65h0a.64.64,0,0,0-.65-.62h-3.52v1.27Zm0-2.12h3.11a.62.62,0,0,0,.64-.62h0a.64.64,0,0,0-.64-.63h-3.11Zm0,11.78h-5.85V32.77h1.65v-2.2h0a8.13,8.13,0,0,1-1.65,1.35v-3a2.41,2.41,0,0,1,.18-.31h0c.15-.26-.08-.28-.08-.28h-.1V25.16a.53.53,0,0,1,.2-.05h5.65v1.27H207v.8h3.76v1.3h-1.66v.82h1.66v1.95l-.49-.44h0a1,1,0,0,0-.76-.24h0c-.44,0-.41.5-.41.5h0v1.7h1.66v1.17Zm-5.85-15.15h5.85v1.27h-.18v.85h.18v1.25h-.18V23h.18v1.27h-5.85V23H208v-.85h-3.1V20.91H208v-.85h-3.1Zm0,15.15h-3a1.25,1.25,0,0,1-1.27-1.24h0V20.06h0A1.27,1.27,0,0,1,202,18.79h3v1.27h-1.69V30.57h0a5.07,5.07,0,0,0,1.69-1.63v3a13.4,13.4,0,0,1-1.69.85h1.69v1.17Zm0-13h-.21a.64.64,0,0,0-.65.63h0a.62.62,0,0,0,.65.62h.21V20.91Zm0,2.1h-.65a.63.63,0,0,0-.62.62h0a.63.63,0,0,0,.62.65h.65V23Zm0,2.15a.62.62,0,0,0-.44.6h0v2.09h0a.51.51,0,0,0,.2.45l.24.05Z"/><path class="cls-1" d="M182.1,19.44a.65.65,0,0,1,.65-.65h0a.64.64,0,0,1,.62.65h0l-.31,2.2h1.24l0-2.2h0a.62.62,0,0,1,.62-.65h1.27a.64.64,0,0,1,.62.65h0v2.2h.21a.63.63,0,0,1,.64.65h0a.63.63,0,0,1-.64.62h-.21v3.52l.83-.44h0a.61.61,0,0,1,.85.26h0a.61.61,0,0,1-.26.85h0l-1.42.78v5.44h0a.62.62,0,0,1-.62.62H185a.61.61,0,0,1-.62-.62h0V29.25l-1.61.86h0a.62.62,0,0,1-.85-.24h0a.61.61,0,0,1,.26-.85h0l2.2-1.22,0-4.89h-1.89a.64.64,0,0,1-.62-.62h0l.31-2.85Z"/><path class="cls-1" d="M195.31,22.16c0,1,.13,11.47-1.4,11.78h-2.1c-.13,0,.05-.36.05-.36,1.12-1.92,1-10.52,1-11.42h-1c0,1,.16,11.47-1.37,11.78h-2.12c-.13,0,.07-.36.07-.36,1.09-1.92,1-10.52,1-11.42h-1.27l.41-2.72h0a.64.64,0,0,1,.62-.65h1.27a.64.64,0,0,1,.63.65h0l-.24,1.47h6.94A1.27,1.27,0,0,1,199,22.16h0V32.7h0a1.25,1.25,0,0,1-1.27,1.24h-2.33a.63.63,0,0,1-.62-.62h0a.64.64,0,0,1,.62-.65h1.06V22.16Z"/><path class="cls-1" d="M169.52,19.31l1.83-.18h0a.65.65,0,0,1,.7.57h0a.67.67,0,0,1-.57.7h0l-2,.18V19.31Zm0,2.23h2.53a.63.63,0,0,1,.65.64h0a.64.64,0,0,1-.65.63h-2.53V21.54Zm0,2.43h1.91a1.25,1.25,0,0,1,1.25,1.27h0v3h0a1.23,1.23,0,0,1-1.25,1.24h0l-1.91,0V28.17h.62v-.88h-.62V26h.62v-.8h-.62V24Zm0,6.42h1.89A.62.62,0,0,1,172,31h0a.6.6,0,0,1-.62.63h-1.89V30.39Zm0,2.28H172a.64.64,0,0,1,.65.62h0a.64.64,0,0,1-.65.65h-2.51Zm-3.14,0v-1h-.62V30.39h.62v-1h-.62V28.19h.62v-.9h-.62V26h.62v-.8h-.62V24h.62V22.81h-.62V21.54h.62v-.63l-.62.08V19.72l3.76-.41v1.27l-.6.08v.88h.6v1.27h-.6V24h.6v1.27h-.6V26h.6v1.25h-.6v.88h.6v1.29h-.6v.93h.6v1.25h-.6v1h.6v1.27h-3.76V32.67Zm-.62-1h-1.89a.63.63,0,0,1-.65-.63h0a.64.64,0,0,1,.65-.62h1.89v1.25Zm0-2.21h-1.89a1.25,1.25,0,0,1-1.27-1.24h0v-3h0A1.27,1.27,0,0,1,163.87,24h1.89v1.27h-.62V26h.62v1.25h-.62v.9h.62v1.24Zm0-6.62h-2.51a.64.64,0,0,1-.65-.63h0a.64.64,0,0,1,.65-.64h2.51v1.27Zm0-1.82-1.79.18h0a.64.64,0,0,1-.69-.57h0a.61.61,0,0,1,.57-.67h0l1.91-.21V21Zm0,13h-2.51a.64.64,0,0,1-.65-.65h0a.64.64,0,0,1,.65-.62h2.51Z"/><path class="cls-1" d="M176.66,19.18a.48.48,0,0,1,.05.26h0v2.1h1.87a1.27,1.27,0,0,1,1.27,1.27h0V32.7h0a1.25,1.25,0,0,1-1.27,1.24h-1.92V32.67h.65V22.83l-.6,0h0c0,.82,0,2.27-.05,3.85Zm-.9,14.37a.79.79,0,0,1-.44.39h-2.1c-.13,0,0-.44,0-.44,1.22-2.23,1.14-8.55,1.09-10.69h0l-1,0h0a.66.66,0,0,1-.62-.65h0a.63.63,0,0,1,.62-.64h1v-2.1h0a.62.62,0,0,1,.62-.62h1.19a.59.59,0,0,1,.57.36v7.48a32,32,0,0,1-.59,6h0l0,0h0a.57.57,0,0,1,.31-.08h.31v1.27h-.31a.62.62,0,0,1-.59-.36h0v0Z"/><path class="cls-1" d="M160.48,20.89a.63.63,0,0,1,.62.65h0a.63.63,0,0,1-.62.62H159l-1.87,10.51h3.37a.63.63,0,0,1,.62.62h0v0h0a.62.62,0,0,1-.62.62h-8V32.67h2.07l1.86-10.51h-3.93V18.82h.64a.63.63,0,0,1,.63.62h0v1.45Zm-8,13h-8a.62.62,0,0,1-.62-.62h0v0h0a.63.63,0,0,1,.62-.62h3.34L146,22.16H144.5a.63.63,0,0,1-.62-.62h0a.63.63,0,0,1,.62-.65h6.71V19.44h0a.62.62,0,0,1,.62-.62h.65v3.34h-3.94l1.87,10.51h2.07Z"/><path class="cls-1" d="M122.77,33.94a.61.61,0,0,0,.63-.62h0v0h0a.62.62,0,0,0-.63-.62h-4.84V25.19l5-1.5h0a.65.65,0,0,0,.44-.78h0l0,0h0a.63.63,0,0,0-.78-.44h0l-4.66,1.4v-4.4h0a.64.64,0,0,0-.62-.65H116a.64.64,0,0,0-.62.65h0V32.7h0a1.25,1.25,0,0,0,1.27,1.24h6.08Z"/><path class="cls-1" d="M107.24,24.28a.61.61,0,0,1-.62-.65h0a.61.61,0,0,1,.62-.62h4.37V19.44h0a.64.64,0,0,1,.63-.65h1.29a.64.64,0,0,1,.62.65h0V32.7h0a1.25,1.25,0,0,1-1.27,1.24h-6.06a.63.63,0,0,1-.64-.62h0v0h0a.63.63,0,0,1,.64-.62h4.79V24.28Z"/><path class="cls-1" d="M136.81,32.67a.64.64,0,0,1-.65-.65h0v0h0a.64.64,0,0,1,.65-.62h3.06v-6.3h-4.82v8.24h0a.63.63,0,0,1-.62.62h-1.3a.63.63,0,0,1-.62-.62h0V25.08h-4.79V32h0a.64.64,0,0,1-.65.65H125.8a.63.63,0,0,1-.64-.65h0V25.08h0a1.26,1.26,0,0,1,1.27-1.26h6.08V22.16H125.8a.64.64,0,0,1-.64-.65h0a.63.63,0,0,1,.64-.62h6.71V19.44h0a.63.63,0,0,1,.62-.62h1.3a.63.63,0,0,1,.62.62h0v1.45h6.73a.62.62,0,0,1,.62.62h0a.64.64,0,0,1-.62.65h-6.73v1.66h6.11a1.24,1.24,0,0,1,1.24,1.26h0V31.4h0a1.25,1.25,0,0,1-1.24,1.27h-4.35Z"/><path class="cls-1" d="M103.59,19.28a.23.23,0,0,1,.2.24v.72a.23.23,0,0,1-.2.23V19.28Zm0,14.09V32.08h0l0,0h.31a.05.05,0,0,1,0,.05v1.19a0,0,0,0,1,0,.05h-.18v0Zm0-6.27V25.52h.28a.16.16,0,0,1,.18.16V27a.17.17,0,0,1-.18.15h-.28Zm0-7.82h0v1.19h0V19.28Zm0,6.24V27.1h0V25.52Zm0,6.56h0v1.29h0V32.08Zm0-12.8h0v1.19h0V19.28Zm0,6.24V27.1h0V25.52Zm0,6.56h0v1.29h0V32.08h0Zm0,0Zm0-12.8h0v1.19h0V19.28Zm0,6.24V27.1m0,5Zm0,0h0v1.29h0V32.08Zm0-5V25.52h0m0,6.56Zm0,0Zm0-12.8h0v1.19h0V19.28Zm0,6.24V27.1h0V25.52Zm0,6.56h0v1.29h0V32.08Zm0,0Zm0-12.8h0v1.19h0V19.28Zm0,6.24V27.1h0V25.52Zm0,6.56h0v1.29h0V32.08ZM103,20.5H96.7V21H103c.18,0,.31.11.31.24v.69c0,.13-.13.24-.31.24H95.45V18.82h.86c.18,0,.36.08.39.2h0v.24H103l0,0a.11.11,0,0,1,.08,0h.46a.12.12,0,0,1,.08,0v1.19H103v0Zm.52,5V27.1h-.65v1.07c0,.1-.07.15-.2.15H95.45V27.1H102a.08.08,0,0,0,0,0v-.36a.07.07,0,0,0,0,0H95.45V25.52Zm0,6.56v0h0v1.27H95.45V28.89h4.2c.16,0,.23,0,.23-.05l-.07-.39h2l0,.36a.12.12,0,0,1,0,.08v.54c0,.39-.44.57-1.35.57h-4v.42H103c.08,0,.13,0,.13.1v1c0,.07-.05.1-.13.1h-.08v0H96.57v.44Zm-8.11-6.94v-1h5.39c.1,0,.16,0,.16-.1v-.6c0-.08-.06-.13-.16-.13H95.45v-.85h7.44a.38.38,0,0,1,.41.34v2a.38.38,0,0,1-.41.34Zm0-3H88.39V21h5.87V20.5H88.39V19.26h5.87V19h0c0-.12.21-.2.39-.2h.77v3.34Zm0,.31v.85h-5.3c-.11,0-.16.05-.16.13v.6c0,.05.05.1.16.1h5.3v1H88.39V22.47Zm0,3.05v1.17H88.9s-.05,0-.05,0v.36l.05,0h6.55v1.22H91.73l-.7.57h4.42v4.48H88.39V32.08h5.82v-.44H88.39V30.42h5.82V30h-5.7v0h-.12V28.89l.67-.57h-.67v-.08h0V25.52Zm-7.06,2.72Zm0-6.08h0V21h0v1.17Zm0-1.66h0V19.26h0V20.5Zm0,2v2.67h0V22.47Zm0,3.05v2.72h0v.08h0v-.08h0V25.52Zm0,3.37V30h0V28.89Zm0,1.53v1.22h0V30.42Zm0,1.66v1.29h0V32.08Zm0-9.92h0V21h0v1.17Zm0-1.66h0V19.26h0V20.5Zm0,2v2.67h0V22.47Zm0,3.05v2.72h0v.08h0v-.08h0V25.52Zm0,3.37V30h0V28.89Zm0,1.53v1.22h0V30.42Zm0,1.66v1.29h0V32.08Zm0-9.92h0V21h0v1.17Zm0-1.66h0V19.26h0V20.5Zm0,2v2.67h0V22.47Zm0,3.05v2.72h0v.08h0v-2.8Zm0,3.37V30h0V28.89Zm0,1.53v1.22h0V30.42Zm0,1.66v1.29h0V32.08Zm0-9.92h0V21h0v1.17Zm0-1.66h0V19.26h0V20.5Zm0,2v2.67h0V22.47Zm0,3.05v2.75h0v.05h0v-.05h0V25.52Zm0,3.37V30h0V28.89Zm0,1.53v1.22h0V30.42Zm0,1.66v1.29h0V32.08Zm0-9.92h0V21h0v1.17Zm0-1.66h0V19.26h0V20.5Zm0,2v2.67h0V22.47Zm0,3.05v2.75h0v.05h0v-.05h0V25.52Zm0,3.37V30h0V28.89Zm0,1.53v1.22h0V30.42Zm0,1.66v1.29h0V32.08Zm0-9.92h0V21h0v1.17Zm0-1.66h0V19.26h0V20.5Zm0,2v2.67h0V22.47Zm0,3.05v2.75h0v.05h0v-.05h0V25.52Zm0,3.37V30h0V28.89Zm0,1.53v1.22h0V30.42Zm0,1.66v1.29h0V32.08Zm0-9.92h0V21h0v1.17Zm0-1.66h0V19.26h0V20.5Zm0,2v2.67h0V22.47Zm0,3.05v2.75h0v.05h0v0h0V25.52Zm0,3.37V30h0V28.92l0,0Zm0,1.53v1.22h0V30.42Zm0,1.66v1.29h0V32.08Zm0-9.92h0V21h0v1.17Zm0-1.66h0V19.26h0V20.5Zm0,2v2.67h0V22.47Zm0,3.05V28.3h0v0h0s0,0,0,0,0,0,0,0v-2.8Zm0,3.4V30s0,0,0,0v-1Zm0,1.5v1.22h0V30.42Zm0,1.66v1.29h0V32.08Zm0-9.92h0V21h0v1.17Zm0-1.66h0V19.26h0V20.5Zm0,2v2.67h0V22.47Zm0,3.05v2.8h0v-2.8Zm0,3.4v0Zm0,1.5v1.22h0V30.42Zm0,1.66v1.29h0V32.08Zm0-9.92H88.1V21h.23v1.17Zm0-1.66H88.1V19.26h.23V20.5Zm0,2v2.67H88.1V22.47Zm0,3.05v2.8H88.1v-.57h0V25.52Zm0,3.42v.88h0v-.88Zm0,1.48v1.22H88.1V30.42Zm0,1.66v1.29H88.1V32.08Zm-.23-9.92h0V21h0v1.17Zm0-1.66h0V19.26h0V20.5Zm0,2v2.67h0V22.47Zm0,3.05v2.23h0v.57h0v-.57h0V25.52Zm0,4.9v1.22h0V30.42Zm0,1.66v1.29h0V32.08Zm0-9.92h0V21h0v1.17Zm0-1.66h0V19.26h0V20.5Zm0,2v2.67h0V22.47Zm0,3.05v2.23h0v.57h0v-.57h0V25.52Zm0,4.9v1.22h0V30.42Zm0,1.66v1.29h0V32.08Zm0-9.92h0V21h0v1.17Zm0-1.66h0V19.26h0V20.5Zm0,2v2.67h0V22.47Zm0,3.05v2.23h0v.57h0v-.57h0V25.52Zm0,4.9v1.22h0V30.42Zm0,1.66v1.29h0V32.08Zm0-4.33Zm0-5.59h0V21h0v1.17Zm0-1.66h0V19.26h0V20.5Zm0,2v2.67h0V22.47Zm0,3.05v2.23h0v.57h0v-.57h0V25.52Zm0,4.9v1.22h0V30.42Zm0,1.66v1.29h0V32.08Zm0-9.92h0V21h0v1.17Zm0-1.66h0V19.26h0V20.5Zm0,2v2.67h0V22.47Zm0,3.05v2.23h0v.57h0v-.57h0V25.52Zm0,4.9v1.22h0V30.42Zm0,1.66v1.29h0V32.08Zm0-4.33Zm0-5.59h0V21h0v1.17Zm0-1.66h0V19.26h0V20.5Zm0,2v2.67h0V22.47Zm0,3.05v2.23h0V25.52Zm0,4.9v1.22h0V30.42Zm0,1.66v1.29h0V32.08Zm0-9.92h0V21h0v1.17Zm0-1.66h0V19.26h0V20.5Zm0,2v2.67h0V22.47Zm0,3.05v2.26h0v.52h0v-.52h0V25.52Zm0,4.9v1.22h0V30.42Zm0,1.66v1.29h0V32.08Zm0-9.92h0V21h0v1.17Zm0-1.66h0V19.26h0V20.5Zm0,2v2.67h0V22.47Zm0,3.05v2.26h0v.52h0v-.52h0V25.52Zm0,4.9v1.22h0V30.42Zm0,1.66v1.29h0V32.08Zm0-9.92h0V21h0v1.17Zm0-1.66h0V19.26h0V20.5Zm0,2v2.67h0V22.47Zm0,3.05v2.26h0v0h0V25.52Zm0,4.9v1.22h0V30.42Zm0,1.66v1.29h0V32.08Zm0-9.92h-.15a.27.27,0,0,1-.29-.24v-.69a.27.27,0,0,1,.29-.24H88v1.17Zm0-1.66h-.41v0h0V19.28h0v0H88V20.5Zm0,2v2.67a.4.4,0,0,1-.36-.34v-2a.39.39,0,0,1,.36-.34Zm0,3.05V27.8h0v.47s0,0,0,0v-.41s0,0,0,0v-.7h-.46V25.52H88Zm0,4.9v1.22h-.1v0c-.08,0-.13,0-.13-.1v-1c0-.05,0-.1.13-.1H88Zm0,1.66v1.29h-.46V32.18h0v-.1Zm-.46.1ZM88,27.8Zm-.46-7.33h0V19.28h0v1.19Zm0,5.05V27.1h0V25.52Zm0,6.56v.1h0v1.19h0V32.18h0v-.1Zm0-11.61h0V19.28h0v1.19Zm0,5.05V27.1h0V25.52Zm0,6.56v.1h0v1.19h0V32.08Zm0-11.61h0V19.28h0v1.19Zm0,5.05V27.1h0V25.52Zm0,6.56v.07h0v1.22h0V32.08Zm0-11.61h0V19.28h0v1.19Zm0,5.05V27.1h0V25.52h0Zm0,6.56v.05h0v1.24h0V32.08Zm0-11.61h0V19.28h0v1.19Zm0,5.05V27.1h0V25.52Zm0,6.56v0s0,0,0,0,0,0,0,0v1.27h0V32.08h0Zm0-11.61h0a.26.26,0,0,1-.29-.23v-.72a.27.27,0,0,1,.29-.24h0v1.19Zm0,5.05V27.1h-.24a.17.17,0,0,1-.18-.15V25.68a.16.16,0,0,1,.18-.16Zm0,6.56h0v1.29h-.32v0h0c-.07,0-.15-.05-.15-.1V32.18a.17.17,0,0,1,.15-.13h.24s0,0,0,0Z"/></svg>