<svg id="圖層_1" data-name="圖層 1" xmlns="http://www.w3.org/2000/svg" viewBox="0 0 1470.17 102.97"><defs><style>.cls-1{fill:none;stroke:#fff;stroke-linejoin:round;stroke-width:3.04px;opacity:0.5;}</style></defs><title>TONE 行銷頁面元件</title><path class="cls-1" d="M1470.17,47.8H1276.88a3.83,3.83,0,0,1-3.41-2.11l-8.2-16.4a3.81,3.81,0,0,0-7,.53l-12.1,37.41a3.81,3.81,0,0,1-7.34-.34l-14-62.4a3.81,3.81,0,0,0-7.45.08l-19,93.83a3.81,3.81,0,0,1-7.44.14l-13.39-55.31a3.81,3.81,0,0,0-7.21-.6l-10.91,25.69a3.81,3.81,0,0,1-7,0l-7.51-18.14a3.8,3.8,0,0,0-3.52-2.35H0"/></svg>