<svg xmlns="http://www.w3.org/2000/svg" xmlns:xlink="http://www.w3.org/1999/xlink" viewBox="0 0 1440 530.92"><defs><style>.cls-1{fill:url(#未命名漸層_17);}.cls-2{fill:url(#未命名漸層_17-2);}.cls-3{opacity:0.12;}.cls-4{fill:#fff;}</style><linearGradient id="未命名漸層_17" x1="11.39" y1="265.46" x2="1451.39" y2="265.46" gradientUnits="userSpaceOnUse"><stop offset="0" stop-color="#fd958c"/><stop offset="1" stop-color="#fd5b80"/></linearGradient><linearGradient id="未命名漸層_17-2" x1="-288.89" y1="383.07" x2="1151.11" y2="383.07" xlink:href="#未命名漸層_17"/></defs><title>TONE 頁面尺寸</title><g id="圖層_1" data-name="圖層 1"><polygon class="cls-1" points="1440 530.92 1440 0 0 176.89 0 530.92 1440 530.92"/><path class="cls-2" d="M1070.29,238.42c-191.09,12.82-378.16,59.11-567.42,88.42C336.35,352.62,164,364.87,0,330V530.92H1440V270C1321.28,237,1193.9,230.13,1070.29,238.42Z"/><g class="cls-3"><path class="cls-4" d="M759.21,323.07h-35V199.2h-51.4V170.8H810.61v28.4h-51.4Z"/><path class="cls-4" d="M903.64,327.32c-39.23,0-76.52-26.47-76.52-80.39s37.29-80.38,76.52-80.38c38.83,0,76.51,26.08,76.51,80.38S942.47,327.32,903.64,327.32Zm-39.33-80.39c0,41.38,24.61,49.57,39.33,49.57,13,0,39.32-6.52,39.32-49.57,0-42.49-25.72-49.57-39.32-49.57C890.22,197.36,864.31,204.44,864.31,246.93Z"/><path class="cls-4" d="M1116.12,323.07,1039.21,219.5l1.16,103.57h-34.2V170.8h33l76.91,103.57L1115,170.8h34.2V323.07Z"/><path class="cls-4" d="M1308.74,295.82v27.25H1183.91V170.8h122.32V198h-87.54v34.21H1296v26.09h-77.29v37.48Z"/></g></g></svg>