<svg xmlns="http://www.w3.org/2000/svg" viewBox="0 0 542.34 137.12"><defs><style>.cls-1{fill:#f7f9fb;}</style></defs><title>fade-tone</title><g id="Layer_2" data-name="Layer 2"><g id="圖層_1" data-name="圖層 1"><path class="cls-1" d="M73.67,133.49H43.84V27.85H0V3.62H117.5V27.85H73.67Z"/><path class="cls-1" d="M196.84,137.12c-33.46,0-65.26-22.58-65.26-68.56S163.38,0,196.84,0C230,0,262.1,22.25,262.1,68.56S230,137.12,196.84,137.12ZM163.31,68.56c0,35.28,21,42.28,33.53,42.28,11.13,0,33.54-5.57,33.54-42.28,0-36.24-21.94-42.28-33.54-42.28C185.4,26.28,163.31,32.32,163.31,68.56Z"/><path class="cls-1" d="M378.06,133.49,312.47,45.16l1,88.33H284.29V3.62h28.18L378.06,92l-1-88.34h29.17V133.49Z"/><path class="cls-1" d="M542.34,110.25v23.24H435.88V3.62H540.2V26.86H465.54V56h65.92V78.28H465.54v32Z"/></g></g></svg>