<svg id="圖層_1" data-name="圖層 1" xmlns="http://www.w3.org/2000/svg" viewBox="0 0 365.16 60.62"><defs><style>.cls-1{fill:#6e849b;}</style></defs><title>TONE 行銷頁面元件</title><path class="cls-1" d="M28.1,50.93H16.72V10.62H0V1.38H44.83v9.24H28.1Z"/><path class="cls-1" d="M75.09,52.31c-12.76,0-24.89-8.61-24.89-26.16S62.33,0,75.09,0,100,8.49,100,26.15,87.73,52.31,75.09,52.31ZM62.3,26.15c0,13.47,8,16.13,12.79,16.13,4.25,0,12.8-2.12,12.8-16.13C87.89,12.33,79.52,10,75.09,10S62.3,12.33,62.3,26.15Z"/><path class="cls-1" d="M144.23,50.93l-25-33.7.38,33.7H108.46V1.38H119.2l25,33.7-.38-33.7H155V50.93Z"/><path class="cls-1" d="M206.9,42.06v8.87H166.28V1.38h39.8v8.87H177.6V21.38h25.15v8.48H177.6v12.2Z"/><path class="cls-1" d="M243.58,47.43a11.18,11.18,0,0,1-3.5,3.15,9.42,9.42,0,0,1-4.68,1.11,10.19,10.19,0,0,1-4.65-1A9,9,0,0,1,227.51,48a11.77,11.77,0,0,1-1.89-4.09,20,20,0,0,1-.62-5.06,18.15,18.15,0,0,1,.76-5.46,12.13,12.13,0,0,1,2.15-4.14,9.11,9.11,0,0,1,3.4-2.59,11,11,0,0,1,4.56-.9,10.7,10.7,0,0,1,3.93.78,8.9,8.9,0,0,1,3.68,2.95V17.18h4.12V50.93h-4Zm0-9.45a13.08,13.08,0,0,0-.64-4.56,6.46,6.46,0,0,0-2.11-2.77,6.36,6.36,0,0,0-2.1-1.18,7.88,7.88,0,0,0-2.34-.33,7.43,7.43,0,0,0-2.81.52,5.69,5.69,0,0,0-2.27,1.68,8.11,8.11,0,0,0-1.51,3,15.27,15.27,0,0,0-.55,4.42,15.21,15.21,0,0,0,.59,4.54,8.35,8.35,0,0,0,1.56,2.93,5.8,5.8,0,0,0,2.18,1.56,6.82,6.82,0,0,0,2.48.47,8.51,8.51,0,0,0,2.46-.33,6.93,6.93,0,0,0,4.32-4,10.94,10.94,0,0,0,.74-4.31Z"/><path class="cls-1" d="M275.11,44.08A8.85,8.85,0,0,1,272,49.66q-2.54,2-7.26,2-5.58,0-8.56-3.38t-3-9.43a17.12,17.12,0,0,1,.86-5.63,11.35,11.35,0,0,1,2.38-4.11,10.45,10.45,0,0,1,3.67-2.53,13.19,13.19,0,0,1,9.5,0,8.78,8.78,0,0,1,3.33,2.48,10.52,10.52,0,0,1,1.94,3.75,17.21,17.21,0,0,1,.64,4.78v2.08H257.34a11.47,11.47,0,0,0,.49,3.43,8.47,8.47,0,0,0,1.42,2.74,6.49,6.49,0,0,0,2.29,1.82,7.24,7.24,0,0,0,3.17.66,7,7,0,0,0,4.49-1.16,5.82,5.82,0,0,0,1.94-3.14Zm-3.74-7.42a12.37,12.37,0,0,0-.37-3.17,6.7,6.7,0,0,0-1.19-2.44,5.36,5.36,0,0,0-2.08-1.58,7.48,7.48,0,0,0-3.07-.57,6.56,6.56,0,0,0-5.08,2,9.56,9.56,0,0,0-2.15,5.77Z"/><path class="cls-1" d="M283.57,43.79a4.73,4.73,0,0,0,2.15,3.57,9.25,9.25,0,0,0,4.71,1c2.07,0,3.55-.35,4.41-1.06a3.45,3.45,0,0,0,1.3-2.82,5.29,5.29,0,0,0-.16-1.34,2.5,2.5,0,0,0-.64-1.14,4.09,4.09,0,0,0-1.32-.87,9.88,9.88,0,0,0-2.22-.62l-3.12-.47a22.54,22.54,0,0,1-3.64-.85,9,9,0,0,1-2.65-1.35,5.16,5.16,0,0,1-1.63-2,7.06,7.06,0,0,1-.55-2.91,6.11,6.11,0,0,1,.74-3,6.69,6.69,0,0,1,2-2.25,10,10,0,0,1,3.07-1.42,14.29,14.29,0,0,1,3.85-.49,15.8,15.8,0,0,1,4.42.52,8.4,8.4,0,0,1,2.91,1.41A6.35,6.35,0,0,1,299,29.8a12.81,12.81,0,0,1,.95,2.6l-3.74.62a9.89,9.89,0,0,0-.75-1.75A3.8,3.8,0,0,0,294.3,30a5,5,0,0,0-1.73-.76,10.49,10.49,0,0,0-2.52-.26,10.84,10.84,0,0,0-2.84.31,5.31,5.31,0,0,0-1.82.82,3.06,3.06,0,0,0-1,1.16,3.3,3.3,0,0,0-.28,1.35,4.36,4.36,0,0,0,.19,1.35,2.24,2.24,0,0,0,.71,1,4.54,4.54,0,0,0,1.41.78,12.54,12.54,0,0,0,2.32.56l3.54.57q4.31.7,6.17,2.46a6.63,6.63,0,0,1,1.87,5.1,6.58,6.58,0,0,1-.61,2.86,6.26,6.26,0,0,1-1.85,2.27,9.09,9.09,0,0,1-3.07,1.52,15.35,15.35,0,0,1-4.3.54,18.72,18.72,0,0,1-4.14-.43A10.72,10.72,0,0,1,283,49.92a7.25,7.25,0,0,1-2.36-2.44,8.12,8.12,0,0,1-1-3.69Z"/><path class="cls-1" d="M305.55,17.18H310V22h-4.4Zm.14,9.31h4.12V50.93h-4.12Z"/><path class="cls-1" d="M320.39,53.2a4.88,4.88,0,0,0,2,3.17,9,9,0,0,0,4.66.94c2.58,0,4.37-.71,5.36-2.15a10.9,10.9,0,0,0,1.49-6.26V46.3a10.09,10.09,0,0,1-3.42,3.07,9.7,9.7,0,0,1-4.71,1.09,10.26,10.26,0,0,1-4.61-1,9,9,0,0,1-3.23-2.65,11.47,11.47,0,0,1-1.92-3.9,17.4,17.4,0,0,1-.64-4.77,16,16,0,0,1,.76-5.08,11.34,11.34,0,0,1,2.17-3.93,9.77,9.77,0,0,1,3.43-2.52,10.91,10.91,0,0,1,4.51-.9,10.58,10.58,0,0,1,4.05.82A8.92,8.92,0,0,1,334,29.61V26.49H338V47a31.83,31.83,0,0,1-.45,5.7,10.89,10.89,0,0,1-1.65,4.3,7.68,7.68,0,0,1-3.33,2.72,13.62,13.62,0,0,1-5.48.94,14.17,14.17,0,0,1-7.57-1.72,7.28,7.28,0,0,1-3.21-5.7ZM334,37.79a12.36,12.36,0,0,0-.57-4,7.25,7.25,0,0,0-1.56-2.67,5.79,5.79,0,0,0-2.29-1.49,8.26,8.26,0,0,0-2.72-.45,7.89,7.89,0,0,0-2.82.5,5.77,5.77,0,0,0-2.26,1.58A7.67,7.67,0,0,0,320.27,34a13.7,13.7,0,0,0-.54,4.11,12.86,12.86,0,0,0,.59,4.16A7.87,7.87,0,0,0,321.86,45a5.64,5.64,0,0,0,2.19,1.52,7.27,7.27,0,0,0,2.54.47,8.06,8.06,0,0,0,3-.52,6.42,6.42,0,0,0,2.34-1.56,7.32,7.32,0,0,0,1.56-2.63,10.9,10.9,0,0,0,.57-3.7Z"/><path class="cls-1" d="M344.36,26.49h4.06v3.74a10.89,10.89,0,0,1,4-3.45,10.34,10.34,0,0,1,4.58-1c2.77,0,4.83.75,6.17,2.27s2,3.73,2,6.66V50.93h-4.11V35.47q0-3.39-1.23-4.79a4.79,4.79,0,0,0-3.79-1.4,8,8,0,0,0-2.71.48,6.73,6.73,0,0,0-2.44,1.51,7.68,7.68,0,0,0-1.79,2.2,6.37,6.37,0,0,0-.62,3V50.93h-4.11Z"/></svg>