<svg xmlns="http://www.w3.org/2000/svg" viewBox="0 0 180.11 29.9"><defs><style>.cls-1{fill:#505f81;}</style></defs><title>tone-color</title><g id="Layer_2" data-name="Layer 2"><g id="圖層_1" data-name="圖層 1"><path class="cls-1" d="M13.86,25.12H8.25V5.24H0V.68H22.11V5.24H13.86Z"/><path class="cls-1" d="M37,25.8c-6.3,0-12.28-4.25-12.28-12.9S30.74,0,37,0,49.32,4.19,49.32,12.9,43.27,25.8,37,25.8ZM30.73,12.9c0,6.64,3.95,8,6.31,8,2.09,0,6.31-1.05,6.31-8s-4.13-8-6.31-8S30.73,6.08,30.73,12.9Z"/><path class="cls-1" d="M71.14,25.12,58.8,8.5,59,25.12H53.49V.68H58.8L71.14,17.3,71,.68h5.49V25.12Z"/><path class="cls-1" d="M102.05,20.75v4.37H82V.68h19.63V5.05H87.6v5.49H100v4.19H87.6v6Z"/><path class="cls-1" d="M120.14,23.4A5.58,5.58,0,0,1,118.42,25a4.75,4.75,0,0,1-2.31.55,5.13,5.13,0,0,1-2.3-.49,4.63,4.63,0,0,1-1.6-1.34,5.78,5.78,0,0,1-.93-2,10,10,0,0,1-.3-2.5,9,9,0,0,1,.37-2.69,6,6,0,0,1,1.06-2,4.49,4.49,0,0,1,1.68-1.28,5.38,5.38,0,0,1,2.25-.44,5.23,5.23,0,0,1,1.94.38,4.41,4.41,0,0,1,1.81,1.46V8.47h2V25.12h-2Zm0-4.67a6.43,6.43,0,0,0-.31-2.25,3.19,3.19,0,0,0-1-1.36,3.1,3.1,0,0,0-1-.58,3.8,3.8,0,0,0-1.15-.17,3.74,3.74,0,0,0-1.39.26,2.81,2.81,0,0,0-1.12.83,4.22,4.22,0,0,0-.74,1.47,7.63,7.63,0,0,0-.27,2.18,7.62,7.62,0,0,0,.29,2.24,4.08,4.08,0,0,0,.77,1.44,2.78,2.78,0,0,0,1.07.77,3.27,3.27,0,0,0,1.23.23,4.12,4.12,0,0,0,1.21-.16,3.45,3.45,0,0,0,1.07-.56,3.5,3.5,0,0,0,1.06-1.4,5.39,5.39,0,0,0,.36-2.12Z"/><path class="cls-1" d="M135.69,21.74a4.33,4.33,0,0,1-1.55,2.75,5.57,5.57,0,0,1-3.58,1,5.34,5.34,0,0,1-4.22-1.67,6.79,6.79,0,0,1-1.47-4.65,8.5,8.5,0,0,1,.42-2.78,5.78,5.78,0,0,1,1.18-2,5,5,0,0,1,1.81-1.24,5.9,5.9,0,0,1,2.28-.43,5.81,5.81,0,0,1,2.4.44,4.34,4.34,0,0,1,1.65,1.22,5.28,5.28,0,0,1,.95,1.86,8.29,8.29,0,0,1,.32,2.35v1h-8.95a5.75,5.75,0,0,0,.24,1.69,4.12,4.12,0,0,0,.7,1.35,3.22,3.22,0,0,0,1.13.9,3.65,3.65,0,0,0,1.56.32,3.52,3.52,0,0,0,2.22-.57,2.91,2.91,0,0,0,.95-1.55Zm-1.84-3.66a5.85,5.85,0,0,0-.19-1.56,3.2,3.2,0,0,0-.58-1.2,2.52,2.52,0,0,0-1-.78,3.6,3.6,0,0,0-1.51-.28,3.22,3.22,0,0,0-2.51,1A4.69,4.69,0,0,0,127,18.08Z"/><path class="cls-1" d="M139.87,21.6a2.33,2.33,0,0,0,1.06,1.76,4.49,4.49,0,0,0,2.32.5,3.51,3.51,0,0,0,2.18-.52,1.72,1.72,0,0,0,.64-1.39,2.84,2.84,0,0,0-.08-.66,1.26,1.26,0,0,0-.32-.56,1.89,1.89,0,0,0-.65-.43,4.59,4.59,0,0,0-1.1-.31l-1.54-.23a11.56,11.56,0,0,1-1.79-.42,4.59,4.59,0,0,1-1.31-.66,2.61,2.61,0,0,1-.8-1,3.41,3.41,0,0,1-.27-1.43,3,3,0,0,1,.36-1.49,3.31,3.31,0,0,1,1-1.11,5,5,0,0,1,1.52-.7,7.11,7.11,0,0,1,1.9-.24,7.92,7.92,0,0,1,2.18.25,4.24,4.24,0,0,1,1.43.7,3.22,3.22,0,0,1,.87,1,6.09,6.09,0,0,1,.46,1.28l-1.84.31a5.06,5.06,0,0,0-.37-.87,1.82,1.82,0,0,0-.56-.61,2.55,2.55,0,0,0-.85-.38,5.45,5.45,0,0,0-1.25-.13,5,5,0,0,0-1.4.16,2.68,2.68,0,0,0-.9.4,1.59,1.59,0,0,0-.48.57,1.71,1.71,0,0,0-.14.67,2.18,2.18,0,0,0,.1.66,1.12,1.12,0,0,0,.35.52,2.39,2.39,0,0,0,.7.38,6.31,6.31,0,0,0,1.14.28l1.75.28a5.84,5.84,0,0,1,3,1.21,3.28,3.28,0,0,1,.92,2.52,3.3,3.3,0,0,1-.3,1.41,3.13,3.13,0,0,1-.91,1.12,4.41,4.41,0,0,1-1.52.75,7.43,7.43,0,0,1-2.12.27,9.4,9.4,0,0,1-2-.21,5.26,5.26,0,0,1-1.66-.67,3.45,3.45,0,0,1-1.17-1.2,3.89,3.89,0,0,1-.51-1.82Z"/><path class="cls-1" d="M150.71,8.47h2.17v2.36h-2.17Zm.07,4.6h2V25.12h-2Z"/><path class="cls-1" d="M158,26.24a2.38,2.38,0,0,0,1,1.56,4.39,4.39,0,0,0,2.3.47A3,3,0,0,0,164,27.21a5.42,5.42,0,0,0,.74-3.09V22.84A5,5,0,0,1,163,24.35a4.79,4.79,0,0,1-2.32.54,5.1,5.1,0,0,1-2.28-.48,4.49,4.49,0,0,1-1.59-1.3,5.9,5.9,0,0,1-.95-1.93,8.45,8.45,0,0,1-.31-2.35,8,8,0,0,1,.37-2.51A5.64,5.64,0,0,1,157,14.39a4.75,4.75,0,0,1,1.69-1.25,5.35,5.35,0,0,1,2.23-.44,5.2,5.2,0,0,1,2,.4,4.45,4.45,0,0,1,1.81,1.51V13.07h2V23.16A15.87,15.87,0,0,1,166.5,26a5.48,5.48,0,0,1-.81,2.13A3.92,3.92,0,0,1,164,29.44a6.72,6.72,0,0,1-2.7.46,6.94,6.94,0,0,1-3.73-.85A3.62,3.62,0,0,1,156,26.24Zm6.71-7.6a6,6,0,0,0-.28-2,3.42,3.42,0,0,0-.77-1.32,2.69,2.69,0,0,0-1.13-.73,4,4,0,0,0-1.34-.23,3.85,3.85,0,0,0-1.38.25,2.71,2.71,0,0,0-1.12.78,3.79,3.79,0,0,0-.75,1.38,6.59,6.59,0,0,0-.27,2,6.47,6.47,0,0,0,.29,2.06,4,4,0,0,0,.76,1.35,2.68,2.68,0,0,0,1.09.74,3.37,3.37,0,0,0,1.24.24,4,4,0,0,0,1.46-.26,3.11,3.11,0,0,0,1.15-.77,3.44,3.44,0,0,0,.77-1.29,5.33,5.33,0,0,0,.28-1.83Z"/><path class="cls-1" d="M169.85,13.07h2v1.84a5.42,5.42,0,0,1,2-1.7,5.22,5.22,0,0,1,2.26-.51,3.89,3.89,0,0,1,3.05,1.11,4.84,4.84,0,0,1,1,3.29v8h-2V17.5a3.57,3.57,0,0,0-.61-2.37,2.34,2.34,0,0,0-1.86-.69,3.91,3.91,0,0,0-1.34.24,3.13,3.13,0,0,0-1.2.74,3.85,3.85,0,0,0-.89,1.09,3.16,3.16,0,0,0-.3,1.48v7.13h-2Z"/></g></g></svg>