<svg id="圖層_1" data-name="圖層 1" xmlns="http://www.w3.org/2000/svg" viewBox="0 0 156.01 156.01"><defs><style>.cls-1{fill:#fff;}.cls-2{fill:#e4eaf1;}.cls-3{fill:#8497ab;}.cls-4{fill:none;stroke:#e4eaf1;stroke-linecap:round;stroke-miterlimit:10;stroke-width:4.2px;}</style></defs><title>TONE 行銷頁面元件</title><polygon class="cls-1" points="78.45 27.66 57.14 64.31 40.05 118.98 116.85 118.98 99.77 64.31 78.45 27.66"/><polyline class="cls-1" points="40.05 118.98 19.6 45.19 65.07 65.2"/><polyline class="cls-1" points="116.85 118.98 137.31 45.19 91.84 65.2"/><rect class="cls-2" x="31.56" y="115.29" width="93.78" height="13.06" rx="6.53"/><path class="cls-3" d="M99.07,76.93c0-.12,0-.23,0-.35H99a12,12,0,0,0-20.59-7.81,12,12,0,0,0-20.58,7.81h-.06c0,.12,0,.23,0,.35s0,.19,0,.28a11.53,11.53,0,0,0,.39,2.9C60.92,93.77,78.45,103,78.45,103S96,93.77,98.71,80.11a12,12,0,0,0,.39-2.9C99.1,77.12,99.08,77,99.07,76.93Z"/><line class="cls-4" x1="44.68" y1="102.7" x2="63.49" y2="102.7"/><line class="cls-4" x1="94.46" y1="102.7" x2="113.26" y2="102.7"/></svg>