<svg xmlns="http://www.w3.org/2000/svg" viewBox="0 0 322.56 79.05"><defs><style>.cls-1,.cls-2{fill:#fff;}.cls-2{font-size:41.42px;font-family:AktivGrotesk-Regular, Aktiv Grotesk;}</style></defs><title>Asset 1</title><g id="Layer_2" data-name="Layer 2"><g id="圖層_1" data-name="圖層 1"><path class="cls-1" d="M24.62,44.62h-10V9.31H0V1.21H39.28v8.1H24.62Z"/><path class="cls-1" d="M65.8,45.83C54.61,45.83,44,38.29,44,22.92S54.61,0,65.8,0,87.61,7.44,87.61,22.92,76.87,45.83,65.8,45.83ZM54.59,22.92c0,11.79,7,14.13,11.21,14.13C69.52,37.05,77,35.19,77,22.92S69.68,8.78,65.8,8.78,54.59,10.8,54.59,22.92Z"/><path class="cls-1" d="M126.37,44.62,104.45,15.1l.33,29.52H95V1.21h9.42l21.92,29.53L126,1.21h9.75V44.62Z"/><path class="cls-1" d="M181.29,36.85v7.77H145.7V1.21h34.87V9H155.62v9.75h22v7.44h-22V36.85Z"/><text class="cls-2" transform="translate(195.07 44.63)">design</text></g></g></svg>