<svg id="圖層_1" data-name="圖層 1" xmlns="http://www.w3.org/2000/svg" viewBox="0 0 87.78 87.78"><defs><style>.cls-1{fill:#fff;}.cls-2{fill:#ffdf00;}.cls-3{fill:#ff978e;}.cls-4{fill:#ff5b82;}</style></defs><title>TONE 行銷頁面元件</title><circle class="cls-1" cx="43.89" cy="43.89" r="42.54"/><path class="cls-2" d="M43.89,87.78A43.89,43.89,0,1,1,87.78,43.89,43.94,43.94,0,0,1,43.89,87.78Zm0-85.07A41.19,41.19,0,1,0,85.08,43.89,41.22,41.22,0,0,0,43.89,2.71Z"/><path class="cls-3" d="M61.54,57.93,58.3,61.17l4.48,4.47A2.29,2.29,0,1,0,66,62.4Z"/><path class="cls-3" d="M66.93,63.31l-4.39-4.38L58.9,55.3a1.14,1.14,0,0,0-1.62,0l-1.62,1.62a1.14,1.14,0,0,0,0,1.62l3.64,3.63,4.48,4.47a2.3,2.3,0,0,0,3.4-.17A2.4,2.4,0,0,0,66.93,63.31Z"/><path class="cls-3" d="M65.4,68.41a3.38,3.38,0,0,1-2.4-1l-8.12-8.1a2.25,2.25,0,0,1-.66-1.59,2.22,2.22,0,0,1,.66-1.58l1.62-1.63a2.25,2.25,0,0,1,3.17,0l8,8A3.5,3.5,0,0,1,68,67.16a3.41,3.41,0,0,1-2.46,1.25ZM58.12,56.08,56.44,57.7l8.12,8.17a1.2,1.2,0,0,0,.9.34,1.12,1.12,0,0,0,.86-.44,1.28,1.28,0,0,0-.17-1.68Z"/><circle class="cls-3" cx="40.04" cy="39.29" r="18.95"/><path class="cls-4" d="M48.54,31.44a11.71,11.71,0,1,0,0,16.57A11.71,11.71,0,0,0,48.54,31.44Z"/><path class="cls-1" d="M38.93,43.46a3.5,3.5,0,0,1,.16-1.05,3.78,3.78,0,0,1,.43-.88,8.32,8.32,0,0,1,.6-.76q.33-.36.69-.72l.62-.62a4.66,4.66,0,0,0,.73-.94,2.55,2.55,0,0,0,.3-1.3,2.12,2.12,0,0,0-.57-1.59A2.15,2.15,0,0,0,40.3,35a2.78,2.78,0,0,0-1.9.57,3.4,3.4,0,0,0-.94,1.84l-2.24-.3a6.41,6.41,0,0,1,.51-1.59,4.55,4.55,0,0,1,1-1.33,4.34,4.34,0,0,1,1.5-.91A6.09,6.09,0,0,1,40.32,33a5,5,0,0,1,3.44,1.08A3.6,3.6,0,0,1,45,36.89a4.42,4.42,0,0,1-.31,1.73,4.27,4.27,0,0,1-.76,1.19l-1.3,1.31a6.25,6.25,0,0,0-.92,1.13,2.43,2.43,0,0,0-.37,1.32v.32H38.93Zm2.44,2.1v2.92h-2.5V45.56Z"/></svg>