<svg id="圖層_1" data-name="圖層 1" xmlns="http://www.w3.org/2000/svg" viewBox="0 0 87.78 87.78"><defs><style>.cls-1{fill:#ffdf00;}.cls-2{fill:#fff;}.cls-3{fill:#ff978e;}.cls-4{fill:#ff5b82;}</style></defs><title>TONE 行銷頁面元件</title><circle class="cls-1" cx="43.89" cy="43.89" r="42.54"/><circle class="cls-1" cx="43.89" cy="43.89" r="42.54"/><circle class="cls-2" cx="43.89" cy="43.89" r="42.54"/><path class="cls-1" d="M43.89,87.78A43.89,43.89,0,1,1,87.78,43.89,43.94,43.94,0,0,1,43.89,87.78Zm0-85.07A41.19,41.19,0,1,0,85.08,43.89,41.22,41.22,0,0,0,43.89,2.71Z"/><polygon class="cls-3" points="54.03 34.06 22.35 65.74 30.39 31.73 47.23 27.26 54.03 34.06"/><polygon class="cls-3" points="53.94 33.97 22.26 65.65 56.27 57.61 60.74 40.77 53.94 33.97"/><path class="cls-2" d="M22.5,66.79a.89.89,0,0,1-.63-.26.91.91,0,0,1,0-1.28L43.15,44a.9.9,0,0,1,1.27,0,.88.88,0,0,1,0,1.27L23.14,66.53A.93.93,0,0,1,22.5,66.79Z"/><circle class="cls-2" cx="45.08" cy="43.31" r="3.89"/><rect class="cls-2" x="44.88" y="26.14" width="23.13" height="10.99" transform="translate(38.91 -30.65) rotate(45)"/><rect class="cls-4" x="46.35" y="24.68" width="23.13" height="10.99" transform="translate(38.3 -32.12) rotate(45)"/><rect class="cls-3" x="48.77" y="25.68" width="23.13" height="4.14" transform="translate(37.3 -34.54) rotate(45)"/></svg>