<svg id="圖層_1" data-name="圖層 1" xmlns="http://www.w3.org/2000/svg" viewBox="0 0 87.78 87.78"><defs><style>.cls-1{fill:#ffdf00;}.cls-2{fill:#fff;}.cls-3{fill:#ff978e;}.cls-4{fill:#ff5b82;}</style></defs><title>TONE 行銷頁面元件</title><circle class="cls-1" cx="43.89" cy="43.89" r="42.54"/><circle class="cls-2" cx="43.89" cy="43.89" r="42.54"/><path class="cls-1" d="M43.89,87.78A43.89,43.89,0,1,1,87.78,43.89,43.94,43.94,0,0,1,43.89,87.78Zm0-85.07A41.19,41.19,0,1,0,85.08,43.89,41.22,41.22,0,0,0,43.89,2.71Z"/><rect class="cls-3" x="24.6" y="24.89" width="37.48" height="40.15" transform="matrix(0.96, 0.27, -0.27, 0.96, 13.73, -10.02)"/><rect class="cls-4" x="35.27" y="18.23" width="2.92" height="9.77" rx="1.46" transform="translate(7.59 -9.05) rotate(15.64)"/><rect class="cls-4" x="43.14" y="20.43" width="2.92" height="9.77" rx="1.46" transform="translate(8.48 -11.09) rotate(15.64)"/><rect class="cls-4" x="51" y="22.63" width="2.92" height="9.77" rx="1.46" transform="translate(9.36 -13.13) rotate(15.64)"/><rect class="cls-4" x="58.87" y="24.84" width="2.92" height="9.77" rx="1.46" transform="translate(10.25 -15.16) rotate(15.64)"/><path class="cls-2" d="M32.06,46a.92.92,0,0,1-.7-.33.9.9,0,0,1-.12-.92L36.79,32a.89.89,0,0,1,.67-.53.92.92,0,0,1,.81.27l9.31,9.92a.89.89,0,0,1,.2.89.9.9,0,0,1-.68.61L32.23,46Zm5.83-12.07-4.32,10,11.58-2.24Z"/><path class="cls-2" d="M52.59,54.37l-.24,0L40.12,50.91a.9.9,0,0,1-.63-1.11.89.89,0,0,1,1.11-.62L52.84,52.6a.91.91,0,0,1,.62,1.11A.9.9,0,0,1,52.59,54.37Z"/><path class="cls-2" d="M48.4,58.73a.69.69,0,0,1-.25,0L38.88,56.1a.9.9,0,0,1,.48-1.74L48.64,57a.9.9,0,0,1-.24,1.77Z"/></svg>