<svg id="圖層_1" data-name="圖層 1" xmlns="http://www.w3.org/2000/svg" viewBox="0 0 87.78 87.78"><defs><style>.cls-1{fill:#ffdf00;}.cls-2{fill:#fff;}.cls-3{fill:#ff978e;}.cls-4{fill:#ff5b82;}</style></defs><title>TONE 行銷頁面元件</title><circle class="cls-1" cx="43.89" cy="43.89" r="42.54"/><circle class="cls-2" cx="43.89" cy="43.89" r="42.54"/><path class="cls-1" d="M43.89,87.78A43.89,43.89,0,1,1,87.78,43.89,43.94,43.94,0,0,1,43.89,87.78Zm0-85.07A41.19,41.19,0,1,0,85.08,43.89,41.22,41.22,0,0,0,43.89,2.71Z"/><circle class="cls-3" cx="40.13" cy="43.43" r="19.53"/><path class="cls-2" d="M58.48,37.62H40.13a.9.9,0,1,1,0-1.8H58.48a.9.9,0,0,1,0,1.8Z"/><path class="cls-2" d="M59.51,46.79H44A.9.9,0,0,1,44,45H59.51a.9.9,0,0,1,0,1.8Z"/><path class="cls-4" d="M73.13,37.62H58.48a.9.9,0,0,1,0-1.8H73.13a.9.9,0,0,1,0,1.8Z"/><path class="cls-4" d="M68.28,46.79H59.51a.9.9,0,0,1,0-1.8h8.77a.9.9,0,0,1,0,1.8Z"/><path class="cls-4" d="M71.56,54.57H61a.9.9,0,0,1,0-1.8H71.56a.9.9,0,1,1,0,1.8Z"/><path class="cls-4" d="M37.43,59.06H37.3C28,58.27,24.91,49.34,24.78,49a1.5,1.5,0,1,1,2.84-1c.11.33,2.67,7.45,9.93,8.06a1.5,1.5,0,0,1-.12,3Z"/></svg>