<svg id="圖層_1" data-name="圖層 1" xmlns="http://www.w3.org/2000/svg" viewBox="0 0 87.78 87.78"><defs><style>.cls-1{fill:#fff;}.cls-2{fill:#ffdf00;}.cls-3{fill:#ff978e;}.cls-4{fill:#ff5b82;}</style></defs><title>TONE 行銷頁面元件</title><circle class="cls-1" cx="43.89" cy="43.89" r="42.54"/><path class="cls-2" d="M43.89,87.78A43.89,43.89,0,1,1,87.78,43.89,43.94,43.94,0,0,1,43.89,87.78Zm0-85.07A41.19,41.19,0,1,0,85.07,43.89,41.22,41.22,0,0,0,43.89,2.71Z"/><polygon class="cls-3" points="64.12 63.76 25.79 63.76 25.79 21.89 53.41 21.89 64.12 32.6 64.12 63.76"/><polygon class="cls-4" points="53.41 32.6 64.12 32.6 53.41 21.89 53.41 32.6"/><path class="cls-1" d="M57.19,39.16H32.27a.9.9,0,0,1,0-1.8H57.19a.9.9,0,0,1,0,1.8Z"/><path class="cls-1" d="M57.19,46.05H32.27a.9.9,0,0,1,0-1.8H57.19a.9.9,0,0,1,0,1.8Z"/><path class="cls-1" d="M57.19,52.94H32.27a.9.9,0,0,1,0-1.8H57.19a.9.9,0,0,1,0,1.8Z"/><path class="cls-4" d="M41,30.16H32.27a1.5,1.5,0,0,1,0-3H41a1.5,1.5,0,0,1,0,3Z"/></svg>